DBRep_DrawableShape

CASCADE Topology V1, (c) Matra-Datavision
Locations 35
1
              1               0               0               0 
              0               1               0               0 
              0               0               1               0 
1
              1               0               0               0 
              0               1               0               0 
              0               0               1               0 
1
              1               0               0              -0 
              0               1               0         11.1125 
              0               0               1              -0 
2  1 1 2 1 3 1 0
1
              1               0               0               0 
              0               1               0               0 
              0               0               1               0 
2  3 -1 2 -1 1 -1 5 -1 0
1
              1               0               0          2133.6 
              0               1               0               0 
              0               0               1               0 
2  3 -1 2 -1 1 -1 7 -1 0
1
              1               0               0               0 
              0               1               0               0 
              0               0               1          2400.3 
2  3 -1 2 -1 1 -1 9 -1 0
1
              1               0               0               0 
              0               1               0               0 
              0               0               1            38.1 
2  3 -1 2 -1 1 -1 11 -1 0
1
              1               0               0          2400.3 
              0               1               0               0 
              0               0               1            38.1 
2  3 -1 2 -1 1 -1 13 -1 0
1
              1               0               0           266.7 
              0               1               0               0 
              0               0               1            38.1 
2  3 -1 2 -1 1 -1 15 -1 0
1
              1               0               0          2133.6 
              0               1               0               0 
              0               0               1            38.1 
2  3 -1 2 -1 1 -1 17 -1 0
1
              1               0               0           266.7 
              0               1               0               0 
              0               0               1          2108.2 
2  3 -1 2 -1 1 -1 19 -1 0
1
              1               0               0           406.4 
              0               1               0               0 
              0               0               1         2393.95 
2  3 -1 2 -1 1 -1 21 -1 0
1
              1               0               0           812.8 
              0               1               0               0 
              0               0               1         2393.95 
2  3 -1 2 -1 1 -1 23 -1 0
1
              1               0               0          1219.2 
              0               1               0               0 
              0               0               1         2393.95 
2  3 -1 2 -1 1 -1 25 -1 0
1
              1               0               0          1625.6 
              0               1               0               0 
              0               0               1         2393.95 
2  3 -1 2 -1 1 -1 27 -1 0
1
              1               0               0            2032 
              0               1               0               0 
              0               0               1         2393.95 
2  3 -1 2 -1 1 -1 29 -1 0
1
              1               0               0               0 
              0               1               0        -11.1125 
              0               0               1               0 
2  3 -1 2 -1 1 -1 31 -1 0
2  3 -1 2 -1 1 -1 0
1
              1               0               0           304.8 
              0               1               0        -12.1125 
              0               0               1               0 
2  3 -1 2 -1 1 -1 34 -1 0
Curve2ds 0
Curves 180
1 0 -22.224999999999998 0 -0 -0 1 
1 0 -22.224999999999998 38.099999999999994 -0 -1 -0 
1 0 -161.92499999999998 0 -0 -0 1 
1 0 -22.224999999999998 0 -0 -1 -0 
1 304.79999999999984 -22.224999999999998 0 -0 -0 1 
1 304.79999999999984 -22.224999999999998 38.099999999999994 -0 -1 -0 
1 304.79999999999984 -161.92499999999998 0 -0 -0 1 
1 304.79999999999984 -22.224999999999998 0 -0 -1 -0 
1 0 -22.224999999999998 0 1 -0 -0 
1 0 -22.224999999999998 38.099999999999994 1 -0 -0 
1 0 -161.92499999999998 0 1 -0 -0 
1 0 -161.92499999999998 38.099999999999994 1 -0 -0 
1 0 -22.224999999999998 0 -0 -0 1 
1 0 -22.224999999999998 38.099999999999994 -0 -1 -0 
1 0 -161.92499999999998 0 -0 -0 1 
1 0 -22.224999999999998 0 -0 -1 -0 
1 304.79999999999973 -22.224999999999998 0 -0 -0 1 
1 304.79999999999973 -22.224999999999998 38.099999999999994 -0 -1 -0 
1 304.79999999999973 -161.92499999999998 0 -0 -0 1 
1 304.79999999999973 -22.224999999999998 0 -0 -1 -0 
1 0 -22.224999999999998 0 1 -0 -0 
1 0 -22.224999999999998 38.099999999999994 1 -0 -0 
1 0 -161.92499999999998 0 1 -0 -0 
1 0 -161.92499999999998 38.099999999999994 1 -0 -0 
1 0 -22.224999999999998 0 -0 -0 1 
1 0 -22.224999999999998 38.099999999999994 -0 -1 -0 
1 0 -161.92499999999998 0 -0 -0 1 
1 0 -22.224999999999998 0 -0 -1 -0 
1 2438.3999999999996 -22.224999999999998 0 -0 -0 1 
1 2438.3999999999996 -22.224999999999998 38.099999999999994 -0 -1 -0 
1 2438.3999999999996 -161.92499999999998 0 -0 -0 1 
1 2438.3999999999996 -22.224999999999998 0 -0 -1 -0 
1 0 -22.224999999999998 0 1 -0 -0 
1 0 -22.224999999999998 38.099999999999994 1 -0 -0 
1 0 -161.92499999999998 0 1 -0 -0 
1 0 -161.92499999999998 38.099999999999994 1 -0 -0 
1 0 -22.224999999999998 0 -0 -0 1 
1 0 -22.224999999999998 2362.1999999999998 -0 -1 -0 
1 0 -161.92499999999998 0 -0 -0 1 
1 0 -22.224999999999998 0 -0 -1 -0 
1 38.099999999999994 -22.224999999999998 0 -0 -0 1 
1 38.099999999999994 -22.224999999999998 2362.1999999999998 -0 -1 -0 
1 38.099999999999994 -161.92499999999998 0 -0 -0 1 
1 38.099999999999994 -22.224999999999998 0 -0 -1 -0 
1 0 -22.224999999999998 0 1 -0 -0 
1 0 -22.224999999999998 2362.1999999999998 1 -0 -0 
1 0 -161.92499999999998 0 1 -0 -0 
1 0 -161.92499999999998 2362.1999999999998 1 -0 -0 
1 0 -22.224999999999998 0 -0 -0 1 
1 0 -22.224999999999998 2362.1999999999998 -0 -1 -0 
1 0 -161.92499999999998 0 -0 -0 1 
1 0 -22.224999999999998 0 -0 -1 -0 
1 38.099999999999994 -22.224999999999998 0 -0 -0 1 
1 38.099999999999994 -22.224999999999998 2362.1999999999998 -0 -1 -0 
1 38.099999999999994 -161.92499999999998 0 -0 -0 1 
1 38.099999999999994 -22.224999999999998 0 -0 -1 -0 
1 0 -22.224999999999998 0 1 -0 -0 
1 0 -22.224999999999998 2362.1999999999998 1 -0 -0 
1 0 -161.92499999999998 0 1 -0 -0 
1 0 -161.92499999999998 2362.1999999999998 1 -0 -0 
1 0 -22.224999999999998 0 -0 -0 1 
1 0 -22.224999999999998 2070.0999999999999 -0 -1 -0 
1 0 -161.92499999999998 0 -0 -0 1 
1 0 -22.224999999999998 0 -0 -1 -0 
1 38.099999999999994 -22.224999999999998 0 -0 -0 1 
1 38.099999999999994 -22.224999999999998 2070.0999999999999 -0 -1 -0 
1 38.099999999999994 -161.92499999999998 0 -0 -0 1 
1 38.099999999999994 -22.224999999999998 0 -0 -1 -0 
1 0 -22.224999999999998 0 1 -0 -0 
1 0 -22.224999999999998 2070.0999999999999 1 -0 -0 
1 0 -161.92499999999998 0 1 -0 -0 
1 0 -161.92499999999998 2070.0999999999999 1 -0 -0 
1 0 -22.224999999999998 0 -0 -0 1 
1 0 -22.224999999999998 2070.0999999999999 -0 -1 -0 
1 0 -161.92499999999998 0 -0 -0 1 
1 0 -22.224999999999998 0 -0 -1 -0 
1 38.099999999999994 -22.224999999999998 0 -0 -0 1 
1 38.099999999999994 -22.224999999999998 2070.0999999999999 -0 -1 -0 
1 38.099999999999994 -161.92499999999998 0 -0 -0 1 
1 38.099999999999994 -22.224999999999998 0 -0 -1 -0 
1 0 -22.224999999999998 0 1 -0 -0 
1 0 -22.224999999999998 2070.0999999999999 1 -0 -0 
1 0 -161.92499999999998 0 1 -0 -0 
1 0 -161.92499999999998 2070.0999999999999 1 -0 -0 
1 0 -22.224999999999998 0 -0 -0 1 
1 0 -22.224999999999998 285.75 -0 -1 -0 
1 0 -161.92499999999998 0 -0 -0 1 
1 0 -22.224999999999998 0 -0 -1 -0 
1 1905 -22.224999999999998 0 -0 -0 1 
1 1905 -22.224999999999998 285.75 -0 -1 -0 
1 1905 -161.92499999999998 0 -0 -0 1 
1 1905 -22.224999999999998 0 -0 -1 -0 
1 0 -22.224999999999998 0 1 -0 -0 
1 0 -22.224999999999998 285.75 1 -0 -0 
1 0 -161.92499999999998 0 1 -0 -0 
1 0 -161.92499999999998 285.75 1 -0 -0 
1 0 -22.224999999999998 0 -0 -0 1 
1 0 -22.224999999999998 6.3499999999999091 -0 -1 -0 
1 0 -161.92499999999998 0 -0 -0 1 
1 0 -22.224999999999998 0 -0 -1 -0 
1 38.099999999999994 -22.224999999999998 0 -0 -0 1 
1 38.099999999999994 -22.224999999999998 6.3499999999999091 -0 -1 -0 
1 38.099999999999994 -161.92499999999998 0 -0 -0 1 
1 38.099999999999994 -22.224999999999998 0 -0 -1 -0 
1 0 -22.224999999999998 0 1 -0 -0 
1 0 -22.224999999999998 6.3499999999999091 1 -0 -0 
1 0 -161.92499999999998 0 1 -0 -0 
1 0 -161.92499999999998 6.3499999999999091 1 -0 -0 
1 0 -22.224999999999998 0 -0 -0 1 
1 0 -22.224999999999998 6.3499999999999091 -0 -1 -0 
1 0 -161.92499999999998 0 -0 -0 1 
1 0 -22.224999999999998 0 -0 -1 -0 
1 38.099999999999994 -22.224999999999998 0 -0 -0 1 
1 38.099999999999994 -22.224999999999998 6.3499999999999091 -0 -1 -0 
1 38.099999999999994 -161.92499999999998 0 -0 -0 1 
1 38.099999999999994 -22.224999999999998 0 -0 -1 -0 
1 0 -22.224999999999998 0 1 -0 -0 
1 0 -22.224999999999998 6.3499999999999091 1 -0 -0 
1 0 -161.92499999999998 0 1 -0 -0 
1 0 -161.92499999999998 6.3499999999999091 1 -0 -0 
1 0 -22.224999999999998 0 -0 -0 1 
1 0 -22.224999999999998 6.3499999999999091 -0 -1 -0 
1 0 -161.92499999999998 0 -0 -0 1 
1 0 -22.224999999999998 0 -0 -1 -0 
1 38.099999999999994 -22.224999999999998 0 -0 -0 1 
1 38.099999999999994 -22.224999999999998 6.3499999999999091 -0 -1 -0 
1 38.099999999999994 -161.92499999999998 0 -0 -0 1 
1 38.099999999999994 -22.224999999999998 0 -0 -1 -0 
1 0 -22.224999999999998 0 1 -0 -0 
1 0 -22.224999999999998 6.3499999999999091 1 -0 -0 
1 0 -161.92499999999998 0 1 -0 -0 
1 0 -161.92499999999998 6.3499999999999091 1 -0 -0 
1 0 -22.224999999999998 0 -0 -0 1 
1 0 -22.224999999999998 6.3499999999999091 -0 -1 -0 
1 0 -161.92499999999998 0 -0 -0 1 
1 0 -22.224999999999998 0 -0 -1 -0 
1 38.099999999999994 -22.224999999999998 0 -0 -0 1 
1 38.099999999999994 -22.224999999999998 6.3499999999999091 -0 -1 -0 
1 38.099999999999994 -161.92499999999998 0 -0 -0 1 
1 38.099999999999994 -22.224999999999998 0 -0 -1 -0 
1 0 -22.224999999999998 0 1 -0 -0 
1 0 -22.224999999999998 6.3499999999999091 1 -0 -0 
1 0 -161.92499999999998 0 1 -0 -0 
1 0 -161.92499999999998 6.3499999999999091 1 -0 -0 
1 0 -22.224999999999998 0 -0 -0 1 
1 0 -22.224999999999998 6.3499999999999091 -0 -1 -0 
1 0 -161.92499999999998 0 -0 -0 1 
1 0 -22.224999999999998 0 -0 -1 -0 
1 38.099999999999994 -22.224999999999998 0 -0 -0 1 
1 38.099999999999994 -22.224999999999998 6.3499999999999091 -0 -1 -0 
1 38.099999999999994 -161.92499999999998 0 -0 -0 1 
1 38.099999999999994 -22.224999999999998 0 -0 -1 -0 
1 0 -22.224999999999998 0 1 -0 -0 
1 0 -22.224999999999998 6.3499999999999091 1 -0 -0 
1 0 -161.92499999999998 0 1 -0 -0 
1 0 -161.92499999999998 6.3499999999999091 1 -0 -0 
1 0 0 0 -0 -0 1 
1 0 0 2438.3999999999996 -0 -1 -0 
1 0 -11.112499999999999 0 -0 -0 1 
1 0 0 0 -0 -1 -0 
1 0 0 0 1 -0 -0 
1 304.79999999999984 -11.112499999999999 0 -0 -0 -1 
1 152.39999999999992 -11.112499999999999 2108.1999999999998 1 -0 -0 
1 2133.5999999999999 -11.112499999999999 0 -0 -0 -1 
1 0 0 0 1 -0 -0 
1 2438.3999999999996 0 0 -0 -0 1 
1 0 0 2438.3999999999996 1 -0 -0 
1 0 -11.112499999999999 2438.3999999999996 1 -0 -0 
1 2438.3999999999996 0 2438.3999999999996 -0 -1 -0 
1 0 -11.112499999999999 0 1 -0 -0 
1 304.79999999999984 -22.224999999999998 0 -0 -0 -1 
1 152.39999999999992 -22.224999999999998 2108.1999999999998 1 -0 -0 
1 2133.5999999999999 -22.224999999999998 0 -0 -0 -1 
1 0 -11.112499999999999 0 1 -0 -0 
1 2438.3999999999996 -11.112499999999999 0 -0 -0 1 
1 0 2 0 -0 -1 -0 
1 0 2 2108.1999999999998 -0 -1 -0 
1 1828.8 2 2108.1999999999998 -0 -1 -0 
1 1828.8 2 0 -0 -1 -0 
1 2438.3999999999996 0 0 -0 -1 -0 
Polygon3D 0
PolygonOnTriangulations 0
Surfaces 88
1 0 -22.224999999999998 0 1 -0 -0 -0 -0 1 -0 1 -0 
1 304.79999999999984 -22.224999999999998 0 1 -0 -0 -0 -0 1 -0 1 -0 
1 0 -22.224999999999998 0 -0 -1 -0 -0 -0 1 1 -0 -0 
1 0 -161.92499999999998 0 -0 -1 -0 -0 -0 1 1 -0 -0 
1 0 -22.224999999999998 0 -0 -0 1 1 -0 -0 -0 -1 -0 
1 0 -22.224999999999998 38.099999999999994 -0 -0 1 1 -0 -0 -0 -1 -0 
1 0 -22.224999999999998 0 1 -0 -0 -0 -0 1 -0 1 -0 
1 304.79999999999973 -22.224999999999998 0 1 -0 -0 -0 -0 1 -0 1 -0 
1 0 -22.224999999999998 0 -0 -1 -0 -0 -0 1 1 -0 -0 
1 0 -161.92499999999998 0 -0 -1 -0 -0 -0 1 1 -0 -0 
1 0 -22.224999999999998 0 -0 -0 1 1 -0 -0 -0 -1 -0 
1 0 -22.224999999999998 38.099999999999994 -0 -0 1 1 -0 -0 -0 -1 -0 
1 0 -22.224999999999998 0 1 -0 -0 -0 -0 1 -0 1 -0 
1 2438.3999999999996 -22.224999999999998 0 1 -0 -0 -0 -0 1 -0 1 -0 
1 0 -22.224999999999998 0 -0 -1 -0 -0 -0 1 1 -0 -0 
1 0 -161.92499999999998 0 -0 -1 -0 -0 -0 1 1 -0 -0 
1 0 -22.224999999999998 0 -0 -0 1 1 -0 -0 -0 -1 -0 
1 0 -22.224999999999998 38.099999999999994 -0 -0 1 1 -0 -0 -0 -1 -0 
1 0 -22.224999999999998 0 1 -0 -0 -0 -0 1 -0 1 -0 
1 38.099999999999994 -22.224999999999998 0 1 -0 -0 -0 -0 1 -0 1 -0 
1 0 -22.224999999999998 0 -0 -1 -0 -0 -0 1 1 -0 -0 
1 0 -161.92499999999998 0 -0 -1 -0 -0 -0 1 1 -0 -0 
1 0 -22.224999999999998 0 -0 -0 1 1 -0 -0 -0 -1 -0 
1 0 -22.224999999999998 2362.1999999999998 -0 -0 1 1 -0 -0 -0 -1 -0 
1 0 -22.224999999999998 0 1 -0 -0 -0 -0 1 -0 1 -0 
1 38.099999999999994 -22.224999999999998 0 1 -0 -0 -0 -0 1 -0 1 -0 
1 0 -22.224999999999998 0 -0 -1 -0 -0 -0 1 1 -0 -0 
1 0 -161.92499999999998 0 -0 -1 -0 -0 -0 1 1 -0 -0 
1 0 -22.224999999999998 0 -0 -0 1 1 -0 -0 -0 -1 -0 
1 0 -22.224999999999998 2362.1999999999998 -0 -0 1 1 -0 -0 -0 -1 -0 
1 0 -22.224999999999998 0 1 -0 -0 -0 -0 1 -0 1 -0 
1 38.099999999999994 -22.224999999999998 0 1 -0 -0 -0 -0 1 -0 1 -0 
1 0 -22.224999999999998 0 -0 -1 -0 -0 -0 1 1 -0 -0 
1 0 -161.92499999999998 0 -0 -1 -0 -0 -0 1 1 -0 -0 
1 0 -22.224999999999998 0 -0 -0 1 1 -0 -0 -0 -1 -0 
1 0 -22.224999999999998 2070.0999999999999 -0 -0 1 1 -0 -0 -0 -1 -0 
1 0 -22.224999999999998 0 1 -0 -0 -0 -0 1 -0 1 -0 
1 38.099999999999994 -22.224999999999998 0 1 -0 -0 -0 -0 1 -0 1 -0 
1 0 -22.224999999999998 0 -0 -1 -0 -0 -0 1 1 -0 -0 
1 0 -161.92499999999998 0 -0 -1 -0 -0 -0 1 1 -0 -0 
1 0 -22.224999999999998 0 -0 -0 1 1 -0 -0 -0 -1 -0 
1 0 -22.224999999999998 2070.0999999999999 -0 -0 1 1 -0 -0 -0 -1 -0 
1 0 -22.224999999999998 0 1 -0 -0 -0 -0 1 -0 1 -0 
1 1905 -22.224999999999998 0 1 -0 -0 -0 -0 1 -0 1 -0 
1 0 -22.224999999999998 0 -0 -1 -0 -0 -0 1 1 -0 -0 
1 0 -161.92499999999998 0 -0 -1 -0 -0 -0 1 1 -0 -0 
1 0 -22.224999999999998 0 -0 -0 1 1 -0 -0 -0 -1 -0 
1 0 -22.224999999999998 285.75 -0 -0 1 1 -0 -0 -0 -1 -0 
1 0 -22.224999999999998 0 1 -0 -0 -0 -0 1 -0 1 -0 
1 38.099999999999994 -22.224999999999998 0 1 -0 -0 -0 -0 1 -0 1 -0 
1 0 -22.224999999999998 0 -0 -1 -0 -0 -0 1 1 -0 -0 
1 0 -161.92499999999998 0 -0 -1 -0 -0 -0 1 1 -0 -0 
1 0 -22.224999999999998 0 -0 -0 1 1 -0 -0 -0 -1 -0 
1 0 -22.224999999999998 6.3499999999999091 -0 -0 1 1 -0 -0 -0 -1 -0 
1 0 -22.224999999999998 0 1 -0 -0 -0 -0 1 -0 1 -0 
1 38.099999999999994 -22.224999999999998 0 1 -0 -0 -0 -0 1 -0 1 -0 
1 0 -22.224999999999998 0 -0 -1 -0 -0 -0 1 1 -0 -0 
1 0 -161.92499999999998 0 -0 -1 -0 -0 -0 1 1 -0 -0 
1 0 -22.224999999999998 0 -0 -0 1 1 -0 -0 -0 -1 -0 
1 0 -22.224999999999998 6.3499999999999091 -0 -0 1 1 -0 -0 -0 -1 -0 
1 0 -22.224999999999998 0 1 -0 -0 -0 -0 1 -0 1 -0 
1 38.099999999999994 -22.224999999999998 0 1 -0 -0 -0 -0 1 -0 1 -0 
1 0 -22.224999999999998 0 -0 -1 -0 -0 -0 1 1 -0 -0 
1 0 -161.92499999999998 0 -0 -1 -0 -0 -0 1 1 -0 -0 
1 0 -22.224999999999998 0 -0 -0 1 1 -0 -0 -0 -1 -0 
1 0 -22.224999999999998 6.3499999999999091 -0 -0 1 1 -0 -0 -0 -1 -0 
1 0 -22.224999999999998 0 1 -0 -0 -0 -0 1 -0 1 -0 
1 38.099999999999994 -22.224999999999998 0 1 -0 -0 -0 -0 1 -0 1 -0 
1 0 -22.224999999999998 0 -0 -1 -0 -0 -0 1 1 -0 -0 
1 0 -161.92499999999998 0 -0 -1 -0 -0 -0 1 1 -0 -0 
1 0 -22.224999999999998 0 -0 -0 1 1 -0 -0 -0 -1 -0 
1 0 -22.224999999999998 6.3499999999999091 -0 -0 1 1 -0 -0 -0 -1 -0 
1 0 -22.224999999999998 0 1 -0 -0 -0 -0 1 -0 1 -0 
1 38.099999999999994 -22.224999999999998 0 1 -0 -0 -0 -0 1 -0 1 -0 
1 0 -22.224999999999998 0 -0 -1 -0 -0 -0 1 1 -0 -0 
1 0 -161.92499999999998 0 -0 -1 -0 -0 -0 1 1 -0 -0 
1 0 -22.224999999999998 0 -0 -0 1 1 -0 -0 -0 -1 -0 
1 0 -22.224999999999998 6.3499999999999091 -0 -0 1 1 -0 -0 -0 -1 -0 
1 0 0 0 1 -0 -0 -0 -0 1 -0 1 -0 
1 0 0 0 -0 -1 -0 -0 -0 1 1 -0 -0 
1 0 0 2438.3999999999996 -0 -0 1 1 -0 -0 -0 -1 -0 
1 0 -11.112499999999999 0 -0 -1 -0 -0 -0 1 1 -0 -0 
1 0 0 0 -0 -0 1 1 -0 -0 -0 -1 -0 
1 0 2 0 1 -0 -0 -0 -0 1 -0 1 -0 
1 0 2 2108.1999999999998 -0 -0 1 1 -0 -0 -0 -1 -0 
1 1828.8 2 0 1 -0 -0 -0 -0 1 -0 1 -0 
1 0 0 0 -0 -0 1 1 -0 -0 -0 -1 -0 
1 2438.3999999999996 0 0 1 -0 -0 -0 -0 1 -0 1 -0 
Triangulations 0

TShapes 506
Ve
1e-07
0 -11.1125 38.1
0 0

0101101
*
Ve
1e-07
0 -11.1125 0
0 0

0101101
*
Ed
 1e-07 1 1 0
1  1 0 0 38.1
0

0101000
-506 6 +505 6 *
Ve
1e-07
0 -150.8125 38.1
0 0

0101101
*
Ed
 1e-07 1 1 0
1  2 0 0 139.7
0

0101000
-503 6 +506 6 *
Ve
1e-07
0 -150.8125 0
0 0

0101101
*
Ed
 1e-07 1 1 0
1  3 0 0 38.1
0

0101000
-503 6 +501 6 *
Ed
 1e-07 1 1 0
1  4 0 0 139.7
0

0101000
-501 6 +505 6 *
Wi

0101100
-504 0 -502 0 +500 0 +499 0 *
Fa
0  1e-07 1 0

0111000
+498 0 *
Ve
1e-07
304.8 -11.1125 38.1
0 0

0101101
*
Ve
1e-07
304.8 -11.1125 0
0 0

0101101
*
Ed
 1e-07 1 1 0
1  5 0 0 38.1
0

0101000
-496 6 +495 6 *
Ve
1e-07
304.8 -150.8125 38.1
0 0

0101101
*
Ed
 1e-07 1 1 0
1  6 0 0 139.7
0

0101000
-493 6 +496 6 *
Ve
1e-07
304.8 -150.8125 0
0 0

0101101
*
Ed
 1e-07 1 1 0
1  7 0 0 38.1
0

0101000
-493 6 +491 6 *
Ed
 1e-07 1 1 0
1  8 0 0 139.7
0

0101000
-491 6 +495 6 *
Wi

0101100
-494 0 -492 0 +490 0 +489 0 *
Fa
0  1e-07 2 0

0111000
+488 0 *
Ed
 1e-07 1 1 0
1  9 0 0 304.8
0

0101000
-495 6 +505 6 *
Ed
 1e-07 1 1 0
1  10 0 0 304.8
0

0101000
-496 6 +506 6 *
Wi

0101100
-486 0 -494 0 +485 0 +504 0 *
Fa
0  1e-07 3 0

0111000
+484 0 *
Ed
 1e-07 1 1 0
1  11 0 0 304.8
0

0101000
-491 6 +501 6 *
Ed
 1e-07 1 1 0
1  12 0 0 304.8
0

0101000
-493 6 +503 6 *
Wi

0101100
-482 0 -490 0 +481 0 +500 0 *
Fa
0  1e-07 4 0

0111000
+480 0 *
Wi

0101100
-499 0 -482 0 +489 0 +486 0 *
Fa
0  1e-07 5 0

0111000
+478 0 *
Wi

0101100
-502 0 -481 0 +492 0 +485 0 *
Fa
0  1e-07 6 0

0111000
+476 0 *
Sh

0101100
+497 0 -487 0 +483 0 -479 0 +477 0 -475 0 *
So

0100000
+474 0 *
Ve
1e-07
2133.6 -11.1125 38.1
0 0

0101101
*
Ve
1e-07
2133.6 -11.1125 0
0 0

0101101
*
Ed
 1e-07 1 1 0
1  13 0 0 38.1
0

0101000
-472 8 +471 8 *
Ve
1e-07
2133.6 -150.8125 38.1
0 0

0101101
*
Ed
 1e-07 1 1 0
1  14 0 0 139.7
0

0101000
-469 8 +472 8 *
Ve
1e-07
2133.6 -150.8125 0
0 0

0101101
*
Ed
 1e-07 1 1 0
1  15 0 0 38.1
0

0101000
-469 8 +467 8 *
Ed
 1e-07 1 1 0
1  16 0 0 139.7
0

0101000
-467 8 +471 8 *
Wi

0101100
-470 0 -468 0 +466 0 +465 0 *
Fa
0  1e-07 7 0

0111000
+464 0 *
Ve
1e-07
2438.4 -11.1125 38.1
0 0

0101101
*
Ve
1e-07
2438.4 -11.1125 0
0 0

0101101
*
Ed
 1e-07 1 1 0
1  17 0 0 38.1
0

0101000
-462 8 +461 8 *
Ve
1e-07
2438.4 -150.8125 38.1
0 0

0101101
*
Ed
 1e-07 1 1 0
1  18 0 0 139.7
0

0101000
-459 8 +462 8 *
Ve
1e-07
2438.4 -150.8125 0
0 0

0101101
*
Ed
 1e-07 1 1 0
1  19 0 0 38.1
0

0101000
-459 8 +457 8 *
Ed
 1e-07 1 1 0
1  20 0 0 139.7
0

0101000
-457 8 +461 8 *
Wi

0101100
-460 0 -458 0 +456 0 +455 0 *
Fa
0  1e-07 8 0

0111000
+454 0 *
Ed
 1e-07 1 1 0
1  21 0 0 304.8
0

0101000
-461 8 +471 8 *
Ed
 1e-07 1 1 0
1  22 0 0 304.8
0

0101000
-462 8 +472 8 *
Wi

0101100
-452 0 -460 0 +451 0 +470 0 *
Fa
0  1e-07 9 0

0111000
+450 0 *
Ed
 1e-07 1 1 0
1  23 0 0 304.8
0

0101000
-457 8 +467 8 *
Ed
 1e-07 1 1 0
1  24 0 0 304.8
0

0101000
-459 8 +469 8 *
Wi

0101100
-448 0 -456 0 +447 0 +466 0 *
Fa
0  1e-07 10 0

0111000
+446 0 *
Wi

0101100
-465 0 -448 0 +455 0 +452 0 *
Fa
0  1e-07 11 0

0111000
+444 0 *
Wi

0101100
-468 0 -447 0 +458 0 +451 0 *
Fa
0  1e-07 12 0

0111000
+442 0 *
Sh

0101100
+463 0 -453 0 +449 0 -445 0 +443 0 -441 0 *
So

0100000
+440 0 *
Ve
1e-07
0 -11.1125 2438.4
0 0

0101101
*
Ve
1e-07
0 -11.1125 2400.3
0 0

0101101
*
Ed
 1e-07 1 1 0
1  25 0 0 38.1
0

0101000
-438 10 +437 10 *
Ve
1e-07
0 -150.8125 2438.4
0 0

0101101
*
Ed
 1e-07 1 1 0
1  26 0 0 139.7
0

0101000
-435 10 +438 10 *
Ve
1e-07
0 -150.8125 2400.3
0 0

0101101
*
Ed
 1e-07 1 1 0
1  27 0 0 38.1
0

0101000
-435 10 +433 10 *
Ed
 1e-07 1 1 0
1  28 0 0 139.7
0

0101000
-433 10 +437 10 *
Wi

0101100
-436 0 -434 0 +432 0 +431 0 *
Fa
0  1e-07 13 0

0111000
+430 0 *
Ve
1e-07
2438.4 -11.1125 2438.4
0 0

0101101
*
Ve
1e-07
2438.4 -11.1125 2400.3
0 0

0101101
*
Ed
 1e-07 1 1 0
1  29 0 0 38.1
0

0101000
-428 10 +427 10 *
Ve
1e-07
2438.4 -150.8125 2438.4
0 0

0101101
*
Ed
 1e-07 1 1 0
1  30 0 0 139.7
0

0101000
-425 10 +428 10 *
Ve
1e-07
2438.4 -150.8125 2400.3
0 0

0101101
*
Ed
 1e-07 1 1 0
1  31 0 0 38.1
0

0101000
-425 10 +423 10 *
Ed
 1e-07 1 1 0
1  32 0 0 139.7
0

0101000
-423 10 +427 10 *
Wi

0101100
-426 0 -424 0 +422 0 +421 0 *
Fa
0  1e-07 14 0

0111000
+420 0 *
Ed
 1e-07 1 1 0
1  33 0 0 2438.4
0

0101000
-427 10 +437 10 *
Ed
 1e-07 1 1 0
1  34 0 0 2438.4
0

0101000
-428 10 +438 10 *
Wi

0101100
-418 0 -426 0 +417 0 +436 0 *
Fa
0  1e-07 15 0

0111000
+416 0 *
Ed
 1e-07 1 1 0
1  35 0 0 2438.4
0

0101000
-423 10 +433 10 *
Ed
 1e-07 1 1 0
1  36 0 0 2438.4
0

0101000
-425 10 +435 10 *
Wi

0101100
-414 0 -422 0 +413 0 +432 0 *
Fa
0  1e-07 16 0

0111000
+412 0 *
Wi

0101100
-431 0 -414 0 +421 0 +418 0 *
Fa
0  1e-07 17 0

0111000
+410 0 *
Wi

0101100
-434 0 -413 0 +424 0 +417 0 *
Fa
0  1e-07 18 0

0111000
+408 0 *
Sh

0101100
+429 0 -419 0 +415 0 -411 0 +409 0 -407 0 *
So

0100000
+406 0 *
Ve
1e-07
0 -11.1125 2400.3
0 0

0101101
*
Ve
1e-07
0 -11.1125 38.1
0 0

0101101
*
Ed
 1e-07 1 1 0
1  37 0 0 2362.2
0

0101000
-404 12 +403 12 *
Ve
1e-07
0 -150.8125 2400.3
0 0

0101101
*
Ed
 1e-07 1 1 0
1  38 0 0 139.7
0

0101000
-401 12 +404 12 *
Ve
1e-07
0 -150.8125 38.1
0 0

0101101
*
Ed
 1e-07 1 1 0
1  39 0 0 2362.2
0

0101000
-401 12 +399 12 *
Ed
 1e-07 1 1 0
1  40 0 0 139.7
0

0101000
-399 12 +403 12 *
Wi

0101100
-402 0 -400 0 +398 0 +397 0 *
Fa
0  1e-07 19 0

0111000
+396 0 *
Ve
1e-07
38.1 -11.1125 2400.3
0 0

0101101
*
Ve
1e-07
38.1 -11.1125 38.1
0 0

0101101
*
Ed
 1e-07 1 1 0
1  41 0 0 2362.2
0

0101000
-394 12 +393 12 *
Ve
1e-07
38.1 -150.8125 2400.3
0 0

0101101
*
Ed
 1e-07 1 1 0
1  42 0 0 139.7
0

0101000
-391 12 +394 12 *
Ve
1e-07
38.1 -150.8125 38.1
0 0

0101101
*
Ed
 1e-07 1 1 0
1  43 0 0 2362.2
0

0101000
-391 12 +389 12 *
Ed
 1e-07 1 1 0
1  44 0 0 139.7
0

0101000
-389 12 +393 12 *
Wi

0101100
-392 0 -390 0 +388 0 +387 0 *
Fa
0  1e-07 20 0

0111000
+386 0 *
Ed
 1e-07 1 1 0
1  45 0 0 38.1
0

0101000
-393 12 +403 12 *
Ed
 1e-07 1 1 0
1  46 0 0 38.1
0

0101000
-394 12 +404 12 *
Wi

0101100
-384 0 -392 0 +383 0 +402 0 *
Fa
0  1e-07 21 0

0111000
+382 0 *
Ed
 1e-07 1 1 0
1  47 0 0 38.1
0

0101000
-389 12 +399 12 *
Ed
 1e-07 1 1 0
1  48 0 0 38.1
0

0101000
-391 12 +401 12 *
Wi

0101100
-380 0 -388 0 +379 0 +398 0 *
Fa
0  1e-07 22 0

0111000
+378 0 *
Wi

0101100
-397 0 -380 0 +387 0 +384 0 *
Fa
0  1e-07 23 0

0111000
+376 0 *
Wi

0101100
-400 0 -379 0 +390 0 +383 0 *
Fa
0  1e-07 24 0

0111000
+374 0 *
Sh

0101100
+395 0 -385 0 +381 0 -377 0 +375 0 -373 0 *
So

0100000
+372 0 *
Ve
1e-07
2400.3 -11.1125 2400.3
0 0

0101101
*
Ve
1e-07
2400.3 -11.1125 38.1
0 0

0101101
*
Ed
 1e-07 1 1 0
1  49 0 0 2362.2
0

0101000
-370 14 +369 14 *
Ve
1e-07
2400.3 -150.8125 2400.3
0 0

0101101
*
Ed
 1e-07 1 1 0
1  50 0 0 139.7
0

0101000
-367 14 +370 14 *
Ve
1e-07
2400.3 -150.8125 38.1
0 0

0101101
*
Ed
 1e-07 1 1 0
1  51 0 0 2362.2
0

0101000
-367 14 +365 14 *
Ed
 1e-07 1 1 0
1  52 0 0 139.7
0

0101000
-365 14 +369 14 *
Wi

0101100
-368 0 -366 0 +364 0 +363 0 *
Fa
0  1e-07 25 0

0111000
+362 0 *
Ve
1e-07
2438.4 -11.1125 2400.3
0 0

0101101
*
Ve
1e-07
2438.4 -11.1125 38.1
0 0

0101101
*
Ed
 1e-07 1 1 0
1  53 0 0 2362.2
0

0101000
-360 14 +359 14 *
Ve
1e-07
2438.4 -150.8125 2400.3
0 0

0101101
*
Ed
 1e-07 1 1 0
1  54 0 0 139.7
0

0101000
-357 14 +360 14 *
Ve
1e-07
2438.4 -150.8125 38.1
0 0

0101101
*
Ed
 1e-07 1 1 0
1  55 0 0 2362.2
0

0101000
-357 14 +355 14 *
Ed
 1e-07 1 1 0
1  56 0 0 139.7
0

0101000
-355 14 +359 14 *
Wi

0101100
-358 0 -356 0 +354 0 +353 0 *
Fa
0  1e-07 26 0

0111000
+352 0 *
Ed
 1e-07 1 1 0
1  57 0 0 38.1
0

0101000
-359 14 +369 14 *
Ed
 1e-07 1 1 0
1  58 0 0 38.1
0

0101000
-360 14 +370 14 *
Wi

0101100
-350 0 -358 0 +349 0 +368 0 *
Fa
0  1e-07 27 0

0111000
+348 0 *
Ed
 1e-07 1 1 0
1  59 0 0 38.1
0

0101000
-355 14 +365 14 *
Ed
 1e-07 1 1 0
1  60 0 0 38.1
0

0101000
-357 14 +367 14 *
Wi

0101100
-346 0 -354 0 +345 0 +364 0 *
Fa
0  1e-07 28 0

0111000
+344 0 *
Wi

0101100
-363 0 -346 0 +353 0 +350 0 *
Fa
0  1e-07 29 0

0111000
+342 0 *
Wi

0101100
-366 0 -345 0 +356 0 +349 0 *
Fa
0  1e-07 30 0

0111000
+340 0 *
Sh

0101100
+361 0 -351 0 +347 0 -343 0 +341 0 -339 0 *
So

0100000
+338 0 *
Ve
1e-07
266.7 -11.1125 2108.2
0 0

0101101
*
Ve
1e-07
266.7 -11.1125 38.1
0 0

0101101
*
Ed
 1e-07 1 1 0
1  61 0 0 2070.1
0

0101000
-336 16 +335 16 *
Ve
1e-07
266.7 -150.8125 2108.2
0 0

0101101
*
Ed
 1e-07 1 1 0
1  62 0 0 139.7
0

0101000
-333 16 +336 16 *
Ve
1e-07
266.7 -150.8125 38.1
0 0

0101101
*
Ed
 1e-07 1 1 0
1  63 0 0 2070.1
0

0101000
-333 16 +331 16 *
Ed
 1e-07 1 1 0
1  64 0 0 139.7
0

0101000
-331 16 +335 16 *
Wi

0101100
-334 0 -332 0 +330 0 +329 0 *
Fa
0  1e-07 31 0

0111000
+328 0 *
Ve
1e-07
304.8 -11.1125 2108.2
0 0

0101101
*
Ve
1e-07
304.8 -11.1125 38.1
0 0

0101101
*
Ed
 1e-07 1 1 0
1  65 0 0 2070.1
0

0101000
-326 16 +325 16 *
Ve
1e-07
304.8 -150.8125 2108.2
0 0

0101101
*
Ed
 1e-07 1 1 0
1  66 0 0 139.7
0

0101000
-323 16 +326 16 *
Ve
1e-07
304.8 -150.8125 38.1
0 0

0101101
*
Ed
 1e-07 1 1 0
1  67 0 0 2070.1
0

0101000
-323 16 +321 16 *
Ed
 1e-07 1 1 0
1  68 0 0 139.7
0

0101000
-321 16 +325 16 *
Wi

0101100
-324 0 -322 0 +320 0 +319 0 *
Fa
0  1e-07 32 0

0111000
+318 0 *
Ed
 1e-07 1 1 0
1  69 0 0 38.1
0

0101000
-325 16 +335 16 *
Ed
 1e-07 1 1 0
1  70 0 0 38.1
0

0101000
-326 16 +336 16 *
Wi

0101100
-316 0 -324 0 +315 0 +334 0 *
Fa
0  1e-07 33 0

0111000
+314 0 *
Ed
 1e-07 1 1 0
1  71 0 0 38.1
0

0101000
-321 16 +331 16 *
Ed
 1e-07 1 1 0
1  72 0 0 38.1
0

0101000
-323 16 +333 16 *
Wi

0101100
-312 0 -320 0 +311 0 +330 0 *
Fa
0  1e-07 34 0

0111000
+310 0 *
Wi

0101100
-329 0 -312 0 +319 0 +316 0 *
Fa
0  1e-07 35 0

0111000
+308 0 *
Wi

0101100
-332 0 -311 0 +322 0 +315 0 *
Fa
0  1e-07 36 0

0111000
+306 0 *
Sh

0101100
+327 0 -317 0 +313 0 -309 0 +307 0 -305 0 *
So

0100000
+304 0 *
Ve
1e-07
2133.6 -11.1125 2108.2
0 0

0101101
*
Ve
1e-07
2133.6 -11.1125 38.1
0 0

0101101
*
Ed
 1e-07 1 1 0
1  73 0 0 2070.1
0

0101000
-302 18 +301 18 *
Ve
1e-07
2133.6 -150.8125 2108.2
0 0

0101101
*
Ed
 1e-07 1 1 0
1  74 0 0 139.7
0

0101000
-299 18 +302 18 *
Ve
1e-07
2133.6 -150.8125 38.1
0 0

0101101
*
Ed
 1e-07 1 1 0
1  75 0 0 2070.1
0

0101000
-299 18 +297 18 *
Ed
 1e-07 1 1 0
1  76 0 0 139.7
0

0101000
-297 18 +301 18 *
Wi

0101100
-300 0 -298 0 +296 0 +295 0 *
Fa
0  1e-07 37 0

0111000
+294 0 *
Ve
1e-07
2171.7 -11.1125 2108.2
0 0

0101101
*
Ve
1e-07
2171.7 -11.1125 38.1
0 0

0101101
*
Ed
 1e-07 1 1 0
1  77 0 0 2070.1
0

0101000
-292 18 +291 18 *
Ve
1e-07
2171.7 -150.8125 2108.2
0 0

0101101
*
Ed
 1e-07 1 1 0
1  78 0 0 139.7
0

0101000
-289 18 +292 18 *
Ve
1e-07
2171.7 -150.8125 38.1
0 0

0101101
*
Ed
 1e-07 1 1 0
1  79 0 0 2070.1
0

0101000
-289 18 +287 18 *
Ed
 1e-07 1 1 0
1  80 0 0 139.7
0

0101000
-287 18 +291 18 *
Wi

0101100
-290 0 -288 0 +286 0 +285 0 *
Fa
0  1e-07 38 0

0111000
+284 0 *
Ed
 1e-07 1 1 0
1  81 0 0 38.1
0

0101000
-291 18 +301 18 *
Ed
 1e-07 1 1 0
1  82 0 0 38.1
0

0101000
-292 18 +302 18 *
Wi

0101100
-282 0 -290 0 +281 0 +300 0 *
Fa
0  1e-07 39 0

0111000
+280 0 *
Ed
 1e-07 1 1 0
1  83 0 0 38.1
0

0101000
-287 18 +297 18 *
Ed
 1e-07 1 1 0
1  84 0 0 38.1
0

0101000
-289 18 +299 18 *
Wi

0101100
-278 0 -286 0 +277 0 +296 0 *
Fa
0  1e-07 40 0

0111000
+276 0 *
Wi

0101100
-295 0 -278 0 +285 0 +282 0 *
Fa
0  1e-07 41 0

0111000
+274 0 *
Wi

0101100
-298 0 -277 0 +288 0 +281 0 *
Fa
0  1e-07 42 0

0111000
+272 0 *
Sh

0101100
+293 0 -283 0 +279 0 -275 0 +273 0 -271 0 *
So

0100000
+270 0 *
Ve
1e-07
266.7 -11.1125 2393.95
0 0

0101101
*
Ve
1e-07
266.7 -11.1125 2108.2
0 0

0101101
*
Ed
 1e-07 1 1 0
1  85 0 0 285.75
0

0101000
-268 20 +267 20 *
Ve
1e-07
266.7 -150.8125 2393.95
0 0

0101101
*
Ed
 1e-07 1 1 0
1  86 0 0 139.7
0

0101000
-265 20 +268 20 *
Ve
1e-07
266.7 -150.8125 2108.2
0 0

0101101
*
Ed
 1e-07 1 1 0
1  87 0 0 285.75
0

0101000
-265 20 +263 20 *
Ed
 1e-07 1 1 0
1  88 0 0 139.7
0

0101000
-263 20 +267 20 *
Wi

0101100
-266 0 -264 0 +262 0 +261 0 *
Fa
0  1e-07 43 0

0111000
+260 0 *
Ve
1e-07
2171.7 -11.1125 2393.95
0 0

0101101
*
Ve
1e-07
2171.7 -11.1125 2108.2
0 0

0101101
*
Ed
 1e-07 1 1 0
1  89 0 0 285.75
0

0101000
-258 20 +257 20 *
Ve
1e-07
2171.7 -150.8125 2393.95
0 0

0101101
*
Ed
 1e-07 1 1 0
1  90 0 0 139.7
0

0101000
-255 20 +258 20 *
Ve
1e-07
2171.7 -150.8125 2108.2
0 0

0101101
*
Ed
 1e-07 1 1 0
1  91 0 0 285.75
0

0101000
-255 20 +253 20 *
Ed
 1e-07 1 1 0
1  92 0 0 139.7
0

0101000
-253 20 +257 20 *
Wi

0101100
-256 0 -254 0 +252 0 +251 0 *
Fa
0  1e-07 44 0

0111000
+250 0 *
Ed
 1e-07 1 1 0
1  93 0 0 1905
0

0101000
-257 20 +267 20 *
Ed
 1e-07 1 1 0
1  94 0 0 1905
0

0101000
-258 20 +268 20 *
Wi

0101100
-248 0 -256 0 +247 0 +266 0 *
Fa
0  1e-07 45 0

0111000
+246 0 *
Ed
 1e-07 1 1 0
1  95 0 0 1905
0

0101000
-253 20 +263 20 *
Ed
 1e-07 1 1 0
1  96 0 0 1905
0

0101000
-255 20 +265 20 *
Wi

0101100
-244 0 -252 0 +243 0 +262 0 *
Fa
0  1e-07 46 0

0111000
+242 0 *
Wi

0101100
-261 0 -244 0 +251 0 +248 0 *
Fa
0  1e-07 47 0

0111000
+240 0 *
Wi

0101100
-264 0 -243 0 +254 0 +247 0 *
Fa
0  1e-07 48 0

0111000
+238 0 *
Sh

0101100
+259 0 -249 0 +245 0 -241 0 +239 0 -237 0 *
So

0100000
+236 0 *
Ve
1e-07
406.4 -11.1125 2400.3
0 0

0101101
*
Ve
1e-07
406.4 -11.1125 2393.95
0 0

0101101
*
Ed
 1e-07 1 1 0
1  97 0 0 6.34999999999991
0

0101000
-234 22 +233 22 *
Ve
1e-07
406.4 -150.8125 2400.3
0 0

0101101
*
Ed
 1e-07 1 1 0
1  98 0 0 139.7
0

0101000
-231 22 +234 22 *
Ve
1e-07
406.4 -150.8125 2393.95
0 0

0101101
*
Ed
 1e-07 1 1 0
1  99 0 0 6.34999999999991
0

0101000
-231 22 +229 22 *
Ed
 1e-07 1 1 0
1  100 0 0 139.7
0

0101000
-229 22 +233 22 *
Wi

0101100
-232 0 -230 0 +228 0 +227 0 *
Fa
0  1e-07 49 0

0111000
+226 0 *
Ve
1e-07
444.5 -11.1125 2400.3
0 0

0101101
*
Ve
1e-07
444.5 -11.1125 2393.95
0 0

0101101
*
Ed
 1e-07 1 1 0
1  101 0 0 6.34999999999991
0

0101000
-224 22 +223 22 *
Ve
1e-07
444.5 -150.8125 2400.3
0 0

0101101
*
Ed
 1e-07 1 1 0
1  102 0 0 139.7
0

0101000
-221 22 +224 22 *
Ve
1e-07
444.5 -150.8125 2393.95
0 0

0101101
*
Ed
 1e-07 1 1 0
1  103 0 0 6.34999999999991
0

0101000
-221 22 +219 22 *
Ed
 1e-07 1 1 0
1  104 0 0 139.7
0

0101000
-219 22 +223 22 *
Wi

0101100
-222 0 -220 0 +218 0 +217 0 *
Fa
0  1e-07 50 0

0111000
+216 0 *
Ed
 1e-07 1 1 0
1  105 0 0 38.1
0

0101000
-223 22 +233 22 *
Ed
 1e-07 1 1 0
1  106 0 0 38.1
0

0101000
-224 22 +234 22 *
Wi

0101100
-214 0 -222 0 +213 0 +232 0 *
Fa
0  1e-07 51 0

0111000
+212 0 *
Ed
 1e-07 1 1 0
1  107 0 0 38.1
0

0101000
-219 22 +229 22 *
Ed
 1e-07 1 1 0
1  108 0 0 38.1
0

0101000
-221 22 +231 22 *
Wi

0101100
-210 0 -218 0 +209 0 +228 0 *
Fa
0  1e-07 52 0

0111000
+208 0 *
Wi

0101100
-227 0 -210 0 +217 0 +214 0 *
Fa
0  1e-07 53 0

0111000
+206 0 *
Wi

0101100
-230 0 -209 0 +220 0 +213 0 *
Fa
0  1e-07 54 0

0111000
+204 0 *
Sh

0101100
+225 0 -215 0 +211 0 -207 0 +205 0 -203 0 *
So

0100000
+202 0 *
Ve
1e-07
812.8 -11.1125 2400.3
0 0

0101101
*
Ve
1e-07
812.8 -11.1125 2393.95
0 0

0101101
*
Ed
 1e-07 1 1 0
1  109 0 0 6.34999999999991
0

0101000
-200 24 +199 24 *
Ve
1e-07
812.8 -150.8125 2400.3
0 0

0101101
*
Ed
 1e-07 1 1 0
1  110 0 0 139.7
0

0101000
-197 24 +200 24 *
Ve
1e-07
812.8 -150.8125 2393.95
0 0

0101101
*
Ed
 1e-07 1 1 0
1  111 0 0 6.34999999999991
0

0101000
-197 24 +195 24 *
Ed
 1e-07 1 1 0
1  112 0 0 139.7
0

0101000
-195 24 +199 24 *
Wi

0101100
-198 0 -196 0 +194 0 +193 0 *
Fa
0  1e-07 55 0

0111000
+192 0 *
Ve
1e-07
850.9 -11.1125 2400.3
0 0

0101101
*
Ve
1e-07
850.9 -11.1125 2393.95
0 0

0101101
*
Ed
 1e-07 1 1 0
1  113 0 0 6.34999999999991
0

0101000
-190 24 +189 24 *
Ve
1e-07
850.9 -150.8125 2400.3
0 0

0101101
*
Ed
 1e-07 1 1 0
1  114 0 0 139.7
0

0101000
-187 24 +190 24 *
Ve
1e-07
850.9 -150.8125 2393.95
0 0

0101101
*
Ed
 1e-07 1 1 0
1  115 0 0 6.34999999999991
0

0101000
-187 24 +185 24 *
Ed
 1e-07 1 1 0
1  116 0 0 139.7
0

0101000
-185 24 +189 24 *
Wi

0101100
-188 0 -186 0 +184 0 +183 0 *
Fa
0  1e-07 56 0

0111000
+182 0 *
Ed
 1e-07 1 1 0
1  117 0 0 38.1
0

0101000
-189 24 +199 24 *
Ed
 1e-07 1 1 0
1  118 0 0 38.1
0

0101000
-190 24 +200 24 *
Wi

0101100
-180 0 -188 0 +179 0 +198 0 *
Fa
0  1e-07 57 0

0111000
+178 0 *
Ed
 1e-07 1 1 0
1  119 0 0 38.1
0

0101000
-185 24 +195 24 *
Ed
 1e-07 1 1 0
1  120 0 0 38.1
0

0101000
-187 24 +197 24 *
Wi

0101100
-176 0 -184 0 +175 0 +194 0 *
Fa
0  1e-07 58 0

0111000
+174 0 *
Wi

0101100
-193 0 -176 0 +183 0 +180 0 *
Fa
0  1e-07 59 0

0111000
+172 0 *
Wi

0101100
-196 0 -175 0 +186 0 +179 0 *
Fa
0  1e-07 60 0

0111000
+170 0 *
Sh

0101100
+191 0 -181 0 +177 0 -173 0 +171 0 -169 0 *
So

0100000
+168 0 *
Ve
1e-07
1219.2 -11.1125 2400.3
0 0

0101101
*
Ve
1e-07
1219.2 -11.1125 2393.95
0 0

0101101
*
Ed
 1e-07 1 1 0
1  121 0 0 6.34999999999991
0

0101000
-166 26 +165 26 *
Ve
1e-07
1219.2 -150.8125 2400.3
0 0

0101101
*
Ed
 1e-07 1 1 0
1  122 0 0 139.7
0

0101000
-163 26 +166 26 *
Ve
1e-07
1219.2 -150.8125 2393.95
0 0

0101101
*
Ed
 1e-07 1 1 0
1  123 0 0 6.34999999999991
0

0101000
-163 26 +161 26 *
Ed
 1e-07 1 1 0
1  124 0 0 139.7
0

0101000
-161 26 +165 26 *
Wi

0101100
-164 0 -162 0 +160 0 +159 0 *
Fa
0  1e-07 61 0

0111000
+158 0 *
Ve
1e-07
1257.3 -11.1125 2400.3
0 0

0101101
*
Ve
1e-07
1257.3 -11.1125 2393.95
0 0

0101101
*
Ed
 1e-07 1 1 0
1  125 0 0 6.34999999999991
0

0101000
-156 26 +155 26 *
Ve
1e-07
1257.3 -150.8125 2400.3
0 0

0101101
*
Ed
 1e-07 1 1 0
1  126 0 0 139.7
0

0101000
-153 26 +156 26 *
Ve
1e-07
1257.3 -150.8125 2393.95
0 0

0101101
*
Ed
 1e-07 1 1 0
1  127 0 0 6.34999999999991
0

0101000
-153 26 +151 26 *
Ed
 1e-07 1 1 0
1  128 0 0 139.7
0

0101000
-151 26 +155 26 *
Wi

0101100
-154 0 -152 0 +150 0 +149 0 *
Fa
0  1e-07 62 0

0111000
+148 0 *
Ed
 1e-07 1 1 0
1  129 0 0 38.1
0

0101000
-155 26 +165 26 *
Ed
 1e-07 1 1 0
1  130 0 0 38.1
0

0101000
-156 26 +166 26 *
Wi

0101100
-146 0 -154 0 +145 0 +164 0 *
Fa
0  1e-07 63 0

0111000
+144 0 *
Ed
 1e-07 1 1 0
1  131 0 0 38.1
0

0101000
-151 26 +161 26 *
Ed
 1e-07 1 1 0
1  132 0 0 38.1
0

0101000
-153 26 +163 26 *
Wi

0101100
-142 0 -150 0 +141 0 +160 0 *
Fa
0  1e-07 64 0

0111000
+140 0 *
Wi

0101100
-159 0 -142 0 +149 0 +146 0 *
Fa
0  1e-07 65 0

0111000
+138 0 *
Wi

0101100
-162 0 -141 0 +152 0 +145 0 *
Fa
0  1e-07 66 0

0111000
+136 0 *
Sh

0101100
+157 0 -147 0 +143 0 -139 0 +137 0 -135 0 *
So

0100000
+134 0 *
Ve
1e-07
1625.6 -11.1125 2400.3
0 0

0101101
*
Ve
1e-07
1625.6 -11.1125 2393.95
0 0

0101101
*
Ed
 1e-07 1 1 0
1  133 0 0 6.34999999999991
0

0101000
-132 28 +131 28 *
Ve
1e-07
1625.6 -150.8125 2400.3
0 0

0101101
*
Ed
 1e-07 1 1 0
1  134 0 0 139.7
0

0101000
-129 28 +132 28 *
Ve
1e-07
1625.6 -150.8125 2393.95
0 0

0101101
*
Ed
 1e-07 1 1 0
1  135 0 0 6.34999999999991
0

0101000
-129 28 +127 28 *
Ed
 1e-07 1 1 0
1  136 0 0 139.7
0

0101000
-127 28 +131 28 *
Wi

0101100
-130 0 -128 0 +126 0 +125 0 *
Fa
0  1e-07 67 0

0111000
+124 0 *
Ve
1e-07
1663.7 -11.1125 2400.3
0 0

0101101
*
Ve
1e-07
1663.7 -11.1125 2393.95
0 0

0101101
*
Ed
 1e-07 1 1 0
1  137 0 0 6.34999999999991
0

0101000
-122 28 +121 28 *
Ve
1e-07
1663.7 -150.8125 2400.3
0 0

0101101
*
Ed
 1e-07 1 1 0
1  138 0 0 139.7
0

0101000
-119 28 +122 28 *
Ve
1e-07
1663.7 -150.8125 2393.95
0 0

0101101
*
Ed
 1e-07 1 1 0
1  139 0 0 6.34999999999991
0

0101000
-119 28 +117 28 *
Ed
 1e-07 1 1 0
1  140 0 0 139.7
0

0101000
-117 28 +121 28 *
Wi

0101100
-120 0 -118 0 +116 0 +115 0 *
Fa
0  1e-07 68 0

0111000
+114 0 *
Ed
 1e-07 1 1 0
1  141 0 0 38.1
0

0101000
-121 28 +131 28 *
Ed
 1e-07 1 1 0
1  142 0 0 38.1
0

0101000
-122 28 +132 28 *
Wi

0101100
-112 0 -120 0 +111 0 +130 0 *
Fa
0  1e-07 69 0

0111000
+110 0 *
Ed
 1e-07 1 1 0
1  143 0 0 38.1
0

0101000
-117 28 +127 28 *
Ed
 1e-07 1 1 0
1  144 0 0 38.1
0

0101000
-119 28 +129 28 *
Wi

0101100
-108 0 -116 0 +107 0 +126 0 *
Fa
0  1e-07 70 0

0111000
+106 0 *
Wi

0101100
-125 0 -108 0 +115 0 +112 0 *
Fa
0  1e-07 71 0

0111000
+104 0 *
Wi

0101100
-128 0 -107 0 +118 0 +111 0 *
Fa
0  1e-07 72 0

0111000
+102 0 *
Sh

0101100
+123 0 -113 0 +109 0 -105 0 +103 0 -101 0 *
So

0100000
+100 0 *
Ve
1e-07
2032 -11.1125 2400.3
0 0

0101101
*
Ve
1e-07
2032 -11.1125 2393.95
0 0

0101101
*
Ed
 1e-07 1 1 0
1  145 0 0 6.34999999999991
0

0101000
-98 30 +97 30 *
Ve
1e-07
2032 -150.8125 2400.3
0 0

0101101
*
Ed
 1e-07 1 1 0
1  146 0 0 139.7
0

0101000
-95 30 +98 30 *
Ve
1e-07
2032 -150.8125 2393.95
0 0

0101101
*
Ed
 1e-07 1 1 0
1  147 0 0 6.34999999999991
0

0101000
-95 30 +93 30 *
Ed
 1e-07 1 1 0
1  148 0 0 139.7
0

0101000
-93 30 +97 30 *
Wi

0101100
-96 0 -94 0 +92 0 +91 0 *
Fa
0  1e-07 73 0

0111000
+90 0 *
Ve
1e-07
2070.1 -11.1125 2400.3
0 0

0101101
*
Ve
1e-07
2070.1 -11.1125 2393.95
0 0

0101101
*
Ed
 1e-07 1 1 0
1  149 0 0 6.34999999999991
0

0101000
-88 30 +87 30 *
Ve
1e-07
2070.1 -150.8125 2400.3
0 0

0101101
*
Ed
 1e-07 1 1 0
1  150 0 0 139.7
0

0101000
-85 30 +88 30 *
Ve
1e-07
2070.1 -150.8125 2393.95
0 0

0101101
*
Ed
 1e-07 1 1 0
1  151 0 0 6.34999999999991
0

0101000
-85 30 +83 30 *
Ed
 1e-07 1 1 0
1  152 0 0 139.7
0

0101000
-83 30 +87 30 *
Wi

0101100
-86 0 -84 0 +82 0 +81 0 *
Fa
0  1e-07 74 0

0111000
+80 0 *
Ed
 1e-07 1 1 0
1  153 0 0 38.1
0

0101000
-87 30 +97 30 *
Ed
 1e-07 1 1 0
1  154 0 0 38.1
0

0101000
-88 30 +98 30 *
Wi

0101100
-78 0 -86 0 +77 0 +96 0 *
Fa
0  1e-07 75 0

0111000
+76 0 *
Ed
 1e-07 1 1 0
1  155 0 0 38.1
0

0101000
-83 30 +93 30 *
Ed
 1e-07 1 1 0
1  156 0 0 38.1
0

0101000
-85 30 +95 30 *
Wi

0101100
-74 0 -82 0 +73 0 +92 0 *
Fa
0  1e-07 76 0

0111000
+72 0 *
Wi

0101100
-91 0 -74 0 +81 0 +78 0 *
Fa
0  1e-07 77 0

0111000
+70 0 *
Wi

0101100
-94 0 -73 0 +84 0 +77 0 *
Fa
0  1e-07 78 0

0111000
+68 0 *
Sh

0101100
+89 0 -79 0 +75 0 -71 0 +69 0 -67 0 *
So

0100000
+66 0 *
Ve
1e-07
0 0 2438.4
0 0

0101101
*
Ve
1e-07
0 0 0
0 0

0101101
*
Ed
 1e-07 1 1 0
1  157 0 0 2438.4
0

0101000
-64 32 +63 32 *
Ve
1e-07
0 -11.1125 2438.4
0 0

0101101
*
Ed
 1e-07 1 1 0
1  158 0 0 11.1125
0

0101000
-61 32 +64 32 *
Ve
1e-07
0 -11.1125 0
0 0

0101101
*
Ed
 1e-07 1 1 0
1  159 0 0 2438.4
0

0101000
-61 32 +59 32 *
Ed
 1e-07 1 1 0
1  160 0 0 11.1125
0

0101000
-59 32 +63 32 *
Wi

0101100
-62 0 -60 0 +58 0 +57 0 *
Fa
0  1e-07 79 0

0111000
+56 0 *
Ve
1.5e-07
304.8 0 0
0 0

0101101
*
Ed
 1e-07 1 1 0
1  161 0 0 304.8
0

0101000
+63 32 -54 32 *
Ve
1.5e-07
304.8 0 2108.2
0 0

0101101
*
Ed
 1.5e-07 1 1 0
1  162 0 -2108.2 0
0

0101000
+52 33 -54 33 *
Ve
1.5e-07
2133.6 0 2108.2
0 0

0101101
*
Ed
 1.5e-07 1 1 0
1  163 0 152.4 1981.2
0

0101000
+52 33 -50 33 *
Ve
1.5e-07
2133.6 0 0
0 0

0101101
*
Ed
 1.5e-07 1 1 0
1  164 0 -2108.2 0
0

0101000
+50 33 -48 33 *
Ve
1e-07
2438.4 0 0
0 0

0101101
*
Ed
 1e-07 1 1 0
1  165 0 2133.6 2438.4
0

0101000
+48 32 -46 32 *
Ve
1e-07
2438.4 0 2438.4
0 0

0101101
*
Ed
 1e-07 1 1 0
1  166 0 0 2438.4
0

0101000
-44 32 +46 32 *
Ed
 1e-07 1 1 0
1  167 0 0 2438.4
0

0101000
-44 32 +64 32 *
Wi

0101100
-53 31 +51 0 -49 0 -47 0 -45 31 -43 31 +42 31 +62 31 *
Fa
0  1e-07 80 31

0101000
+41 0 *
Ve
1e-07
2438.4 -11.1125 2438.4
0 0

0101101
*
Ed
 1e-07 1 1 0
1  168 0 0 2438.4
0

0101000
-39 32 +61 32 *
Ed
 1e-07 1 1 0
1  169 0 0 11.1125
0

0101000
-39 32 +44 32 *
Wi

0101100
-60 0 -38 0 +37 0 +42 0 *
Fa
0  1e-07 81 0

0111000
+36 0 *
Ve
1.5e-07
304.8 -11.1125 0
0 0

0101101
*
Ed
 1e-07 1 1 0
1  170 0 0 304.8
0

0101000
+59 32 -34 32 *
Ve
1.5e-07
304.8 -11.1125 2108.2
0 0

0101101
*
Ed
 1.5e-07 1 1 0
1  171 0 -2108.2 0
0

0101000
+32 33 -34 33 *
Ve
1.5e-07
2133.6 -11.1125 2108.2
0 0

0101101
*
Ed
 1.5e-07 1 1 0
1  172 0 152.4 1981.2
0

0101000
+32 33 -30 33 *
Ve
1.5e-07
2133.6 -11.1125 0
0 0

0101101
*
Ed
 1.5e-07 1 1 0
1  173 0 -2108.2 0
0

0101000
+30 33 -28 33 *
Ve
1e-07
2438.4 -11.1125 0
0 0

0101101
*
Ed
 1e-07 1 1 0
1  174 0 2133.6 2438.4
0

0101000
+28 32 -26 32 *
Ed
 1e-07 1 1 0
1  175 0 0 2438.4
0

0101000
-39 32 +26 32 *
Wi

0101100
-33 31 +31 0 -29 0 -27 0 -25 31 -24 31 +38 31 +58 31 *
Fa
0  1e-07 82 31

0101000
+23 0 *
Ed
 1e-07 1 1 0
1  176 0 1 12.1125
0

0101000
+54 35 -34 35 *
Wi

0101100
-33 31 +21 34 +53 31 -57 31 *
Fa
0  1e-07 83 31

0101000
+20 0 *
Ed
 1e-07 1 1 0
1  177 0 1 12.1125
0

0101000
+52 35 -32 35 *
Wi

0101100
-18 34 -31 0 +21 34 +51 0 *
Fa
0  1e-07 84 34

0101000
+17 0 *
Ed
 1e-07 1 1 0
1  178 0 1 12.1125
0

0101000
+50 35 -30 35 *
Wi

0101100
-18 34 -29 0 +15 34 +49 0 *
Fa
0  1e-07 85 34

0101000
+14 0 *
Ed
 1e-07 1 1 0
1  179 0 1 12.1125
0

0101000
+48 35 -28 35 *
Wi

0101100
-15 34 -27 0 +12 34 +47 0 *
Fa
0  1e-07 86 34

0101000
+11 0 *
Ed
 1e-07 1 1 0
1  180 0 0 11.1125
0

0101000
-26 32 +46 32 *
Wi

0101100
-25 31 +9 31 +45 31 -12 34 *
Fa
0  1e-07 87 31

0101000
+8 0 *
Wi

0101100
-43 0 -37 0 +24 0 +9 0 *
Fa
0  1e-07 88 0

0111000
+6 0 *
Sh

0101100
+55 31 +40 0 -35 31 -22 0 +19 0 -16 0 +13 0 +10 0 +7 0 -5 31 
*
So

0100000
+4 0 *
Co

0100000
+3 0 *
Co

1100000
+473 5 +439 7 +405 9 +371 11 +337 13 +303 15 +269 17 +235 19 +201 21 +167 23 
+133 25 +99 27 +65 29 +2 0 *

+1 4 