DBRep_DrawableShape

CASCADE Topology V1, (c) Matra-Datavision
Locations 24
1
              1               0               0               0 
              0               1               0               0 
              0               0               1               0 
1
-2.22044604925031e-16               1               0               0 
             -1 -2.22044604925031e-16               0               0 
              0               0               1               0 
1
              1               0               0 2.70716782324598e-13 
              0               1               0          1219.2 
              0               0               1              -0 
2  1 1 2 1 3 1 0
1
              1               0               0               0 
              0               1               0               0 
              0               0               1               0 
2  3 -1 2 -1 1 -1 5 -1 0
1
              1               0               0          1092.2 
              0               1               0               0 
              0               0               1               0 
2  3 -1 2 -1 1 -1 7 -1 0
1
              1               0               0               0 
              0               1               0               0 
              0               0               1          2400.3 
2  3 -1 2 -1 1 -1 9 -1 0
1
              1               0               0               0 
              0               1               0               0 
              0               0               1            38.1 
2  3 -1 2 -1 1 -1 11 -1 0
1
              1               0               0          1181.1 
              0               1               0               0 
              0               0               1            38.1 
2  3 -1 2 -1 1 -1 13 -1 0
1
              1               0               0 88.8999999999999 
              0               1               0               0 
              0               0               1            38.1 
2  3 -1 2 -1 1 -1 15 -1 0
1
              1               0               0          1092.2 
              0               1               0               0 
              0               0               1            38.1 
2  3 -1 2 -1 1 -1 17 -1 0
1
              1               0               0 88.8999999999999 
              0               1               0               0 
              0               0               1          2108.2 
2  3 -1 2 -1 1 -1 19 -1 0
1
              1               0               0           406.4 
              0               1               0               0 
              0               0               1          2197.1 
2  3 -1 2 -1 1 -1 21 -1 0
1
              1               0               0           812.8 
              0               1               0               0 
              0               0               1          2197.1 
2  3 -1 2 -1 1 -1 23 -1 0
Curve2ds 0
Curves 120
1 2438.3999999999996 5.4143356464919626e-13 0 -0 -0 1 
1 2438.3999999999996 5.4143356464919626e-13 38.099999999999994 -4.4408920985006262e-16 1 -0 
1 2438.3999999999996 88.900000000000531 0 -0 -0 1 
1 2438.3999999999996 5.4143356464919626e-13 0 -4.4408920985006262e-16 1 -0 
1 2311.3999999999996 4.8503423499823831e-13 0 -0 -0 1 
1 2311.3999999999996 4.8503423499823831e-13 38.099999999999994 -4.4408920985006262e-16 1 -0 
1 2311.3999999999996 88.900000000000475 0 -0 -0 1 
1 2311.3999999999996 4.8503423499823831e-13 0 -4.4408920985006262e-16 1 -0 
1 2438.3999999999996 5.4143356464919626e-13 0 -1 -4.4408920985006262e-16 -0 
1 2438.3999999999996 5.4143356464919626e-13 38.099999999999994 -1 -4.4408920985006262e-16 -0 
1 2438.3999999999996 88.900000000000531 0 -1 -4.4408920985006262e-16 -0 
1 2438.3999999999996 88.900000000000531 38.099999999999994 -1 -4.4408920985006262e-16 -0 
1 254 5.6399329650957952e-14 0 -0 -0 1 
1 254 5.6399329650957952e-14 38.099999999999994 -4.4408920985006262e-16 1 -0 
1 253.99999999999997 88.900000000000048 0 -0 -0 1 
1 254 5.6399329650957952e-14 0 -4.4408920985006262e-16 1 -0 
1 127 0 0 -0 -0 1 
1 127 0 38.099999999999994 -4.4408920985006262e-16 1 -0 
1 126.99999999999996 88.899999999999991 0 -0 -0 1 
1 127 0 0 -4.4408920985006262e-16 1 -0 
1 254 5.6399329650957952e-14 0 -1 -4.4408920985006262e-16 -0 
1 254 5.6399329650957952e-14 38.099999999999994 -1 -4.4408920985006262e-16 -0 
1 253.99999999999997 88.900000000000048 0 -1 -4.4408920985006262e-16 -0 
1 253.99999999999997 88.900000000000048 38.099999999999994 -1 -4.4408920985006262e-16 -0 
1 2438.3999999999996 5.4143356464919626e-13 0 -0 -0 1 
1 2438.3999999999996 5.4143356464919626e-13 38.099999999999994 -4.4408920985006262e-16 1 -0 
1 2438.3999999999996 88.900000000000531 0 -0 -0 1 
1 2438.3999999999996 5.4143356464919626e-13 0 -4.4408920985006262e-16 1 -0 
1 1219.1999999999998 0 0 -0 -0 1 
1 1219.1999999999998 0 38.099999999999994 -4.4408920985006262e-16 1 -0 
1 1219.1999999999998 88.899999999999991 0 -0 -0 1 
1 1219.1999999999998 0 0 -4.4408920985006262e-16 1 -0 
1 2438.3999999999996 5.4143356464919626e-13 0 -1 -4.4408920985006262e-16 -0 
1 2438.3999999999996 5.4143356464919626e-13 38.099999999999994 -1 -4.4408920985006262e-16 -0 
1 2438.3999999999996 88.900000000000531 0 -1 -4.4408920985006262e-16 -0 
1 2438.3999999999996 88.900000000000531 38.099999999999994 -1 -4.4408920985006262e-16 -0 
1 2438.3999999999996 5.4143356464919626e-13 0 -0 -0 1 
1 2438.3999999999996 5.4143356464919626e-13 2362.1999999999998 -4.4408920985006262e-16 1 -0 
1 2438.3999999999996 88.900000000000531 0 -0 -0 1 
1 2438.3999999999996 5.4143356464919626e-13 0 -4.4408920985006262e-16 1 -0 
1 2400.2999999999997 5.2451376575390892e-13 0 -0 -0 1 
1 2400.2999999999997 5.2451376575390892e-13 2362.1999999999998 -4.4408920985006262e-16 1 -0 
1 2400.2999999999997 88.900000000000517 0 -0 -0 1 
1 2400.2999999999997 5.2451376575390892e-13 0 -4.4408920985006262e-16 1 -0 
1 2438.3999999999996 5.4143356464919626e-13 0 -1 -4.4408920985006262e-16 -0 
1 2438.3999999999996 5.4143356464919626e-13 2362.1999999999998 -1 -4.4408920985006262e-16 -0 
1 2438.3999999999996 88.900000000000531 0 -1 -4.4408920985006262e-16 -0 
1 2438.3999999999996 88.900000000000531 2362.1999999999998 -1 -4.4408920985006262e-16 -0 
1 76.199999999999818 1.6919798895287345e-14 0 -0 -0 1 
1 76.199999999999818 1.6919798895287345e-14 2362.1999999999998 -4.4408920985006262e-16 1 -0 
1 76.199999999999775 88.900000000000006 0 -0 -0 1 
1 76.199999999999818 1.6919798895287345e-14 0 -4.4408920985006262e-16 1 -0 
1 38.099999999999824 -3.7865323450608567e-29 0 -0 -0 1 
1 38.099999999999824 -3.7865323450608567e-29 2362.1999999999998 -4.4408920985006262e-16 1 -0 
1 38.099999999999781 88.899999999999991 0 -0 -0 1 
1 38.099999999999824 -3.7865323450608567e-29 0 -4.4408920985006262e-16 1 -0 
1 76.199999999999818 1.6919798895287345e-14 0 -1 -4.4408920985006262e-16 -0 
1 76.199999999999818 1.6919798895287345e-14 2362.1999999999998 -1 -4.4408920985006262e-16 -0 
1 76.199999999999775 88.900000000000006 0 -1 -4.4408920985006262e-16 -0 
1 76.199999999999775 88.900000000000006 2362.1999999999998 -1 -4.4408920985006262e-16 -0 
1 2260.5999999999999 5.0195403389352575e-13 0 -0 -0 1 
1 2260.5999999999999 5.0195403389352575e-13 2070.0999999999999 -4.4408920985006262e-16 1 -0 
1 2260.5999999999999 88.900000000000489 0 -0 -0 1 
1 2260.5999999999999 5.0195403389352575e-13 0 -4.4408920985006262e-16 1 -0 
1 2222.5 4.8503423499823841e-13 0 -0 -0 1 
1 2222.5 4.8503423499823841e-13 2070.0999999999999 -4.4408920985006262e-16 1 -0 
1 2222.5 88.900000000000475 0 -0 -0 1 
1 2222.5 4.8503423499823841e-13 0 -4.4408920985006262e-16 1 -0 
1 2260.5999999999999 5.0195403389352575e-13 0 -1 -4.4408920985006262e-16 -0 
1 2260.5999999999999 5.0195403389352575e-13 2070.0999999999999 -1 -4.4408920985006262e-16 -0 
1 2260.5999999999999 88.900000000000489 0 -1 -4.4408920985006262e-16 -0 
1 2260.5999999999999 88.900000000000489 2070.0999999999999 -1 -4.4408920985006262e-16 -0 
1 254 5.6399329650957952e-14 0 -0 -0 1 
1 254 5.6399329650957952e-14 2070.0999999999999 -4.4408920985006262e-16 1 -0 
1 253.99999999999997 88.900000000000048 0 -0 -0 1 
1 254 5.6399329650957952e-14 0 -4.4408920985006262e-16 1 -0 
1 215.90000000000001 3.9479530755670569e-14 0 -0 -0 1 
1 215.90000000000001 3.9479530755670569e-14 2070.0999999999999 -4.4408920985006262e-16 1 -0 
1 215.89999999999998 88.900000000000034 0 -0 -0 1 
1 215.90000000000001 3.9479530755670569e-14 0 -4.4408920985006262e-16 1 -0 
1 254 5.6399329650957952e-14 0 -1 -4.4408920985006262e-16 -0 
1 254 5.6399329650957952e-14 2070.0999999999999 -1 -4.4408920985006262e-16 -0 
1 253.99999999999997 88.900000000000048 0 -1 -4.4408920985006262e-16 -0 
1 253.99999999999997 88.900000000000048 2070.0999999999999 -1 -4.4408920985006262e-16 -0 
1 2260.5999999999999 5.0195403389352575e-13 0 -0 -0 1 
1 2260.5999999999999 5.0195403389352575e-13 88.899999999999991 -4.4408920985006262e-16 1 -0 
1 2260.5999999999999 88.900000000000489 0 -0 -0 1 
1 2260.5999999999999 5.0195403389352575e-13 0 -4.4408920985006262e-16 1 -0 
1 1219.2 3.9479530755670607e-14 0 -0 -0 1 
1 1219.2 3.9479530755670607e-14 88.899999999999991 -4.4408920985006262e-16 1 -0 
1 1219.2 88.90000000000002 0 -0 -0 1 
1 1219.2 3.9479530755670607e-14 0 -4.4408920985006262e-16 1 -0 
1 2260.5999999999999 5.0195403389352575e-13 0 -1 -4.4408920985006262e-16 -0 
1 2260.5999999999999 5.0195403389352575e-13 88.899999999999991 -1 -4.4408920985006262e-16 -0 
1 2260.5999999999999 88.900000000000489 0 -1 -4.4408920985006262e-16 -0 
1 2260.5999999999999 88.900000000000489 88.899999999999991 -1 -4.4408920985006262e-16 -0 
1 1625.5999999999997 3.6095570976613082e-13 0 -0 -0 1 
1 1625.5999999999997 3.6095570976613082e-13 203.19999999999982 -4.4408920985006262e-16 1 -0 
1 1625.5999999999997 88.900000000000347 0 -0 -0 1 
1 1625.5999999999997 3.6095570976613082e-13 0 -4.4408920985006262e-16 1 -0 
1 1587.4999999999998 3.4403591087084343e-13 0 -0 -0 1 
1 1587.4999999999998 3.4403591087084343e-13 203.19999999999982 -4.4408920985006262e-16 1 -0 
1 1587.4999999999995 88.900000000000333 0 -0 -0 1 
1 1587.4999999999998 3.4403591087084343e-13 0 -4.4408920985006262e-16 1 -0 
1 1625.5999999999997 3.6095570976613082e-13 0 -1 -4.4408920985006262e-16 -0 
1 1625.5999999999997 3.6095570976613082e-13 203.19999999999982 -1 -4.4408920985006262e-16 -0 
1 1625.5999999999997 88.900000000000347 0 -1 -4.4408920985006262e-16 -0 
1 1625.5999999999997 88.900000000000347 203.19999999999982 -1 -4.4408920985006262e-16 -0 
1 812.79999999999973 1.8047785488306539e-13 0 -0 -0 1 
1 812.79999999999973 1.8047785488306539e-13 203.19999999999982 -4.4408920985006262e-16 1 -0 
1 812.79999999999973 88.900000000000176 0 -0 -0 1 
1 812.79999999999973 1.8047785488306539e-13 0 -4.4408920985006262e-16 1 -0 
1 774.6999999999997 1.6355805598777799e-13 0 -0 -0 1 
1 774.6999999999997 1.6355805598777799e-13 203.19999999999982 -4.4408920985006262e-16 1 -0 
1 774.6999999999997 88.900000000000162 0 -0 -0 1 
1 774.6999999999997 1.6355805598777799e-13 0 -4.4408920985006262e-16 1 -0 
1 812.79999999999973 1.8047785488306539e-13 0 -1 -4.4408920985006262e-16 -0 
1 812.79999999999973 1.8047785488306539e-13 203.19999999999982 -1 -4.4408920985006262e-16 -0 
1 812.79999999999973 88.900000000000176 0 -1 -4.4408920985006262e-16 -0 
1 812.79999999999973 88.900000000000176 203.19999999999982 -1 -4.4408920985006262e-16 -0 
Polygon3D 0
PolygonOnTriangulations 0
Surfaces 60
1 2438.3999999999996 5.4143356464919626e-13 0 -1 -4.4408920985006262e-16 -0 -0 -0 1 4.4408920985006262e-16 -1 0 
1 2311.3999999999996 4.8503423499823831e-13 0 -1 -4.4408920985006262e-16 -0 -0 -0 1 4.4408920985006262e-16 -1 0 
1 2438.3999999999996 5.4143356464919626e-13 0 -4.4408920985006262e-16 1 -0 -0 -0 1 -1 -4.4408920985006262e-16 -0 
1 2438.3999999999996 88.900000000000531 0 -4.4408920985006262e-16 1 -0 -0 -0 1 -1 -4.4408920985006262e-16 -0 
1 2438.3999999999996 5.4143356464919626e-13 0 -0 -0 1 -1 -4.4408920985006262e-16 -0 -4.4408920985006262e-16 1 -0 
1 2438.3999999999996 5.4143356464919626e-13 38.099999999999994 -0 -0 1 -1 -4.4408920985006262e-16 -0 -4.4408920985006262e-16 1 -0 
1 254 5.6399329650957952e-14 0 -1 -4.4408920985006262e-16 -0 -0 -0 1 4.4408920985006262e-16 -1 0 
1 127 0 0 -1 -4.4408920985006262e-16 -0 -0 -0 1 4.4408920985006262e-16 -1 0 
1 254 5.6399329650957952e-14 0 -4.4408920985006262e-16 1 -0 -0 -0 1 -1 -4.4408920985006262e-16 -0 
1 253.99999999999997 88.900000000000048 0 -4.4408920985006262e-16 1 -0 -0 -0 1 -1 -4.4408920985006262e-16 -0 
1 254 5.6399329650957952e-14 0 -0 -0 1 -1 -4.4408920985006262e-16 -0 -4.4408920985006262e-16 1 -0 
1 254 5.6399329650957952e-14 38.099999999999994 -0 -0 1 -1 -4.4408920985006262e-16 -0 -4.4408920985006262e-16 1 -0 
1 2438.3999999999996 5.4143356464919626e-13 0 -1 -4.4408920985006262e-16 -0 -0 -0 1 4.4408920985006262e-16 -1 0 
1 1219.1999999999998 0 0 -1 -4.4408920985006262e-16 -0 -0 -0 1 4.4408920985006262e-16 -1 0 
1 2438.3999999999996 5.4143356464919626e-13 0 -4.4408920985006262e-16 1 -0 -0 -0 1 -1 -4.4408920985006262e-16 -0 
1 2438.3999999999996 88.900000000000531 0 -4.4408920985006262e-16 1 -0 -0 -0 1 -1 -4.4408920985006262e-16 -0 
1 2438.3999999999996 5.4143356464919626e-13 0 -0 -0 1 -1 -4.4408920985006262e-16 -0 -4.4408920985006262e-16 1 -0 
1 2438.3999999999996 5.4143356464919626e-13 38.099999999999994 -0 -0 1 -1 -4.4408920985006262e-16 -0 -4.4408920985006262e-16 1 -0 
1 2438.3999999999996 5.4143356464919626e-13 0 -1 -4.4408920985006262e-16 -0 -0 -0 1 4.4408920985006262e-16 -1 0 
1 2400.2999999999997 5.2451376575390892e-13 0 -1 -4.4408920985006262e-16 -0 -0 -0 1 4.4408920985006262e-16 -1 0 
1 2438.3999999999996 5.4143356464919626e-13 0 -4.4408920985006262e-16 1 -0 -0 -0 1 -1 -4.4408920985006262e-16 -0 
1 2438.3999999999996 88.900000000000531 0 -4.4408920985006262e-16 1 -0 -0 -0 1 -1 -4.4408920985006262e-16 -0 
1 2438.3999999999996 5.4143356464919626e-13 0 -0 -0 1 -1 -4.4408920985006262e-16 -0 -4.4408920985006262e-16 1 -0 
1 2438.3999999999996 5.4143356464919626e-13 2362.1999999999998 -0 -0 1 -1 -4.4408920985006262e-16 -0 -4.4408920985006262e-16 1 -0 
1 76.199999999999818 1.6919798895287345e-14 0 -1 -4.4408920985006262e-16 -0 -0 -0 1 4.4408920985006262e-16 -1 0 
1 38.099999999999824 -3.7865323450608567e-29 0 -1 -4.4408920985006262e-16 -0 -0 -0 1 4.4408920985006262e-16 -1 0 
1 76.199999999999818 1.6919798895287345e-14 0 -4.4408920985006262e-16 1 -0 -0 -0 1 -1 -4.4408920985006262e-16 -0 
1 76.199999999999775 88.900000000000006 0 -4.4408920985006262e-16 1 -0 -0 -0 1 -1 -4.4408920985006262e-16 -0 
1 76.199999999999818 1.6919798895287345e-14 0 -0 -0 1 -1 -4.4408920985006262e-16 -0 -4.4408920985006262e-16 1 -0 
1 76.199999999999818 1.6919798895287345e-14 2362.1999999999998 -0 -0 1 -1 -4.4408920985006262e-16 -0 -4.4408920985006262e-16 1 -0 
1 2260.5999999999999 5.0195403389352575e-13 0 -1 -4.4408920985006262e-16 -0 -0 -0 1 4.4408920985006262e-16 -1 0 
1 2222.5 4.8503423499823841e-13 0 -1 -4.4408920985006262e-16 -0 -0 -0 1 4.4408920985006262e-16 -1 0 
1 2260.5999999999999 5.0195403389352575e-13 0 -4.4408920985006262e-16 1 -0 -0 -0 1 -1 -4.4408920985006262e-16 -0 
1 2260.5999999999999 88.900000000000489 0 -4.4408920985006262e-16 1 -0 -0 -0 1 -1 -4.4408920985006262e-16 -0 
1 2260.5999999999999 5.0195403389352575e-13 0 -0 -0 1 -1 -4.4408920985006262e-16 -0 -4.4408920985006262e-16 1 -0 
1 2260.5999999999999 5.0195403389352575e-13 2070.0999999999999 -0 -0 1 -1 -4.4408920985006262e-16 -0 -4.4408920985006262e-16 1 -0 
1 254 5.6399329650957952e-14 0 -1 -4.4408920985006262e-16 -0 -0 -0 1 4.4408920985006262e-16 -1 0 
1 215.90000000000001 3.9479530755670569e-14 0 -1 -4.4408920985006262e-16 -0 -0 -0 1 4.4408920985006262e-16 -1 0 
1 254 5.6399329650957952e-14 0 -4.4408920985006262e-16 1 -0 -0 -0 1 -1 -4.4408920985006262e-16 -0 
1 253.99999999999997 88.900000000000048 0 -4.4408920985006262e-16 1 -0 -0 -0 1 -1 -4.4408920985006262e-16 -0 
1 254 5.6399329650957952e-14 0 -0 -0 1 -1 -4.4408920985006262e-16 -0 -4.4408920985006262e-16 1 -0 
1 254 5.6399329650957952e-14 2070.0999999999999 -0 -0 1 -1 -4.4408920985006262e-16 -0 -4.4408920985006262e-16 1 -0 
1 2260.5999999999999 5.0195403389352575e-13 0 -1 -4.4408920985006262e-16 -0 -0 -0 1 4.4408920985006262e-16 -1 0 
1 1219.2 3.9479530755670607e-14 0 -1 -4.4408920985006262e-16 -0 -0 -0 1 4.4408920985006262e-16 -1 0 
1 2260.5999999999999 5.0195403389352575e-13 0 -4.4408920985006262e-16 1 -0 -0 -0 1 -1 -4.4408920985006262e-16 -0 
1 2260.5999999999999 88.900000000000489 0 -4.4408920985006262e-16 1 -0 -0 -0 1 -1 -4.4408920985006262e-16 -0 
1 2260.5999999999999 5.0195403389352575e-13 0 -0 -0 1 -1 -4.4408920985006262e-16 -0 -4.4408920985006262e-16 1 -0 
1 2260.5999999999999 5.0195403389352575e-13 88.899999999999991 -0 -0 1 -1 -4.4408920985006262e-16 -0 -4.4408920985006262e-16 1 -0 
1 1625.5999999999997 3.6095570976613082e-13 0 -1 -4.4408920985006262e-16 -0 -0 -0 1 4.4408920985006262e-16 -1 0 
1 1587.4999999999998 3.4403591087084343e-13 0 -1 -4.4408920985006262e-16 -0 -0 -0 1 4.4408920985006262e-16 -1 0 
1 1625.5999999999997 3.6095570976613082e-13 0 -4.4408920985006262e-16 1 -0 -0 -0 1 -1 -4.4408920985006262e-16 -0 
1 1625.5999999999997 88.900000000000347 0 -4.4408920985006262e-16 1 -0 -0 -0 1 -1 -4.4408920985006262e-16 -0 
1 1625.5999999999997 3.6095570976613082e-13 0 -0 -0 1 -1 -4.4408920985006262e-16 -0 -4.4408920985006262e-16 1 -0 
1 1625.5999999999997 3.6095570976613082e-13 203.19999999999982 -0 -0 1 -1 -4.4408920985006262e-16 -0 -4.4408920985006262e-16 1 -0 
1 812.79999999999973 1.8047785488306539e-13 0 -1 -4.4408920985006262e-16 -0 -0 -0 1 4.4408920985006262e-16 -1 0 
1 774.6999999999997 1.6355805598777799e-13 0 -1 -4.4408920985006262e-16 -0 -0 -0 1 4.4408920985006262e-16 -1 0 
1 812.79999999999973 1.8047785488306539e-13 0 -4.4408920985006262e-16 1 -0 -0 -0 1 -1 -4.4408920985006262e-16 -0 
1 812.79999999999973 88.900000000000176 0 -4.4408920985006262e-16 1 -0 -0 -0 1 -1 -4.4408920985006262e-16 -0 
1 812.79999999999973 1.8047785488306539e-13 0 -0 -0 1 -1 -4.4408920985006262e-16 -0 -4.4408920985006262e-16 1 -0 
1 812.79999999999973 1.8047785488306539e-13 203.19999999999982 -0 -0 1 -1 -4.4408920985006262e-16 -0 -4.4408920985006262e-16 1 -0 
Triangulations 0

TShapes 341
Ve
1e-07
2.70716782324598e-13 -1219.2 38.1
0 0

0101101
*
Ve
1e-07
2.70716782324598e-13 -1219.2 0
0 0

0101101
*
Ed
 1e-07 1 1 0
1  1 0 0 38.1
0

0101000
-341 6 +340 6 *
Ve
1e-07
88.9000000000003 -1219.2 38.1
0 0

0101101
*
Ed
 1e-07 1 1 0
1  2 0 0 88.9
0

0101000
-338 6 +341 6 *
Ve
1e-07
88.9000000000003 -1219.2 0
0 0

0101101
*
Ed
 1e-07 1 1 0
1  3 0 0 38.1
0

0101000
-338 6 +336 6 *
Ed
 1e-07 1 1 0
1  4 0 0 88.9
0

0101000
-336 6 +340 6 *
Wi

0101100
-339 0 -337 0 +335 0 +334 0 *
Fa
0  1e-07 1 0

0111000
+333 0 *
Ve
1e-07
2.42517117499119e-13 -1092.2 38.1
0 0

0101101
*
Ve
1e-07
2.42517117499119e-13 -1092.2 0
0 0

0101101
*
Ed
 1e-07 1 1 0
1  5 0 0 38.1
0

0101000
-331 6 +330 6 *
Ve
1e-07
88.9000000000002 -1092.2 38.1
0 0

0101101
*
Ed
 1e-07 1 1 0
1  6 0 0 88.9
0

0101000
-328 6 +331 6 *
Ve
1e-07
88.9000000000002 -1092.2 0
0 0

0101101
*
Ed
 1e-07 1 1 0
1  7 0 0 38.1
0

0101000
-328 6 +326 6 *
Ed
 1e-07 1 1 0
1  8 0 0 88.9
0

0101000
-326 6 +330 6 *
Wi

0101100
-329 0 -327 0 +325 0 +324 0 *
Fa
0  1e-07 2 0

0111000
+323 0 *
Ed
 1e-07 1 1 0
1  9 0 0 127
0

0101000
-330 6 +340 6 *
Ed
 1e-07 1 1 0
1  10 0 0 127
0

0101000
-331 6 +341 6 *
Wi

0101100
-321 0 -329 0 +320 0 +339 0 *
Fa
0  1e-07 3 0

0111000
+319 0 *
Ed
 1e-07 1 1 0
1  11 0 0 127
0

0101000
-326 6 +336 6 *
Ed
 1e-07 1 1 0
1  12 0 0 127
0

0101000
-328 6 +338 6 *
Wi

0101100
-317 0 -325 0 +316 0 +335 0 *
Fa
0  1e-07 4 0

0111000
+315 0 *
Wi

0101100
-334 0 -317 0 +324 0 +321 0 *
Fa
0  1e-07 5 0

0111000
+313 0 *
Wi

0101100
-337 0 -316 0 +327 0 +320 0 *
Fa
0  1e-07 6 0

0111000
+311 0 *
Sh

0101100
+332 0 -322 0 +318 0 -314 0 +312 0 -310 0 *
So

0100000
+309 0 *
Ve
1e-07
2.8199664825479e-14 -127 38.1
0 0

0101101
*
Ve
1e-07
2.8199664825479e-14 -127 0
0 0

0101101
*
Ed
 1e-07 1 1 0
1  13 0 0 38.1
0

0101000
-307 8 +306 8 *
Ve
1e-07
88.9 -127 38.1
0 0

0101101
*
Ed
 1e-07 1 1 0
1  14 0 0 88.9
0

0101000
-304 8 +307 8 *
Ve
1e-07
88.9 -127 0
0 0

0101101
*
Ed
 1e-07 1 1 0
1  15 0 0 38.1
0

0101000
-304 8 +302 8 *
Ed
 1e-07 1 1 0
1  16 0 0 88.9
0

0101000
-302 8 +306 8 *
Wi

0101100
-305 0 -303 0 +301 0 +300 0 *
Fa
0  1e-07 7 0

0111000
+299 0 *
Ve
1e-07
0 0 38.1
0 0

0101101
*
Ve
1e-07
0 0 0
0 0

0101101
*
Ed
 1e-07 1 1 0
1  17 0 0 38.1
0

0101000
-297 8 +296 8 *
Ve
1e-07
88.9 0 38.1
0 0

0101101
*
Ed
 1e-07 1 1 0
1  18 0 0 88.9
0

0101000
-294 8 +297 8 *
Ve
1e-07
88.9 0 0
0 0

0101101
*
Ed
 1e-07 1 1 0
1  19 0 0 38.1
0

0101000
-294 8 +292 8 *
Ed
 1e-07 1 1 0
1  20 0 0 88.9
0

0101000
-292 8 +296 8 *
Wi

0101100
-295 0 -293 0 +291 0 +290 0 *
Fa
0  1e-07 8 0

0111000
+289 0 *
Ed
 1e-07 1 1 0
1  21 0 0 127
0

0101000
-296 8 +306 8 *
Ed
 1e-07 1 1 0
1  22 0 0 127
0

0101000
-297 8 +307 8 *
Wi

0101100
-287 0 -295 0 +286 0 +305 0 *
Fa
0  1e-07 9 0

0111000
+285 0 *
Ed
 1e-07 1 1 0
1  23 0 0 127
0

0101000
-292 8 +302 8 *
Ed
 1e-07 1 1 0
1  24 0 0 127
0

0101000
-294 8 +304 8 *
Wi

0101100
-283 0 -291 0 +282 0 +301 0 *
Fa
0  1e-07 10 0

0111000
+281 0 *
Wi

0101100
-300 0 -283 0 +290 0 +287 0 *
Fa
0  1e-07 11 0

0111000
+279 0 *
Wi

0101100
-303 0 -282 0 +293 0 +286 0 *
Fa
0  1e-07 12 0

0111000
+277 0 *
Sh

0101100
+298 0 -288 0 +284 0 -280 0 +278 0 -276 0 *
So

0100000
+275 0 *
Ve
1e-07
2.70716782324598e-13 -1219.2 2438.4
0 0

0101101
*
Ve
1e-07
2.70716782324598e-13 -1219.2 2400.3
0 0

0101101
*
Ed
 1e-07 1 1 0
1  25 0 0 38.1
0

0101000
-273 10 +272 10 *
Ve
1e-07
88.9000000000003 -1219.2 2438.4
0 0

0101101
*
Ed
 1e-07 1 1 0
1  26 0 0 88.9
0

0101000
-270 10 +273 10 *
Ve
1e-07
88.9000000000003 -1219.2 2400.3
0 0

0101101
*
Ed
 1e-07 1 1 0
1  27 0 0 38.1
0

0101000
-270 10 +268 10 *
Ed
 1e-07 1 1 0
1  28 0 0 88.9
0

0101000
-268 10 +272 10 *
Wi

0101100
-271 0 -269 0 +267 0 +266 0 *
Fa
0  1e-07 13 0

0111000
+265 0 *
Ve
1e-07
0 0 2438.4
0 0

0101101
*
Ve
1e-07
0 0 2400.3
0 0

0101101
*
Ed
 1e-07 1 1 0
1  29 0 0 38.1
0

0101000
-263 10 +262 10 *
Ve
1e-07
88.9 0 2438.4
0 0

0101101
*
Ed
 1e-07 1 1 0
1  30 0 0 88.9
0

0101000
-260 10 +263 10 *
Ve
1e-07
88.9 0 2400.3
0 0

0101101
*
Ed
 1e-07 1 1 0
1  31 0 0 38.1
0

0101000
-260 10 +258 10 *
Ed
 1e-07 1 1 0
1  32 0 0 88.9
0

0101000
-258 10 +262 10 *
Wi

0101100
-261 0 -259 0 +257 0 +256 0 *
Fa
0  1e-07 14 0

0111000
+255 0 *
Ed
 1e-07 1 1 0
1  33 0 0 1219.2
0

0101000
-262 10 +272 10 *
Ed
 1e-07 1 1 0
1  34 0 0 1219.2
0

0101000
-263 10 +273 10 *
Wi

0101100
-253 0 -261 0 +252 0 +271 0 *
Fa
0  1e-07 15 0

0111000
+251 0 *
Ed
 1e-07 1 1 0
1  35 0 0 1219.2
0

0101000
-258 10 +268 10 *
Ed
 1e-07 1 1 0
1  36 0 0 1219.2
0

0101000
-260 10 +270 10 *
Wi

0101100
-249 0 -257 0 +248 0 +267 0 *
Fa
0  1e-07 16 0

0111000
+247 0 *
Wi

0101100
-266 0 -249 0 +256 0 +253 0 *
Fa
0  1e-07 17 0

0111000
+245 0 *
Wi

0101100
-269 0 -248 0 +259 0 +252 0 *
Fa
0  1e-07 18 0

0111000
+243 0 *
Sh

0101100
+264 0 -254 0 +250 0 -246 0 +244 0 -242 0 *
So

0100000
+241 0 *
Ve
1e-07
2.70716782324598e-13 -1219.2 2400.3
0 0

0101101
*
Ve
1e-07
2.70716782324598e-13 -1219.2 38.1
0 0

0101101
*
Ed
 1e-07 1 1 0
1  37 0 0 2362.2
0

0101000
-239 12 +238 12 *
Ve
1e-07
88.9000000000003 -1219.2 2400.3
0 0

0101101
*
Ed
 1e-07 1 1 0
1  38 0 0 88.9
0

0101000
-236 12 +239 12 *
Ve
1e-07
88.9000000000003 -1219.2 38.1
0 0

0101101
*
Ed
 1e-07 1 1 0
1  39 0 0 2362.2
0

0101000
-236 12 +234 12 *
Ed
 1e-07 1 1 0
1  40 0 0 88.9
0

0101000
-234 12 +238 12 *
Wi

0101100
-237 0 -235 0 +233 0 +232 0 *
Fa
0  1e-07 19 0

0111000
+231 0 *
Ve
1e-07
2.62256882876954e-13 -1181.1 2400.3
0 0

0101101
*
Ve
1e-07
2.62256882876954e-13 -1181.1 38.1
0 0

0101101
*
Ed
 1e-07 1 1 0
1  41 0 0 2362.2
0

0101000
-229 12 +228 12 *
Ve
1e-07
88.9000000000002 -1181.1 2400.3
0 0

0101101
*
Ed
 1e-07 1 1 0
1  42 0 0 88.9
0

0101000
-226 12 +229 12 *
Ve
1e-07
88.9000000000002 -1181.1 38.1
0 0

0101101
*
Ed
 1e-07 1 1 0
1  43 0 0 2362.2
0

0101000
-226 12 +224 12 *
Ed
 1e-07 1 1 0
1  44 0 0 88.9
0

0101000
-224 12 +228 12 *
Wi

0101100
-227 0 -225 0 +223 0 +222 0 *
Fa
0  1e-07 20 0

0111000
+221 0 *
Ed
 1e-07 1 1 0
1  45 0 0 38.1
0

0101000
-228 12 +238 12 *
Ed
 1e-07 1 1 0
1  46 0 0 38.1
0

0101000
-229 12 +239 12 *
Wi

0101100
-219 0 -227 0 +218 0 +237 0 *
Fa
0  1e-07 21 0

0111000
+217 0 *
Ed
 1e-07 1 1 0
1  47 0 0 38.1
0

0101000
-224 12 +234 12 *
Ed
 1e-07 1 1 0
1  48 0 0 38.1
0

0101000
-226 12 +236 12 *
Wi

0101100
-215 0 -223 0 +214 0 +233 0 *
Fa
0  1e-07 22 0

0111000
+213 0 *
Wi

0101100
-232 0 -215 0 +222 0 +219 0 *
Fa
0  1e-07 23 0

0111000
+211 0 *
Wi

0101100
-235 0 -214 0 +225 0 +218 0 *
Fa
0  1e-07 24 0

0111000
+209 0 *
Sh

0101100
+230 0 -220 0 +216 0 -212 0 +210 0 -208 0 *
So

0100000
+207 0 *
Ve
1e-07
8.45989944764367e-15 -38.0999999999999 2400.3
0 0

0101101
*
Ve
1e-07
8.45989944764367e-15 -38.0999999999999 38.1
0 0

0101101
*
Ed
 1e-07 1 1 0
1  49 0 0 2362.2
0

0101000
-205 14 +204 14 *
Ve
1e-07
88.9 -38.0999999999999 2400.3
0 0

0101101
*
Ed
 1e-07 1 1 0
1  50 0 0 88.9
0

0101000
-202 14 +205 14 *
Ve
1e-07
88.9 -38.0999999999999 38.1
0 0

0101101
*
Ed
 1e-07 1 1 0
1  51 0 0 2362.2
0

0101000
-202 14 +200 14 *
Ed
 1e-07 1 1 0
1  52 0 0 88.9
0

0101000
-200 14 +204 14 *
Wi

0101100
-203 0 -201 0 +199 0 +198 0 *
Fa
0  1e-07 25 0

0111000
+197 0 *
Ve
1e-07
0 0 2400.3
0 0

0101101
*
Ve
1e-07
0 0 38.1
0 0

0101101
*
Ed
 1e-07 1 1 0
1  53 0 0 2362.2
0

0101000
-195 14 +194 14 *
Ve
1e-07
88.9 0 2400.3
0 0

0101101
*
Ed
 1e-07 1 1 0
1  54 0 0 88.9
0

0101000
-192 14 +195 14 *
Ve
1e-07
88.9 0 38.1
0 0

0101101
*
Ed
 1e-07 1 1 0
1  55 0 0 2362.2
0

0101000
-192 14 +190 14 *
Ed
 1e-07 1 1 0
1  56 0 0 88.9
0

0101000
-190 14 +194 14 *
Wi

0101100
-193 0 -191 0 +189 0 +188 0 *
Fa
0  1e-07 26 0

0111000
+187 0 *
Ed
 1e-07 1 1 0
1  57 0 0 38.1
0

0101000
-194 14 +204 14 *
Ed
 1e-07 1 1 0
1  58 0 0 38.1
0

0101000
-195 14 +205 14 *
Wi

0101100
-185 0 -193 0 +184 0 +203 0 *
Fa
0  1e-07 27 0

0111000
+183 0 *
Ed
 1e-07 1 1 0
1  59 0 0 38.1
0

0101000
-190 14 +200 14 *
Ed
 1e-07 1 1 0
1  60 0 0 38.1
0

0101000
-192 14 +202 14 *
Wi

0101100
-181 0 -189 0 +180 0 +199 0 *
Fa
0  1e-07 28 0

0111000
+179 0 *
Wi

0101100
-198 0 -181 0 +188 0 +185 0 *
Fa
0  1e-07 29 0

0111000
+177 0 *
Wi

0101100
-201 0 -180 0 +191 0 +184 0 *
Fa
0  1e-07 30 0

0111000
+175 0 *
Sh

0101100
+196 0 -186 0 +182 0 -178 0 +176 0 -174 0 *
So

0100000
+173 0 *
Ve
1e-07
2.50977016946763e-13 -1130.3 2108.2
0 0

0101101
*
Ve
1e-07
2.50977016946763e-13 -1130.3 38.1
0 0

0101101
*
Ed
 1e-07 1 1 0
1  61 0 0 2070.1
0

0101000
-171 16 +170 16 *
Ve
1e-07
88.9000000000002 -1130.3 2108.2
0 0

0101101
*
Ed
 1e-07 1 1 0
1  62 0 0 88.9
0

0101000
-168 16 +171 16 *
Ve
1e-07
88.9000000000002 -1130.3 38.1
0 0

0101101
*
Ed
 1e-07 1 1 0
1  63 0 0 2070.1
0

0101000
-168 16 +166 16 *
Ed
 1e-07 1 1 0
1  64 0 0 88.9
0

0101000
-166 16 +170 16 *
Wi

0101100
-169 0 -167 0 +165 0 +164 0 *
Fa
0  1e-07 31 0

0111000
+163 0 *
Ve
1e-07
2.42517117499119e-13 -1092.2 2108.2
0 0

0101101
*
Ve
1e-07
2.42517117499119e-13 -1092.2 38.1
0 0

0101101
*
Ed
 1e-07 1 1 0
1  65 0 0 2070.1
0

0101000
-161 16 +160 16 *
Ve
1e-07
88.9000000000002 -1092.2 2108.2
0 0

0101101
*
Ed
 1e-07 1 1 0
1  66 0 0 88.9
0

0101000
-158 16 +161 16 *
Ve
1e-07
88.9000000000002 -1092.2 38.1
0 0

0101101
*
Ed
 1e-07 1 1 0
1  67 0 0 2070.1
0

0101000
-158 16 +156 16 *
Ed
 1e-07 1 1 0
1  68 0 0 88.9
0

0101000
-156 16 +160 16 *
Wi

0101100
-159 0 -157 0 +155 0 +154 0 *
Fa
0  1e-07 32 0

0111000
+153 0 *
Ed
 1e-07 1 1 0
1  69 0 0 38.1
0

0101000
-160 16 +170 16 *
Ed
 1e-07 1 1 0
1  70 0 0 38.1
0

0101000
-161 16 +171 16 *
Wi

0101100
-151 0 -159 0 +150 0 +169 0 *
Fa
0  1e-07 33 0

0111000
+149 0 *
Ed
 1e-07 1 1 0
1  71 0 0 38.1
0

0101000
-156 16 +166 16 *
Ed
 1e-07 1 1 0
1  72 0 0 38.1
0

0101000
-158 16 +168 16 *
Wi

0101100
-147 0 -155 0 +146 0 +165 0 *
Fa
0  1e-07 34 0

0111000
+145 0 *
Wi

0101100
-164 0 -147 0 +154 0 +151 0 *
Fa
0  1e-07 35 0

0111000
+143 0 *
Wi

0101100
-167 0 -146 0 +157 0 +150 0 *
Fa
0  1e-07 36 0

0111000
+141 0 *
Sh

0101100
+162 0 -152 0 +148 0 -144 0 +142 0 -140 0 *
So

0100000
+139 0 *
Ve
1e-07
2.8199664825479e-14 -127 2108.2
0 0

0101101
*
Ve
1e-07
2.8199664825479e-14 -127 38.1
0 0

0101101
*
Ed
 1e-07 1 1 0
1  73 0 0 2070.1
0

0101000
-137 18 +136 18 *
Ve
1e-07
88.9 -127 2108.2
0 0

0101101
*
Ed
 1e-07 1 1 0
1  74 0 0 88.9
0

0101000
-134 18 +137 18 *
Ve
1e-07
88.9 -127 38.1
0 0

0101101
*
Ed
 1e-07 1 1 0
1  75 0 0 2070.1
0

0101000
-134 18 +132 18 *
Ed
 1e-07 1 1 0
1  76 0 0 88.9
0

0101000
-132 18 +136 18 *
Wi

0101100
-135 0 -133 0 +131 0 +130 0 *
Fa
0  1e-07 37 0

0111000
+129 0 *
Ve
1e-07
1.97397653778353e-14 -88.9000000000001 2108.2
0 0

0101101
*
Ve
1e-07
1.97397653778353e-14 -88.9000000000001 38.1
0 0

0101101
*
Ed
 1e-07 1 1 0
1  77 0 0 2070.1
0

0101000
-127 18 +126 18 *
Ve
1e-07
88.9 -88.9000000000001 2108.2
0 0

0101101
*
Ed
 1e-07 1 1 0
1  78 0 0 88.9
0

0101000
-124 18 +127 18 *
Ve
1e-07
88.9 -88.9000000000001 38.1
0 0

0101101
*
Ed
 1e-07 1 1 0
1  79 0 0 2070.1
0

0101000
-124 18 +122 18 *
Ed
 1e-07 1 1 0
1  80 0 0 88.9
0

0101000
-122 18 +126 18 *
Wi

0101100
-125 0 -123 0 +121 0 +120 0 *
Fa
0  1e-07 38 0

0111000
+119 0 *
Ed
 1e-07 1 1 0
1  81 0 0 38.1
0

0101000
-126 18 +136 18 *
Ed
 1e-07 1 1 0
1  82 0 0 38.1
0

0101000
-127 18 +137 18 *
Wi

0101100
-117 0 -125 0 +116 0 +135 0 *
Fa
0  1e-07 39 0

0111000
+115 0 *
Ed
 1e-07 1 1 0
1  83 0 0 38.1
0

0101000
-122 18 +132 18 *
Ed
 1e-07 1 1 0
1  84 0 0 38.1
0

0101000
-124 18 +134 18 *
Wi

0101100
-113 0 -121 0 +112 0 +131 0 *
Fa
0  1e-07 40 0

0111000
+111 0 *
Wi

0101100
-130 0 -113 0 +120 0 +117 0 *
Fa
0  1e-07 41 0

0111000
+109 0 *
Wi

0101100
-133 0 -112 0 +123 0 +116 0 *
Fa
0  1e-07 42 0

0111000
+107 0 *
Sh

0101100
+128 0 -118 0 +114 0 -110 0 +108 0 -106 0 *
So

0100000
+105 0 *
Ve
1e-07
2.50977016946763e-13 -1130.3 2197.1
0 0

0101101
*
Ve
1e-07
2.50977016946763e-13 -1130.3 2108.2
0 0

0101101
*
Ed
 1e-07 1 1 0
1  85 0 0 88.9
0

0101000
-103 20 +102 20 *
Ve
1e-07
88.9000000000002 -1130.3 2197.1
0 0

0101101
*
Ed
 1e-07 1 1 0
1  86 0 0 88.9
0

0101000
-100 20 +103 20 *
Ve
1e-07
88.9000000000002 -1130.3 2108.2
0 0

0101101
*
Ed
 1e-07 1 1 0
1  87 0 0 88.9
0

0101000
-100 20 +98 20 *
Ed
 1e-07 1 1 0
1  88 0 0 88.9
0

0101000
-98 20 +102 20 *
Wi

0101100
-101 0 -99 0 +97 0 +96 0 *
Fa
0  1e-07 43 0

0111000
+95 0 *
Ve
1e-07
1.97397653778353e-14 -88.9000000000001 2197.1
0 0

0101101
*
Ve
1e-07
1.97397653778353e-14 -88.9000000000001 2108.2
0 0

0101101
*
Ed
 1e-07 1 1 0
1  89 0 0 88.9
0

0101000
-93 20 +92 20 *
Ve
1e-07
88.9 -88.9000000000001 2197.1
0 0

0101101
*
Ed
 1e-07 1 1 0
1  90 0 0 88.9
0

0101000
-90 20 +93 20 *
Ve
1e-07
88.9 -88.9000000000001 2108.2
0 0

0101101
*
Ed
 1e-07 1 1 0
1  91 0 0 88.9
0

0101000
-90 20 +88 20 *
Ed
 1e-07 1 1 0
1  92 0 0 88.9
0

0101000
-88 20 +92 20 *
Wi

0101100
-91 0 -89 0 +87 0 +86 0 *
Fa
0  1e-07 44 0

0111000
+85 0 *
Ed
 1e-07 1 1 0
1  93 0 0 1041.4
0

0101000
-92 20 +102 20 *
Ed
 1e-07 1 1 0
1  94 0 0 1041.4
0

0101000
-93 20 +103 20 *
Wi

0101100
-83 0 -91 0 +82 0 +101 0 *
Fa
0  1e-07 45 0

0111000
+81 0 *
Ed
 1e-07 1 1 0
1  95 0 0 1041.4
0

0101000
-88 20 +98 20 *
Ed
 1e-07 1 1 0
1  96 0 0 1041.4
0

0101000
-90 20 +100 20 *
Wi

0101100
-79 0 -87 0 +78 0 +97 0 *
Fa
0  1e-07 46 0

0111000
+77 0 *
Wi

0101100
-96 0 -79 0 +86 0 +83 0 *
Fa
0  1e-07 47 0

0111000
+75 0 *
Wi

0101100
-99 0 -78 0 +89 0 +82 0 *
Fa
0  1e-07 48 0

0111000
+73 0 *
Sh

0101100
+94 0 -84 0 +80 0 -76 0 +74 0 -72 0 *
So

0100000
+71 0 *
Ve
1e-07
1.80477854883065e-13 -812.8 2400.3
0 0

0101101
*
Ve
1e-07
1.80477854883065e-13 -812.8 2197.1
0 0

0101101
*
Ed
 1e-07 1 1 0
1  97 0 0 203.2
0

0101000
-69 22 +68 22 *
Ve
1e-07
88.9000000000002 -812.8 2400.3
0 0

0101101
*
Ed
 1e-07 1 1 0
1  98 0 0 88.9
0

0101000
-66 22 +69 22 *
Ve
1e-07
88.9000000000002 -812.8 2197.1
0 0

0101101
*
Ed
 1e-07 1 1 0
1  99 0 0 203.2
0

0101000
-66 22 +64 22 *
Ed
 1e-07 1 1 0
1  100 0 0 88.9
0

0101000
-64 22 +68 22 *
Wi

0101100
-67 0 -65 0 +63 0 +62 0 *
Fa
0  1e-07 49 0

0111000
+61 0 *
Ve
1e-07
1.72017955435422e-13 -774.7 2400.3
0 0

0101101
*
Ve
1e-07
1.72017955435422e-13 -774.7 2197.1
0 0

0101101
*
Ed
 1e-07 1 1 0
1  101 0 0 203.2
0

0101000
-59 22 +58 22 *
Ve
1e-07
88.9000000000002 -774.7 2400.3
0 0

0101101
*
Ed
 1e-07 1 1 0
1  102 0 0 88.9
0

0101000
-56 22 +59 22 *
Ve
1e-07
88.9000000000002 -774.7 2197.1
0 0

0101101
*
Ed
 1e-07 1 1 0
1  103 0 0 203.2
0

0101000
-56 22 +54 22 *
Ed
 1e-07 1 1 0
1  104 0 0 88.9
0

0101000
-54 22 +58 22 *
Wi

0101100
-57 0 -55 0 +53 0 +52 0 *
Fa
0  1e-07 50 0

0111000
+51 0 *
Ed
 1e-07 1 1 0
1  105 0 0 38.1
0

0101000
-58 22 +68 22 *
Ed
 1e-07 1 1 0
1  106 0 0 38.1
0

0101000
-59 22 +69 22 *
Wi

0101100
-49 0 -57 0 +48 0 +67 0 *
Fa
0  1e-07 51 0

0111000
+47 0 *
Ed
 1e-07 1 1 0
1  107 0 0 38.1
0

0101000
-54 22 +64 22 *
Ed
 1e-07 1 1 0
1  108 0 0 38.1
0

0101000
-56 22 +66 22 *
Wi

0101100
-45 0 -53 0 +44 0 +63 0 *
Fa
0  1e-07 52 0

0111000
+43 0 *
Wi

0101100
-62 0 -45 0 +52 0 +49 0 *
Fa
0  1e-07 53 0

0111000
+41 0 *
Wi

0101100
-65 0 -44 0 +55 0 +48 0 *
Fa
0  1e-07 54 0

0111000
+39 0 *
Sh

0101100
+60 0 -50 0 +46 0 -42 0 +40 0 -38 0 *
So

0100000
+37 0 *
Ve
1e-07
9.02389274415327e-14 -406.4 2400.3
0 0

0101101
*
Ve
1e-07
9.02389274415327e-14 -406.4 2197.1
0 0

0101101
*
Ed
 1e-07 1 1 0
1  109 0 0 203.2
0

0101000
-35 24 +34 24 *
Ve
1e-07
88.9000000000001 -406.4 2400.3
0 0

0101101
*
Ed
 1e-07 1 1 0
1  110 0 0 88.9
0

0101000
-32 24 +35 24 *
Ve
1e-07
88.9000000000001 -406.4 2197.1
0 0

0101101
*
Ed
 1e-07 1 1 0
1  111 0 0 203.2
0

0101000
-32 24 +30 24 *
Ed
 1e-07 1 1 0
1  112 0 0 88.9
0

0101000
-30 24 +34 24 *
Wi

0101100
-33 0 -31 0 +29 0 +28 0 *
Fa
0  1e-07 55 0

0111000
+27 0 *
Ve
1e-07
8.1779027993889e-14 -368.3 2400.3
0 0

0101101
*
Ve
1e-07
8.1779027993889e-14 -368.3 2197.1
0 0

0101101
*
Ed
 1e-07 1 1 0
1  113 0 0 203.2
0

0101000
-25 24 +24 24 *
Ve
1e-07
88.9000000000001 -368.3 2400.3
0 0

0101101
*
Ed
 1e-07 1 1 0
1  114 0 0 88.9
0

0101000
-22 24 +25 24 *
Ve
1e-07
88.9000000000001 -368.3 2197.1
0 0

0101101
*
Ed
 1e-07 1 1 0
1  115 0 0 203.2
0

0101000
-22 24 +20 24 *
Ed
 1e-07 1 1 0
1  116 0 0 88.9
0

0101000
-20 24 +24 24 *
Wi

0101100
-23 0 -21 0 +19 0 +18 0 *
Fa
0  1e-07 56 0

0111000
+17 0 *
Ed
 1e-07 1 1 0
1  117 0 0 38.1
0

0101000
-24 24 +34 24 *
Ed
 1e-07 1 1 0
1  118 0 0 38.1
0

0101000
-25 24 +35 24 *
Wi

0101100
-15 0 -23 0 +14 0 +33 0 *
Fa
0  1e-07 57 0

0111000
+13 0 *
Ed
 1e-07 1 1 0
1  119 0 0 38.1
0

0101000
-20 24 +30 24 *
Ed
 1e-07 1 1 0
1  120 0 0 38.1
0

0101000
-22 24 +32 24 *
Wi

0101100
-11 0 -19 0 +10 0 +29 0 *
Fa
0  1e-07 58 0

0111000
+9 0 *
Wi

0101100
-28 0 -11 0 +18 0 +15 0 *
Fa
0  1e-07 59 0

0111000
+7 0 *
Wi

0101100
-31 0 -10 0 +21 0 +14 0 *
Fa
0  1e-07 60 0

0111000
+5 0 *
Sh

0101100
+26 0 -16 0 +12 0 -8 0 +6 0 -4 0 *
So

0100000
+3 0 *
Co

1100000
+308 5 +274 7 +240 9 +206 11 +172 13 +138 15 +104 17 +70 19 +36 21 +2 23 
*

+1 4 