DBRep_DrawableShape

CASCADE Topology V1, (c) Matra-Datavision
Locations 13
1
              1               0               0               0 
              0               1               0               0 
              0               0               1               0 
1
-2.22044604925031e-16               1               0               0 
             -1 -2.22044604925031e-16               0               0 
              0               0               1               0 
1
              1               0               0 2.70716782324598e-13 
              0               1               0          1219.2 
              0               0               1              -0 
2  1 1 2 1 3 1 0
2  3 -1 2 -1 1 -1 0
1
              1               0               0               0 
              0               1               0               0 
              0               0               1          2400.3 
2  3 -1 2 -1 1 -1 6 -1 0
1
              1               0               0               0 
              0               1               0               0 
              0               0               1            38.1 
2  3 -1 2 -1 1 -1 8 -1 0
1
              1               0               0           609.6 
              0               1               0               0 
              0               0               1            38.1 
2  3 -1 2 -1 1 -1 10 -1 0
1
              1               0               0          1181.1 
              0               1               0               0 
              0               0               1            38.1 
2  3 -1 2 -1 1 -1 12 -1 0
Curve2ds 0
Curves 60
1 2438.3999999999996 5.4143356464919626e-13 0 -0 -0 1 
1 2438.3999999999996 5.4143356464919626e-13 38.099999999999994 -4.4408920985006262e-16 1 -0 
1 2438.3999999999996 88.900000000000531 0 -0 -0 1 
1 2438.3999999999996 5.4143356464919626e-13 0 -4.4408920985006262e-16 1 -0 
1 1219.1999999999998 0 0 -0 -0 1 
1 1219.1999999999998 0 38.099999999999994 -4.4408920985006262e-16 1 -0 
1 1219.1999999999998 88.899999999999991 0 -0 -0 1 
1 1219.1999999999998 0 0 -4.4408920985006262e-16 1 -0 
1 2438.3999999999996 5.4143356464919626e-13 0 -1 -4.4408920985006262e-16 -0 
1 2438.3999999999996 5.4143356464919626e-13 38.099999999999994 -1 -4.4408920985006262e-16 -0 
1 2438.3999999999996 88.900000000000531 0 -1 -4.4408920985006262e-16 -0 
1 2438.3999999999996 88.900000000000531 38.099999999999994 -1 -4.4408920985006262e-16 -0 
1 2438.3999999999996 5.4143356464919626e-13 0 -0 -0 1 
1 2438.3999999999996 5.4143356464919626e-13 38.099999999999994 -4.4408920985006262e-16 1 -0 
1 2438.3999999999996 88.900000000000531 0 -0 -0 1 
1 2438.3999999999996 5.4143356464919626e-13 0 -4.4408920985006262e-16 1 -0 
1 1219.1999999999998 0 0 -0 -0 1 
1 1219.1999999999998 0 38.099999999999994 -4.4408920985006262e-16 1 -0 
1 1219.1999999999998 88.899999999999991 0 -0 -0 1 
1 1219.1999999999998 0 0 -4.4408920985006262e-16 1 -0 
1 2438.3999999999996 5.4143356464919626e-13 0 -1 -4.4408920985006262e-16 -0 
1 2438.3999999999996 5.4143356464919626e-13 38.099999999999994 -1 -4.4408920985006262e-16 -0 
1 2438.3999999999996 88.900000000000531 0 -1 -4.4408920985006262e-16 -0 
1 2438.3999999999996 88.900000000000531 38.099999999999994 -1 -4.4408920985006262e-16 -0 
1 2438.3999999999996 5.4143356464919626e-13 0 -0 -0 1 
1 2438.3999999999996 5.4143356464919626e-13 2362.1999999999998 -4.4408920985006262e-16 1 -0 
1 2438.3999999999996 88.900000000000531 0 -0 -0 1 
1 2438.3999999999996 5.4143356464919626e-13 0 -4.4408920985006262e-16 1 -0 
1 2400.2999999999997 5.2451376575390892e-13 0 -0 -0 1 
1 2400.2999999999997 5.2451376575390892e-13 2362.1999999999998 -4.4408920985006262e-16 1 -0 
1 2400.2999999999997 88.900000000000517 0 -0 -0 1 
1 2400.2999999999997 5.2451376575390892e-13 0 -4.4408920985006262e-16 1 -0 
1 2438.3999999999996 5.4143356464919626e-13 0 -1 -4.4408920985006262e-16 -0 
1 2438.3999999999996 5.4143356464919626e-13 2362.1999999999998 -1 -4.4408920985006262e-16 -0 
1 2438.3999999999996 88.900000000000531 0 -1 -4.4408920985006262e-16 -0 
1 2438.3999999999996 88.900000000000531 2362.1999999999998 -1 -4.4408920985006262e-16 -0 
1 1219.1999999999998 2.7071678232459813e-13 0 -0 -0 1 
1 1219.1999999999998 2.7071678232459813e-13 2362.1999999999998 -4.4408920985006262e-16 1 -0 
1 1219.1999999999998 88.900000000000261 0 -0 -0 1 
1 1219.1999999999998 2.7071678232459813e-13 0 -4.4408920985006262e-16 1 -0 
1 1181.0999999999999 2.5379698342931073e-13 0 -0 -0 1 
1 1181.0999999999999 2.5379698342931073e-13 2362.1999999999998 -4.4408920985006262e-16 1 -0 
1 1181.0999999999997 88.900000000000247 0 -0 -0 1 
1 1181.0999999999999 2.5379698342931073e-13 0 -4.4408920985006262e-16 1 -0 
1 1219.1999999999998 2.7071678232459813e-13 0 -1 -4.4408920985006262e-16 -0 
1 1219.1999999999998 2.7071678232459813e-13 2362.1999999999998 -1 -4.4408920985006262e-16 -0 
1 1219.1999999999998 88.900000000000261 0 -1 -4.4408920985006262e-16 -0 
1 1219.1999999999998 88.900000000000261 2362.1999999999998 -1 -4.4408920985006262e-16 -0 
1 76.199999999999818 1.6919798895287345e-14 0 -0 -0 1 
1 76.199999999999818 1.6919798895287345e-14 2362.1999999999998 -4.4408920985006262e-16 1 -0 
1 76.199999999999775 88.900000000000006 0 -0 -0 1 
1 76.199999999999818 1.6919798895287345e-14 0 -4.4408920985006262e-16 1 -0 
1 38.099999999999824 -3.7865323450608567e-29 0 -0 -0 1 
1 38.099999999999824 -3.7865323450608567e-29 2362.1999999999998 -4.4408920985006262e-16 1 -0 
1 38.099999999999781 88.899999999999991 0 -0 -0 1 
1 38.099999999999824 -3.7865323450608567e-29 0 -4.4408920985006262e-16 1 -0 
1 76.199999999999818 1.6919798895287345e-14 0 -1 -4.4408920985006262e-16 -0 
1 76.199999999999818 1.6919798895287345e-14 2362.1999999999998 -1 -4.4408920985006262e-16 -0 
1 76.199999999999775 88.900000000000006 0 -1 -4.4408920985006262e-16 -0 
1 76.199999999999775 88.900000000000006 2362.1999999999998 -1 -4.4408920985006262e-16 -0 
Polygon3D 0
PolygonOnTriangulations 0
Surfaces 30
1 2438.3999999999996 5.4143356464919626e-13 0 -1 -4.4408920985006262e-16 -0 -0 -0 1 4.4408920985006262e-16 -1 0 
1 1219.1999999999998 0 0 -1 -4.4408920985006262e-16 -0 -0 -0 1 4.4408920985006262e-16 -1 0 
1 2438.3999999999996 5.4143356464919626e-13 0 -4.4408920985006262e-16 1 -0 -0 -0 1 -1 -4.4408920985006262e-16 -0 
1 2438.3999999999996 88.900000000000531 0 -4.4408920985006262e-16 1 -0 -0 -0 1 -1 -4.4408920985006262e-16 -0 
1 2438.3999999999996 5.4143356464919626e-13 0 -0 -0 1 -1 -4.4408920985006262e-16 -0 -4.4408920985006262e-16 1 -0 
1 2438.3999999999996 5.4143356464919626e-13 38.099999999999994 -0 -0 1 -1 -4.4408920985006262e-16 -0 -4.4408920985006262e-16 1 -0 
1 2438.3999999999996 5.4143356464919626e-13 0 -1 -4.4408920985006262e-16 -0 -0 -0 1 4.4408920985006262e-16 -1 0 
1 1219.1999999999998 0 0 -1 -4.4408920985006262e-16 -0 -0 -0 1 4.4408920985006262e-16 -1 0 
1 2438.3999999999996 5.4143356464919626e-13 0 -4.4408920985006262e-16 1 -0 -0 -0 1 -1 -4.4408920985006262e-16 -0 
1 2438.3999999999996 88.900000000000531 0 -4.4408920985006262e-16 1 -0 -0 -0 1 -1 -4.4408920985006262e-16 -0 
1 2438.3999999999996 5.4143356464919626e-13 0 -0 -0 1 -1 -4.4408920985006262e-16 -0 -4.4408920985006262e-16 1 -0 
1 2438.3999999999996 5.4143356464919626e-13 38.099999999999994 -0 -0 1 -1 -4.4408920985006262e-16 -0 -4.4408920985006262e-16 1 -0 
1 2438.3999999999996 5.4143356464919626e-13 0 -1 -4.4408920985006262e-16 -0 -0 -0 1 4.4408920985006262e-16 -1 0 
1 2400.2999999999997 5.2451376575390892e-13 0 -1 -4.4408920985006262e-16 -0 -0 -0 1 4.4408920985006262e-16 -1 0 
1 2438.3999999999996 5.4143356464919626e-13 0 -4.4408920985006262e-16 1 -0 -0 -0 1 -1 -4.4408920985006262e-16 -0 
1 2438.3999999999996 88.900000000000531 0 -4.4408920985006262e-16 1 -0 -0 -0 1 -1 -4.4408920985006262e-16 -0 
1 2438.3999999999996 5.4143356464919626e-13 0 -0 -0 1 -1 -4.4408920985006262e-16 -0 -4.4408920985006262e-16 1 -0 
1 2438.3999999999996 5.4143356464919626e-13 2362.1999999999998 -0 -0 1 -1 -4.4408920985006262e-16 -0 -4.4408920985006262e-16 1 -0 
1 1219.1999999999998 2.7071678232459813e-13 0 -1 -4.4408920985006262e-16 -0 -0 -0 1 4.4408920985006262e-16 -1 0 
1 1181.0999999999999 2.5379698342931073e-13 0 -1 -4.4408920985006262e-16 -0 -0 -0 1 4.4408920985006262e-16 -1 0 
1 1219.1999999999998 2.7071678232459813e-13 0 -4.4408920985006262e-16 1 -0 -0 -0 1 -1 -4.4408920985006262e-16 -0 
1 1219.1999999999998 88.900000000000261 0 -4.4408920985006262e-16 1 -0 -0 -0 1 -1 -4.4408920985006262e-16 -0 
1 1219.1999999999998 2.7071678232459813e-13 0 -0 -0 1 -1 -4.4408920985006262e-16 -0 -4.4408920985006262e-16 1 -0 
1 1219.1999999999998 2.7071678232459813e-13 2362.1999999999998 -0 -0 1 -1 -4.4408920985006262e-16 -0 -4.4408920985006262e-16 1 -0 
1 76.199999999999818 1.6919798895287345e-14 0 -1 -4.4408920985006262e-16 -0 -0 -0 1 4.4408920985006262e-16 -1 0 
1 38.099999999999824 -3.7865323450608567e-29 0 -1 -4.4408920985006262e-16 -0 -0 -0 1 4.4408920985006262e-16 -1 0 
1 76.199999999999818 1.6919798895287345e-14 0 -4.4408920985006262e-16 1 -0 -0 -0 1 -1 -4.4408920985006262e-16 -0 
1 76.199999999999775 88.900000000000006 0 -4.4408920985006262e-16 1 -0 -0 -0 1 -1 -4.4408920985006262e-16 -0 
1 76.199999999999818 1.6919798895287345e-14 0 -0 -0 1 -1 -4.4408920985006262e-16 -0 -4.4408920985006262e-16 1 -0 
1 76.199999999999818 1.6919798895287345e-14 2362.1999999999998 -0 -0 1 -1 -4.4408920985006262e-16 -0 -4.4408920985006262e-16 1 -0 
Triangulations 0

TShapes 171
Ve
1e-07
2.70716782324598e-13 -1219.2 38.1
0 0

0101101
*
Ve
1e-07
2.70716782324598e-13 -1219.2 0
0 0

0101101
*
Ed
 1e-07 1 1 0
1  1 0 0 38.1
0

0101000
-171 5 +170 5 *
Ve
1e-07
88.9000000000003 -1219.2 38.1
0 0

0101101
*
Ed
 1e-07 1 1 0
1  2 0 0 88.9
0

0101000
-168 5 +171 5 *
Ve
1e-07
88.9000000000003 -1219.2 0
0 0

0101101
*
Ed
 1e-07 1 1 0
1  3 0 0 38.1
0

0101000
-168 5 +166 5 *
Ed
 1e-07 1 1 0
1  4 0 0 88.9
0

0101000
-166 5 +170 5 *
Wi

0101100
-169 0 -167 0 +165 0 +164 0 *
Fa
0  1e-07 1 0

0111000
+163 0 *
Ve
1e-07
0 0 38.1
0 0

0101101
*
Ve
1e-07
0 0 0
0 0

0101101
*
Ed
 1e-07 1 1 0
1  5 0 0 38.1
0

0101000
-161 5 +160 5 *
Ve
1e-07
88.9 0 38.1
0 0

0101101
*
Ed
 1e-07 1 1 0
1  6 0 0 88.9
0

0101000
-158 5 +161 5 *
Ve
1e-07
88.9 0 0
0 0

0101101
*
Ed
 1e-07 1 1 0
1  7 0 0 38.1
0

0101000
-158 5 +156 5 *
Ed
 1e-07 1 1 0
1  8 0 0 88.9
0

0101000
-156 5 +160 5 *
Wi

0101100
-159 0 -157 0 +155 0 +154 0 *
Fa
0  1e-07 2 0

0111000
+153 0 *
Ed
 1e-07 1 1 0
1  9 0 0 1219.2
0

0101000
-160 5 +170 5 *
Ed
 1e-07 1 1 0
1  10 0 0 1219.2
0

0101000
-161 5 +171 5 *
Wi

0101100
-151 0 -159 0 +150 0 +169 0 *
Fa
0  1e-07 3 0

0111000
+149 0 *
Ed
 1e-07 1 1 0
1  11 0 0 1219.2
0

0101000
-156 5 +166 5 *
Ed
 1e-07 1 1 0
1  12 0 0 1219.2
0

0101000
-158 5 +168 5 *
Wi

0101100
-147 0 -155 0 +146 0 +165 0 *
Fa
0  1e-07 4 0

0111000
+145 0 *
Wi

0101100
-164 0 -147 0 +154 0 +151 0 *
Fa
0  1e-07 5 0

0111000
+143 0 *
Wi

0101100
-167 0 -146 0 +157 0 +150 0 *
Fa
0  1e-07 6 0

0111000
+141 0 *
Sh

0101100
+162 0 -152 0 +148 0 -144 0 +142 0 -140 0 *
So

0100000
+139 0 *
Ve
1e-07
2.70716782324598e-13 -1219.2 2438.4
0 0

0101101
*
Ve
1e-07
2.70716782324598e-13 -1219.2 2400.3
0 0

0101101
*
Ed
 1e-07 1 1 0
1  13 0 0 38.1
0

0101000
-137 7 +136 7 *
Ve
1e-07
88.9000000000003 -1219.2 2438.4
0 0

0101101
*
Ed
 1e-07 1 1 0
1  14 0 0 88.9
0

0101000
-134 7 +137 7 *
Ve
1e-07
88.9000000000003 -1219.2 2400.3
0 0

0101101
*
Ed
 1e-07 1 1 0
1  15 0 0 38.1
0

0101000
-134 7 +132 7 *
Ed
 1e-07 1 1 0
1  16 0 0 88.9
0

0101000
-132 7 +136 7 *
Wi

0101100
-135 0 -133 0 +131 0 +130 0 *
Fa
0  1e-07 7 0

0111000
+129 0 *
Ve
1e-07
0 0 2438.4
0 0

0101101
*
Ve
1e-07
0 0 2400.3
0 0

0101101
*
Ed
 1e-07 1 1 0
1  17 0 0 38.1
0

0101000
-127 7 +126 7 *
Ve
1e-07
88.9 0 2438.4
0 0

0101101
*
Ed
 1e-07 1 1 0
1  18 0 0 88.9
0

0101000
-124 7 +127 7 *
Ve
1e-07
88.9 0 2400.3
0 0

0101101
*
Ed
 1e-07 1 1 0
1  19 0 0 38.1
0

0101000
-124 7 +122 7 *
Ed
 1e-07 1 1 0
1  20 0 0 88.9
0

0101000
-122 7 +126 7 *
Wi

0101100
-125 0 -123 0 +121 0 +120 0 *
Fa
0  1e-07 8 0

0111000
+119 0 *
Ed
 1e-07 1 1 0
1  21 0 0 1219.2
0

0101000
-126 7 +136 7 *
Ed
 1e-07 1 1 0
1  22 0 0 1219.2
0

0101000
-127 7 +137 7 *
Wi

0101100
-117 0 -125 0 +116 0 +135 0 *
Fa
0  1e-07 9 0

0111000
+115 0 *
Ed
 1e-07 1 1 0
1  23 0 0 1219.2
0

0101000
-122 7 +132 7 *
Ed
 1e-07 1 1 0
1  24 0 0 1219.2
0

0101000
-124 7 +134 7 *
Wi

0101100
-113 0 -121 0 +112 0 +131 0 *
Fa
0  1e-07 10 0

0111000
+111 0 *
Wi

0101100
-130 0 -113 0 +120 0 +117 0 *
Fa
0  1e-07 11 0

0111000
+109 0 *
Wi

0101100
-133 0 -112 0 +123 0 +116 0 *
Fa
0  1e-07 12 0

0111000
+107 0 *
Sh

0101100
+128 0 -118 0 +114 0 -110 0 +108 0 -106 0 *
So

0100000
+105 0 *
Ve
1e-07
2.70716782324598e-13 -1219.2 2400.3
0 0

0101101
*
Ve
1e-07
2.70716782324598e-13 -1219.2 38.1
0 0

0101101
*
Ed
 1e-07 1 1 0
1  25 0 0 2362.2
0

0101000
-103 9 +102 9 *
Ve
1e-07
88.9000000000003 -1219.2 2400.3
0 0

0101101
*
Ed
 1e-07 1 1 0
1  26 0 0 88.9
0

0101000
-100 9 +103 9 *
Ve
1e-07
88.9000000000003 -1219.2 38.1
0 0

0101101
*
Ed
 1e-07 1 1 0
1  27 0 0 2362.2
0

0101000
-100 9 +98 9 *
Ed
 1e-07 1 1 0
1  28 0 0 88.9
0

0101000
-98 9 +102 9 *
Wi

0101100
-101 0 -99 0 +97 0 +96 0 *
Fa
0  1e-07 13 0

0111000
+95 0 *
Ve
1e-07
2.62256882876954e-13 -1181.1 2400.3
0 0

0101101
*
Ve
1e-07
2.62256882876954e-13 -1181.1 38.1
0 0

0101101
*
Ed
 1e-07 1 1 0
1  29 0 0 2362.2
0

0101000
-93 9 +92 9 *
Ve
1e-07
88.9000000000002 -1181.1 2400.3
0 0

0101101
*
Ed
 1e-07 1 1 0
1  30 0 0 88.9
0

0101000
-90 9 +93 9 *
Ve
1e-07
88.9000000000002 -1181.1 38.1
0 0

0101101
*
Ed
 1e-07 1 1 0
1  31 0 0 2362.2
0

0101000
-90 9 +88 9 *
Ed
 1e-07 1 1 0
1  32 0 0 88.9
0

0101000
-88 9 +92 9 *
Wi

0101100
-91 0 -89 0 +87 0 +86 0 *
Fa
0  1e-07 14 0

0111000
+85 0 *
Ed
 1e-07 1 1 0
1  33 0 0 38.1
0

0101000
-92 9 +102 9 *
Ed
 1e-07 1 1 0
1  34 0 0 38.1
0

0101000
-93 9 +103 9 *
Wi

0101100
-83 0 -91 0 +82 0 +101 0 *
Fa
0  1e-07 15 0

0111000
+81 0 *
Ed
 1e-07 1 1 0
1  35 0 0 38.1
0

0101000
-88 9 +98 9 *
Ed
 1e-07 1 1 0
1  36 0 0 38.1
0

0101000
-90 9 +100 9 *
Wi

0101100
-79 0 -87 0 +78 0 +97 0 *
Fa
0  1e-07 16 0

0111000
+77 0 *
Wi

0101100
-96 0 -79 0 +86 0 +83 0 *
Fa
0  1e-07 17 0

0111000
+75 0 *
Wi

0101100
-99 0 -78 0 +89 0 +82 0 *
Fa
0  1e-07 18 0

0111000
+73 0 *
Sh

0101100
+94 0 -84 0 +80 0 -76 0 +74 0 -72 0 *
So

0100000
+71 0 *
Ve
1e-07
1.35358391162299e-13 -609.6 2400.3
0 0

0101101
*
Ve
1e-07
1.35358391162299e-13 -609.6 38.1
0 0

0101101
*
Ed
 1e-07 1 1 0
1  37 0 0 2362.2
0

0101000
-69 11 +68 11 *
Ve
1e-07
88.9000000000001 -609.6 2400.3
0 0

0101101
*
Ed
 1e-07 1 1 0
1  38 0 0 88.9
0

0101000
-66 11 +69 11 *
Ve
1e-07
88.9000000000001 -609.6 38.1
0 0

0101101
*
Ed
 1e-07 1 1 0
1  39 0 0 2362.2
0

0101000
-66 11 +64 11 *
Ed
 1e-07 1 1 0
1  40 0 0 88.9
0

0101000
-64 11 +68 11 *
Wi

0101100
-67 0 -65 0 +63 0 +62 0 *
Fa
0  1e-07 19 0

0111000
+61 0 *
Ve
1e-07
1.26898491714655e-13 -571.5 2400.3
0 0

0101101
*
Ve
1e-07
1.26898491714655e-13 -571.5 38.1
0 0

0101101
*
Ed
 1e-07 1 1 0
1  41 0 0 2362.2
0

0101000
-59 11 +58 11 *
Ve
1e-07
88.9000000000001 -571.5 2400.3
0 0

0101101
*
Ed
 1e-07 1 1 0
1  42 0 0 88.9
0

0101000
-56 11 +59 11 *
Ve
1e-07
88.9000000000001 -571.5 38.1
0 0

0101101
*
Ed
 1e-07 1 1 0
1  43 0 0 2362.2
0

0101000
-56 11 +54 11 *
Ed
 1e-07 1 1 0
1  44 0 0 88.9
0

0101000
-54 11 +58 11 *
Wi

0101100
-57 0 -55 0 +53 0 +52 0 *
Fa
0  1e-07 20 0

0111000
+51 0 *
Ed
 1e-07 1 1 0
1  45 0 0 38.1
0

0101000
-58 11 +68 11 *
Ed
 1e-07 1 1 0
1  46 0 0 38.1
0

0101000
-59 11 +69 11 *
Wi

0101100
-49 0 -57 0 +48 0 +67 0 *
Fa
0  1e-07 21 0

0111000
+47 0 *
Ed
 1e-07 1 1 0
1  47 0 0 38.1
0

0101000
-54 11 +64 11 *
Ed
 1e-07 1 1 0
1  48 0 0 38.1
0

0101000
-56 11 +66 11 *
Wi

0101100
-45 0 -53 0 +44 0 +63 0 *
Fa
0  1e-07 22 0

0111000
+43 0 *
Wi

0101100
-62 0 -45 0 +52 0 +49 0 *
Fa
0  1e-07 23 0

0111000
+41 0 *
Wi

0101100
-65 0 -44 0 +55 0 +48 0 *
Fa
0  1e-07 24 0

0111000
+39 0 *
Sh

0101100
+60 0 -50 0 +46 0 -42 0 +40 0 -38 0 *
So

0100000
+37 0 *
Ve
1e-07
8.45989944764367e-15 -38.0999999999999 2400.3
0 0

0101101
*
Ve
1e-07
8.45989944764367e-15 -38.0999999999999 38.1
0 0

0101101
*
Ed
 1e-07 1 1 0
1  49 0 0 2362.2
0

0101000
-35 13 +34 13 *
Ve
1e-07
88.9 -38.0999999999999 2400.3
0 0

0101101
*
Ed
 1e-07 1 1 0
1  50 0 0 88.9
0

0101000
-32 13 +35 13 *
Ve
1e-07
88.9 -38.0999999999999 38.1
0 0

0101101
*
Ed
 1e-07 1 1 0
1  51 0 0 2362.2
0

0101000
-32 13 +30 13 *
Ed
 1e-07 1 1 0
1  52 0 0 88.9
0

0101000
-30 13 +34 13 *
Wi

0101100
-33 0 -31 0 +29 0 +28 0 *
Fa
0  1e-07 25 0

0111000
+27 0 *
Ve
1e-07
0 0 2400.3
0 0

0101101
*
Ve
1e-07
0 0 38.1
0 0

0101101
*
Ed
 1e-07 1 1 0
1  53 0 0 2362.2
0

0101000
-25 13 +24 13 *
Ve
1e-07
88.9 0 2400.3
0 0

0101101
*
Ed
 1e-07 1 1 0
1  54 0 0 88.9
0

0101000
-22 13 +25 13 *
Ve
1e-07
88.9 0 38.1
0 0

0101101
*
Ed
 1e-07 1 1 0
1  55 0 0 2362.2
0

0101000
-22 13 +20 13 *
Ed
 1e-07 1 1 0
1  56 0 0 88.9
0

0101000
-20 13 +24 13 *
Wi

0101100
-23 0 -21 0 +19 0 +18 0 *
Fa
0  1e-07 26 0

0111000
+17 0 *
Ed
 1e-07 1 1 0
1  57 0 0 38.1
0

0101000
-24 13 +34 13 *
Ed
 1e-07 1 1 0
1  58 0 0 38.1
0

0101000
-25 13 +35 13 *
Wi

0101100
-15 0 -23 0 +14 0 +33 0 *
Fa
0  1e-07 27 0

0111000
+13 0 *
Ed
 1e-07 1 1 0
1  59 0 0 38.1
0

0101000
-20 13 +30 13 *
Ed
 1e-07 1 1 0
1  60 0 0 38.1
0

0101000
-22 13 +32 13 *
Wi

0101100
-11 0 -19 0 +10 0 +29 0 *
Fa
0  1e-07 28 0

0111000
+9 0 *
Wi

0101100
-28 0 -11 0 +18 0 +15 0 *
Fa
0  1e-07 29 0

0111000
+7 0 *
Wi

0101100
-31 0 -10 0 +21 0 +14 0 *
Fa
0  1e-07 30 0

0111000
+5 0 *
Sh

0101100
+26 0 -16 0 +12 0 -8 0 +6 0 -4 0 *
So

0100000
+3 0 *
Co

1100000
+138 0 +104 6 +70 8 +36 10 +2 12 *

+1 4 