DBRep_DrawableShape

CASCADE Topology V1, (c) Matra-Datavision
Locations 35
1
              1               0               0               0 
              0               1               0               0 
              0               0               1               0 
1
              1               0               0               0 
              0               1               0               0 
              0               0               1               0 
1
              1               0               0              -0 
              0               1               0         11.1125 
              0               0               1              -0 
2  1 1 2 1 3 1 0
1
              1               0               0               0 
              0               1               0               0 
              0               0               1               0 
2  3 -1 2 -1 1 -1 5 -1 0
1
              1               0               0               0 
              0               1               0               0 
              0               0               1          3009.9 
2  3 -1 2 -1 1 -1 7 -1 0
1
              1               0               0               0 
              0               1               0               0 
              0               0               1            38.1 
2  3 -1 2 -1 1 -1 9 -1 0
1
              1               0               0          1181.1 
              0               1               0               0 
              0               0               1            38.1 
2  3 -1 2 -1 1 -1 11 -1 0
1
              1               0               0           114.3 
              0               1               0               0 
              0               0               1            38.1 
2  3 -1 2 -1 1 -1 13 -1 0
1
              1               0               0          1066.8 
              0               1               0               0 
              0               0               1            38.1 
2  3 -1 2 -1 1 -1 15 -1 0
1
              1               0               0           114.3 
              0               1               0               0 
              0               0               1          1828.8 
2  3 -1 2 -1 1 -1 17 -1 0
1
              1               0               0           406.4 
              0               1               0               0 
              0               0               1         2012.95 
2  3 -1 2 -1 1 -1 19 -1 0
1
              1               0               0           812.8 
              0               1               0               0 
              0               0               1         2012.95 
2  3 -1 2 -1 1 -1 21 -1 0
1
              1               0               0           152.4 
              0               1               0               0 
              0               0               1           571.5 
2  3 -1 2 -1 1 -1 23 -1 0
1
              1               0               0           406.4 
              0               1               0               0 
              0               0               1            38.1 
2  3 -1 2 -1 1 -1 25 -1 0
1
              1               0               0           812.8 
              0               1               0               0 
              0               0               1            38.1 
2  3 -1 2 -1 1 -1 27 -1 0
1
              1               0               0           152.4 
              0               1               0               0 
              0               0               1            38.1 
2  3 -1 2 -1 1 -1 29 -1 0
1
              1               0               0               0 
              0               1               0        -11.1125 
              0               0               1               0 
2  3 -1 2 -1 1 -1 31 -1 0
2  3 -1 2 -1 1 -1 0
1
              1               0               0           152.4 
              0               1               0        -12.1125 
              0               0               1           609.6 
2  3 -1 2 -1 1 -1 34 -1 0
Curve2ds 0
Curves 180
1 0 -22.224999999999998 0 -0 -0 1 
1 0 -22.224999999999998 38.099999999999994 -0 -1 -0 
1 0 -161.92499999999998 0 -0 -0 1 
1 0 -22.224999999999998 0 -0 -1 -0 
1 1219.1999999999998 -22.224999999999998 0 -0 -0 1 
1 1219.1999999999998 -22.224999999999998 38.099999999999994 -0 -1 -0 
1 1219.1999999999998 -161.92499999999998 0 -0 -0 1 
1 1219.1999999999998 -22.224999999999998 0 -0 -1 -0 
1 0 -22.224999999999998 0 1 -0 -0 
1 0 -22.224999999999998 38.099999999999994 1 -0 -0 
1 0 -161.92499999999998 0 1 -0 -0 
1 0 -161.92499999999998 38.099999999999994 1 -0 -0 
1 0 -22.224999999999998 0 -0 -0 1 
1 0 -22.224999999999998 38.099999999999994 -0 -1 -0 
1 0 -161.92499999999998 0 -0 -0 1 
1 0 -22.224999999999998 0 -0 -1 -0 
1 1219.1999999999998 -22.224999999999998 0 -0 -0 1 
1 1219.1999999999998 -22.224999999999998 38.099999999999994 -0 -1 -0 
1 1219.1999999999998 -161.92499999999998 0 -0 -0 1 
1 1219.1999999999998 -22.224999999999998 0 -0 -1 -0 
1 0 -22.224999999999998 0 1 -0 -0 
1 0 -22.224999999999998 38.099999999999994 1 -0 -0 
1 0 -161.92499999999998 0 1 -0 -0 
1 0 -161.92499999999998 38.099999999999994 1 -0 -0 
1 0 -22.224999999999998 0 -0 -0 1 
1 0 -22.224999999999998 2971.8000000000002 -0 -1 -0 
1 0 -161.92499999999998 0 -0 -0 1 
1 0 -22.224999999999998 0 -0 -1 -0 
1 38.099999999999994 -22.224999999999998 0 -0 -0 1 
1 38.099999999999994 -22.224999999999998 2971.8000000000002 -0 -1 -0 
1 38.099999999999994 -161.92499999999998 0 -0 -0 1 
1 38.099999999999994 -22.224999999999998 0 -0 -1 -0 
1 0 -22.224999999999998 0 1 -0 -0 
1 0 -22.224999999999998 2971.8000000000002 1 -0 -0 
1 0 -161.92499999999998 0 1 -0 -0 
1 0 -161.92499999999998 2971.8000000000002 1 -0 -0 
1 0 -22.224999999999998 0 -0 -0 1 
1 0 -22.224999999999998 2971.8000000000002 -0 -1 -0 
1 0 -161.92499999999998 0 -0 -0 1 
1 0 -22.224999999999998 0 -0 -1 -0 
1 38.099999999999994 -22.224999999999998 0 -0 -0 1 
1 38.099999999999994 -22.224999999999998 2971.8000000000002 -0 -1 -0 
1 38.099999999999994 -161.92499999999998 0 -0 -0 1 
1 38.099999999999994 -22.224999999999998 0 -0 -1 -0 
1 0 -22.224999999999998 0 1 -0 -0 
1 0 -22.224999999999998 2971.8000000000002 1 -0 -0 
1 0 -161.92499999999998 0 1 -0 -0 
1 0 -161.92499999999998 2971.8000000000002 1 -0 -0 
1 0 -22.224999999999998 0 -0 -0 1 
1 0 -22.224999999999998 1790.6999999999998 -0 -1 -0 
1 0 -161.92499999999998 0 -0 -0 1 
1 0 -22.224999999999998 0 -0 -1 -0 
1 38.099999999999994 -22.224999999999998 0 -0 -0 1 
1 38.099999999999994 -22.224999999999998 1790.6999999999998 -0 -1 -0 
1 38.099999999999994 -161.92499999999998 0 -0 -0 1 
1 38.099999999999994 -22.224999999999998 0 -0 -1 -0 
1 0 -22.224999999999998 0 1 -0 -0 
1 0 -22.224999999999998 1790.6999999999998 1 -0 -0 
1 0 -161.92499999999998 0 1 -0 -0 
1 0 -161.92499999999998 1790.6999999999998 1 -0 -0 
1 0 -22.224999999999998 0 -0 -0 1 
1 0 -22.224999999999998 1790.6999999999998 -0 -1 -0 
1 0 -161.92499999999998 0 -0 -0 1 
1 0 -22.224999999999998 0 -0 -1 -0 
1 38.099999999999994 -22.224999999999998 0 -0 -0 1 
1 38.099999999999994 -22.224999999999998 1790.6999999999998 -0 -1 -0 
1 38.099999999999994 -161.92499999999998 0 -0 -0 1 
1 38.099999999999994 -22.224999999999998 0 -0 -1 -0 
1 0 -22.224999999999998 0 1 -0 -0 
1 0 -22.224999999999998 1790.6999999999998 1 -0 -0 
1 0 -161.92499999999998 0 1 -0 -0 
1 0 -161.92499999999998 1790.6999999999998 1 -0 -0 
1 0 -22.224999999999998 0 -0 -0 1 
1 0 -22.224999999999998 184.14999999999998 -0 -1 -0 
1 0 -161.92499999999998 0 -0 -0 1 
1 0 -22.224999999999998 0 -0 -1 -0 
1 990.59999999999991 -22.224999999999998 0 -0 -0 1 
1 990.59999999999991 -22.224999999999998 184.14999999999998 -0 -1 -0 
1 990.59999999999991 -161.92499999999998 0 -0 -0 1 
1 990.59999999999991 -22.224999999999998 0 -0 -1 -0 
1 0 -22.224999999999998 0 1 -0 -0 
1 0 -22.224999999999998 184.14999999999998 1 -0 -0 
1 0 -161.92499999999998 0 1 -0 -0 
1 0 -161.92499999999998 184.14999999999998 1 -0 -0 
1 0 -22.224999999999998 0 -0 -0 1 
1 0 -22.224999999999998 996.95000000000027 -0 -1 -0 
1 0 -161.92499999999998 0 -0 -0 1 
1 0 -22.224999999999998 0 -0 -1 -0 
1 38.099999999999994 -22.224999999999998 0 -0 -0 1 
1 38.099999999999994 -22.224999999999998 996.95000000000027 -0 -1 -0 
1 38.099999999999994 -161.92499999999998 0 -0 -0 1 
1 38.099999999999994 -22.224999999999998 0 -0 -1 -0 
1 0 -22.224999999999998 0 1 -0 -0 
1 0 -22.224999999999998 996.95000000000027 1 -0 -0 
1 0 -161.92499999999998 0 1 -0 -0 
1 0 -161.92499999999998 996.95000000000027 1 -0 -0 
1 0 -22.224999999999998 0 -0 -0 1 
1 0 -22.224999999999998 996.95000000000027 -0 -1 -0 
1 0 -161.92499999999998 0 -0 -0 1 
1 0 -22.224999999999998 0 -0 -1 -0 
1 38.099999999999994 -22.224999999999998 0 -0 -0 1 
1 38.099999999999994 -22.224999999999998 996.95000000000027 -0 -1 -0 
1 38.099999999999994 -161.92499999999998 0 -0 -0 1 
1 38.099999999999994 -22.224999999999998 0 -0 -1 -0 
1 0 -22.224999999999998 0 1 -0 -0 
1 0 -22.224999999999998 996.95000000000027 1 -0 -0 
1 0 -161.92499999999998 0 1 -0 -0 
1 0 -161.92499999999998 996.95000000000027 1 -0 -0 
1 0 -22.224999999999998 0 -0 -0 1 
1 0 -22.224999999999998 38.099999999999994 -0 -1 -0 
1 0 -161.92499999999998 0 -0 -0 1 
1 0 -22.224999999999998 0 -0 -1 -0 
1 914.39999999999998 -22.224999999999998 0 -0 -0 1 
1 914.39999999999998 -22.224999999999998 38.099999999999994 -0 -1 -0 
1 914.39999999999998 -161.92499999999998 0 -0 -0 1 
1 914.39999999999998 -22.224999999999998 0 -0 -1 -0 
1 0 -22.224999999999998 0 1 -0 -0 
1 0 -22.224999999999998 38.099999999999994 1 -0 -0 
1 0 -161.92499999999998 0 1 -0 -0 
1 0 -161.92499999999998 38.099999999999994 1 -0 -0 
1 0 -22.224999999999998 0 -0 -0 1 
1 0 -22.224999999999998 533.39999999999986 -0 -1 -0 
1 0 -161.92499999999998 0 -0 -0 1 
1 0 -22.224999999999998 0 -0 -1 -0 
1 38.099999999999994 -22.224999999999998 0 -0 -0 1 
1 38.099999999999994 -22.224999999999998 533.39999999999986 -0 -1 -0 
1 38.099999999999994 -161.92499999999998 0 -0 -0 1 
1 38.099999999999994 -22.224999999999998 0 -0 -1 -0 
1 0 -22.224999999999998 0 1 -0 -0 
1 0 -22.224999999999998 533.39999999999986 1 -0 -0 
1 0 -161.92499999999998 0 1 -0 -0 
1 0 -161.92499999999998 533.39999999999986 1 -0 -0 
1 0 -22.224999999999998 0 -0 -0 1 
1 0 -22.224999999999998 533.39999999999986 -0 -1 -0 
1 0 -161.92499999999998 0 -0 -0 1 
1 0 -22.224999999999998 0 -0 -1 -0 
1 38.099999999999994 -22.224999999999998 0 -0 -0 1 
1 38.099999999999994 -22.224999999999998 533.39999999999986 -0 -1 -0 
1 38.099999999999994 -161.92499999999998 0 -0 -0 1 
1 38.099999999999994 -22.224999999999998 0 -0 -1 -0 
1 0 -22.224999999999998 0 1 -0 -0 
1 0 -22.224999999999998 533.39999999999986 1 -0 -0 
1 0 -161.92499999999998 0 1 -0 -0 
1 0 -161.92499999999998 533.39999999999986 1 -0 -0 
1 0 -22.224999999999998 0 -0 -0 1 
1 0 -22.224999999999998 38.099999999999994 -0 -1 -0 
1 0 -161.92499999999998 0 -0 -0 1 
1 0 -22.224999999999998 0 -0 -1 -0 
1 914.39999999999998 -22.224999999999998 0 -0 -0 1 
1 914.39999999999998 -22.224999999999998 38.099999999999994 -0 -1 -0 
1 914.39999999999998 -161.92499999999998 0 -0 -0 1 
1 914.39999999999998 -22.224999999999998 0 -0 -1 -0 
1 0 -22.224999999999998 0 1 -0 -0 
1 0 -22.224999999999998 38.099999999999994 1 -0 -0 
1 0 -161.92499999999998 0 1 -0 -0 
1 0 -161.92499999999998 38.099999999999994 1 -0 -0 
1 0 0 0 -0 -0 1 
1 0 0 3048 -0 -1 -0 
1 0 -11.112499999999999 0 -0 -0 1 
1 0 0 0 -0 -1 -0 
1 0 0 0 1 -0 -0 
1 1219.1999999999998 0 0 -0 -0 1 
1 0 0 3048 1 -0 -0 
1 76.19999999999996 -11.112499999999999 1828.7999999999997 1 -0 -0 
1 1066.8 -11.112499999999999 304.79999999999995 -0 -0 -1 
1 76.19999999999996 -11.112499999999999 609.59999999999991 1 -0 -0 
1 152.39999999999992 -11.112499999999999 304.79999999999995 -0 -0 -1 
1 0 -11.112499999999999 3048 1 -0 -0 
1 1219.1999999999998 0 3048 -0 -1 -0 
1 0 -11.112499999999999 0 1 -0 -0 
1 1219.1999999999998 -11.112499999999999 0 -0 -0 1 
1 76.19999999999996 -22.224999999999998 1828.7999999999997 1 -0 -0 
1 1066.8 -22.224999999999998 304.79999999999995 -0 -0 -1 
1 76.19999999999996 -22.224999999999998 609.59999999999991 1 -0 -0 
1 152.39999999999992 -22.224999999999998 304.79999999999995 -0 -0 -1 
1 1219.1999999999998 0 0 -0 -1 -0 
1 0 2 1219.1999999999998 -0 -1 -0 
1 914.39999999999998 2 1219.1999999999998 -0 -1 -0 
1 914.39999999999998 2 0 -0 -1 -0 
1 0 2 0 -0 -1 -0 
Polygon3D 0
PolygonOnTriangulations 0
Surfaces 88
1 0 -22.224999999999998 0 1 -0 -0 -0 -0 1 -0 1 -0 
1 1219.1999999999998 -22.224999999999998 0 1 -0 -0 -0 -0 1 -0 1 -0 
1 0 -22.224999999999998 0 -0 -1 -0 -0 -0 1 1 -0 -0 
1 0 -161.92499999999998 0 -0 -1 -0 -0 -0 1 1 -0 -0 
1 0 -22.224999999999998 0 -0 -0 1 1 -0 -0 -0 -1 -0 
1 0 -22.224999999999998 38.099999999999994 -0 -0 1 1 -0 -0 -0 -1 -0 
1 0 -22.224999999999998 0 1 -0 -0 -0 -0 1 -0 1 -0 
1 1219.1999999999998 -22.224999999999998 0 1 -0 -0 -0 -0 1 -0 1 -0 
1 0 -22.224999999999998 0 -0 -1 -0 -0 -0 1 1 -0 -0 
1 0 -161.92499999999998 0 -0 -1 -0 -0 -0 1 1 -0 -0 
1 0 -22.224999999999998 0 -0 -0 1 1 -0 -0 -0 -1 -0 
1 0 -22.224999999999998 38.099999999999994 -0 -0 1 1 -0 -0 -0 -1 -0 
1 0 -22.224999999999998 0 1 -0 -0 -0 -0 1 -0 1 -0 
1 38.099999999999994 -22.224999999999998 0 1 -0 -0 -0 -0 1 -0 1 -0 
1 0 -22.224999999999998 0 -0 -1 -0 -0 -0 1 1 -0 -0 
1 0 -161.92499999999998 0 -0 -1 -0 -0 -0 1 1 -0 -0 
1 0 -22.224999999999998 0 -0 -0 1 1 -0 -0 -0 -1 -0 
1 0 -22.224999999999998 2971.8000000000002 -0 -0 1 1 -0 -0 -0 -1 -0 
1 0 -22.224999999999998 0 1 -0 -0 -0 -0 1 -0 1 -0 
1 38.099999999999994 -22.224999999999998 0 1 -0 -0 -0 -0 1 -0 1 -0 
1 0 -22.224999999999998 0 -0 -1 -0 -0 -0 1 1 -0 -0 
1 0 -161.92499999999998 0 -0 -1 -0 -0 -0 1 1 -0 -0 
1 0 -22.224999999999998 0 -0 -0 1 1 -0 -0 -0 -1 -0 
1 0 -22.224999999999998 2971.8000000000002 -0 -0 1 1 -0 -0 -0 -1 -0 
1 0 -22.224999999999998 0 1 -0 -0 -0 -0 1 -0 1 -0 
1 38.099999999999994 -22.224999999999998 0 1 -0 -0 -0 -0 1 -0 1 -0 
1 0 -22.224999999999998 0 -0 -1 -0 -0 -0 1 1 -0 -0 
1 0 -161.92499999999998 0 -0 -1 -0 -0 -0 1 1 -0 -0 
1 0 -22.224999999999998 0 -0 -0 1 1 -0 -0 -0 -1 -0 
1 0 -22.224999999999998 1790.6999999999998 -0 -0 1 1 -0 -0 -0 -1 -0 
1 0 -22.224999999999998 0 1 -0 -0 -0 -0 1 -0 1 -0 
1 38.099999999999994 -22.224999999999998 0 1 -0 -0 -0 -0 1 -0 1 -0 
1 0 -22.224999999999998 0 -0 -1 -0 -0 -0 1 1 -0 -0 
1 0 -161.92499999999998 0 -0 -1 -0 -0 -0 1 1 -0 -0 
1 0 -22.224999999999998 0 -0 -0 1 1 -0 -0 -0 -1 -0 
1 0 -22.224999999999998 1790.6999999999998 -0 -0 1 1 -0 -0 -0 -1 -0 
1 0 -22.224999999999998 0 1 -0 -0 -0 -0 1 -0 1 -0 
1 990.59999999999991 -22.224999999999998 0 1 -0 -0 -0 -0 1 -0 1 -0 
1 0 -22.224999999999998 0 -0 -1 -0 -0 -0 1 1 -0 -0 
1 0 -161.92499999999998 0 -0 -1 -0 -0 -0 1 1 -0 -0 
1 0 -22.224999999999998 0 -0 -0 1 1 -0 -0 -0 -1 -0 
1 0 -22.224999999999998 184.14999999999998 -0 -0 1 1 -0 -0 -0 -1 -0 
1 0 -22.224999999999998 0 1 -0 -0 -0 -0 1 -0 1 -0 
1 38.099999999999994 -22.224999999999998 0 1 -0 -0 -0 -0 1 -0 1 -0 
1 0 -22.224999999999998 0 -0 -1 -0 -0 -0 1 1 -0 -0 
1 0 -161.92499999999998 0 -0 -1 -0 -0 -0 1 1 -0 -0 
1 0 -22.224999999999998 0 -0 -0 1 1 -0 -0 -0 -1 -0 
1 0 -22.224999999999998 996.95000000000027 -0 -0 1 1 -0 -0 -0 -1 -0 
1 0 -22.224999999999998 0 1 -0 -0 -0 -0 1 -0 1 -0 
1 38.099999999999994 -22.224999999999998 0 1 -0 -0 -0 -0 1 -0 1 -0 
1 0 -22.224999999999998 0 -0 -1 -0 -0 -0 1 1 -0 -0 
1 0 -161.92499999999998 0 -0 -1 -0 -0 -0 1 1 -0 -0 
1 0 -22.224999999999998 0 -0 -0 1 1 -0 -0 -0 -1 -0 
1 0 -22.224999999999998 996.95000000000027 -0 -0 1 1 -0 -0 -0 -1 -0 
1 0 -22.224999999999998 0 1 -0 -0 -0 -0 1 -0 1 -0 
1 914.39999999999998 -22.224999999999998 0 1 -0 -0 -0 -0 1 -0 1 -0 
1 0 -22.224999999999998 0 -0 -1 -0 -0 -0 1 1 -0 -0 
1 0 -161.92499999999998 0 -0 -1 -0 -0 -0 1 1 -0 -0 
1 0 -22.224999999999998 0 -0 -0 1 1 -0 -0 -0 -1 -0 
1 0 -22.224999999999998 38.099999999999994 -0 -0 1 1 -0 -0 -0 -1 -0 
1 0 -22.224999999999998 0 1 -0 -0 -0 -0 1 -0 1 -0 
1 38.099999999999994 -22.224999999999998 0 1 -0 -0 -0 -0 1 -0 1 -0 
1 0 -22.224999999999998 0 -0 -1 -0 -0 -0 1 1 -0 -0 
1 0 -161.92499999999998 0 -0 -1 -0 -0 -0 1 1 -0 -0 
1 0 -22.224999999999998 0 -0 -0 1 1 -0 -0 -0 -1 -0 
1 0 -22.224999999999998 533.39999999999986 -0 -0 1 1 -0 -0 -0 -1 -0 
1 0 -22.224999999999998 0 1 -0 -0 -0 -0 1 -0 1 -0 
1 38.099999999999994 -22.224999999999998 0 1 -0 -0 -0 -0 1 -0 1 -0 
1 0 -22.224999999999998 0 -0 -1 -0 -0 -0 1 1 -0 -0 
1 0 -161.92499999999998 0 -0 -1 -0 -0 -0 1 1 -0 -0 
1 0 -22.224999999999998 0 -0 -0 1 1 -0 -0 -0 -1 -0 
1 0 -22.224999999999998 533.39999999999986 -0 -0 1 1 -0 -0 -0 -1 -0 
1 0 -22.224999999999998 0 1 -0 -0 -0 -0 1 -0 1 -0 
1 914.39999999999998 -22.224999999999998 0 1 -0 -0 -0 -0 1 -0 1 -0 
1 0 -22.224999999999998 0 -0 -1 -0 -0 -0 1 1 -0 -0 
1 0 -161.92499999999998 0 -0 -1 -0 -0 -0 1 1 -0 -0 
1 0 -22.224999999999998 0 -0 -0 1 1 -0 -0 -0 -1 -0 
1 0 -22.224999999999998 38.099999999999994 -0 -0 1 1 -0 -0 -0 -1 -0 
1 0 0 0 1 -0 -0 -0 -0 1 -0 1 -0 
1 0 0 0 -0 -1 -0 -0 -0 1 1 -0 -0 
1 0 0 3048 -0 -0 1 1 -0 -0 -0 -1 -0 
1 0 -11.112499999999999 0 -0 -1 -0 -0 -0 1 1 -0 -0 
1 0 0 0 -0 -0 1 1 -0 -0 -0 -1 -0 
1 1219.1999999999998 0 0 1 -0 -0 -0 -0 1 -0 1 -0 
1 0 2 1219.1999999999998 -0 -0 1 1 -0 -0 -0 -1 -0 
1 914.39999999999998 2 0 1 -0 -0 -0 -0 1 -0 1 -0 
1 0 2 0 -0 -0 1 1 -0 -0 -0 -1 -0 
1 0 2 0 1 -0 -0 -0 -0 1 -0 1 -0 
Triangulations 0

TShapes 508
Ve
1e-07
0 -11.1125 38.1
0 0

0101101
*
Ve
1e-07
0 -11.1125 0
0 0

0101101
*
Ed
 1e-07 1 1 0
1  1 0 0 38.1
0

0101000
-508 6 +507 6 *
Ve
1e-07
0 -150.8125 38.1
0 0

0101101
*
Ed
 1e-07 1 1 0
1  2 0 0 139.7
0

0101000
-505 6 +508 6 *
Ve
1e-07
0 -150.8125 0
0 0

0101101
*
Ed
 1e-07 1 1 0
1  3 0 0 38.1
0

0101000
-505 6 +503 6 *
Ed
 1e-07 1 1 0
1  4 0 0 139.7
0

0101000
-503 6 +507 6 *
Wi

0101100
-506 0 -504 0 +502 0 +501 0 *
Fa
0  1e-07 1 0

0111000
+500 0 *
Ve
1e-07
1219.2 -11.1125 38.1
0 0

0101101
*
Ve
1e-07
1219.2 -11.1125 0
0 0

0101101
*
Ed
 1e-07 1 1 0
1  5 0 0 38.1
0

0101000
-498 6 +497 6 *
Ve
1e-07
1219.2 -150.8125 38.1
0 0

0101101
*
Ed
 1e-07 1 1 0
1  6 0 0 139.7
0

0101000
-495 6 +498 6 *
Ve
1e-07
1219.2 -150.8125 0
0 0

0101101
*
Ed
 1e-07 1 1 0
1  7 0 0 38.1
0

0101000
-495 6 +493 6 *
Ed
 1e-07 1 1 0
1  8 0 0 139.7
0

0101000
-493 6 +497 6 *
Wi

0101100
-496 0 -494 0 +492 0 +491 0 *
Fa
0  1e-07 2 0

0111000
+490 0 *
Ed
 1e-07 1 1 0
1  9 0 0 1219.2
0

0101000
-497 6 +507 6 *
Ed
 1e-07 1 1 0
1  10 0 0 1219.2
0

0101000
-498 6 +508 6 *
Wi

0101100
-488 0 -496 0 +487 0 +506 0 *
Fa
0  1e-07 3 0

0111000
+486 0 *
Ed
 1e-07 1 1 0
1  11 0 0 1219.2
0

0101000
-493 6 +503 6 *
Ed
 1e-07 1 1 0
1  12 0 0 1219.2
0

0101000
-495 6 +505 6 *
Wi

0101100
-484 0 -492 0 +483 0 +502 0 *
Fa
0  1e-07 4 0

0111000
+482 0 *
Wi

0101100
-501 0 -484 0 +491 0 +488 0 *
Fa
0  1e-07 5 0

0111000
+480 0 *
Wi

0101100
-504 0 -483 0 +494 0 +487 0 *
Fa
0  1e-07 6 0

0111000
+478 0 *
Sh

0101100
+499 0 -489 0 +485 0 -481 0 +479 0 -477 0 *
So

0100000
+476 0 *
Ve
1e-07
0 -11.1125 3048
0 0

0101101
*
Ve
1e-07
0 -11.1125 3009.9
0 0

0101101
*
Ed
 1e-07 1 1 0
1  13 0 0 38.1
0

0101000
-474 8 +473 8 *
Ve
1e-07
0 -150.8125 3048
0 0

0101101
*
Ed
 1e-07 1 1 0
1  14 0 0 139.7
0

0101000
-471 8 +474 8 *
Ve
1e-07
0 -150.8125 3009.9
0 0

0101101
*
Ed
 1e-07 1 1 0
1  15 0 0 38.1
0

0101000
-471 8 +469 8 *
Ed
 1e-07 1 1 0
1  16 0 0 139.7
0

0101000
-469 8 +473 8 *
Wi

0101100
-472 0 -470 0 +468 0 +467 0 *
Fa
0  1e-07 7 0

0111000
+466 0 *
Ve
1e-07
1219.2 -11.1125 3048
0 0

0101101
*
Ve
1e-07
1219.2 -11.1125 3009.9
0 0

0101101
*
Ed
 1e-07 1 1 0
1  17 0 0 38.1
0

0101000
-464 8 +463 8 *
Ve
1e-07
1219.2 -150.8125 3048
0 0

0101101
*
Ed
 1e-07 1 1 0
1  18 0 0 139.7
0

0101000
-461 8 +464 8 *
Ve
1e-07
1219.2 -150.8125 3009.9
0 0

0101101
*
Ed
 1e-07 1 1 0
1  19 0 0 38.1
0

0101000
-461 8 +459 8 *
Ed
 1e-07 1 1 0
1  20 0 0 139.7
0

0101000
-459 8 +463 8 *
Wi

0101100
-462 0 -460 0 +458 0 +457 0 *
Fa
0  1e-07 8 0

0111000
+456 0 *
Ed
 1e-07 1 1 0
1  21 0 0 1219.2
0

0101000
-463 8 +473 8 *
Ed
 1e-07 1 1 0
1  22 0 0 1219.2
0

0101000
-464 8 +474 8 *
Wi

0101100
-454 0 -462 0 +453 0 +472 0 *
Fa
0  1e-07 9 0

0111000
+452 0 *
Ed
 1e-07 1 1 0
1  23 0 0 1219.2
0

0101000
-459 8 +469 8 *
Ed
 1e-07 1 1 0
1  24 0 0 1219.2
0

0101000
-461 8 +471 8 *
Wi

0101100
-450 0 -458 0 +449 0 +468 0 *
Fa
0  1e-07 10 0

0111000
+448 0 *
Wi

0101100
-467 0 -450 0 +457 0 +454 0 *
Fa
0  1e-07 11 0

0111000
+446 0 *
Wi

0101100
-470 0 -449 0 +460 0 +453 0 *
Fa
0  1e-07 12 0

0111000
+444 0 *
Sh

0101100
+465 0 -455 0 +451 0 -447 0 +445 0 -443 0 *
So

0100000
+442 0 *
Ve
1e-07
0 -11.1125 3009.9
0 0

0101101
*
Ve
1e-07
0 -11.1125 38.1
0 0

0101101
*
Ed
 1e-07 1 1 0
1  25 0 0 2971.8
0

0101000
-440 10 +439 10 *
Ve
1e-07
0 -150.8125 3009.9
0 0

0101101
*
Ed
 1e-07 1 1 0
1  26 0 0 139.7
0

0101000
-437 10 +440 10 *
Ve
1e-07
0 -150.8125 38.1
0 0

0101101
*
Ed
 1e-07 1 1 0
1  27 0 0 2971.8
0

0101000
-437 10 +435 10 *
Ed
 1e-07 1 1 0
1  28 0 0 139.7
0

0101000
-435 10 +439 10 *
Wi

0101100
-438 0 -436 0 +434 0 +433 0 *
Fa
0  1e-07 13 0

0111000
+432 0 *
Ve
1e-07
38.1 -11.1125 3009.9
0 0

0101101
*
Ve
1e-07
38.1 -11.1125 38.1
0 0

0101101
*
Ed
 1e-07 1 1 0
1  29 0 0 2971.8
0

0101000
-430 10 +429 10 *
Ve
1e-07
38.1 -150.8125 3009.9
0 0

0101101
*
Ed
 1e-07 1 1 0
1  30 0 0 139.7
0

0101000
-427 10 +430 10 *
Ve
1e-07
38.1 -150.8125 38.1
0 0

0101101
*
Ed
 1e-07 1 1 0
1  31 0 0 2971.8
0

0101000
-427 10 +425 10 *
Ed
 1e-07 1 1 0
1  32 0 0 139.7
0

0101000
-425 10 +429 10 *
Wi

0101100
-428 0 -426 0 +424 0 +423 0 *
Fa
0  1e-07 14 0

0111000
+422 0 *
Ed
 1e-07 1 1 0
1  33 0 0 38.1
0

0101000
-429 10 +439 10 *
Ed
 1e-07 1 1 0
1  34 0 0 38.1
0

0101000
-430 10 +440 10 *
Wi

0101100
-420 0 -428 0 +419 0 +438 0 *
Fa
0  1e-07 15 0

0111000
+418 0 *
Ed
 1e-07 1 1 0
1  35 0 0 38.1
0

0101000
-425 10 +435 10 *
Ed
 1e-07 1 1 0
1  36 0 0 38.1
0

0101000
-427 10 +437 10 *
Wi

0101100
-416 0 -424 0 +415 0 +434 0 *
Fa
0  1e-07 16 0

0111000
+414 0 *
Wi

0101100
-433 0 -416 0 +423 0 +420 0 *
Fa
0  1e-07 17 0

0111000
+412 0 *
Wi

0101100
-436 0 -415 0 +426 0 +419 0 *
Fa
0  1e-07 18 0

0111000
+410 0 *
Sh

0101100
+431 0 -421 0 +417 0 -413 0 +411 0 -409 0 *
So

0100000
+408 0 *
Ve
1e-07
1181.1 -11.1125 3009.9
0 0

0101101
*
Ve
1e-07
1181.1 -11.1125 38.1
0 0

0101101
*
Ed
 1e-07 1 1 0
1  37 0 0 2971.8
0

0101000
-406 12 +405 12 *
Ve
1e-07
1181.1 -150.8125 3009.9
0 0

0101101
*
Ed
 1e-07 1 1 0
1  38 0 0 139.7
0

0101000
-403 12 +406 12 *
Ve
1e-07
1181.1 -150.8125 38.1
0 0

0101101
*
Ed
 1e-07 1 1 0
1  39 0 0 2971.8
0

0101000
-403 12 +401 12 *
Ed
 1e-07 1 1 0
1  40 0 0 139.7
0

0101000
-401 12 +405 12 *
Wi

0101100
-404 0 -402 0 +400 0 +399 0 *
Fa
0  1e-07 19 0

0111000
+398 0 *
Ve
1e-07
1219.2 -11.1125 3009.9
0 0

0101101
*
Ve
1e-07
1219.2 -11.1125 38.1
0 0

0101101
*
Ed
 1e-07 1 1 0
1  41 0 0 2971.8
0

0101000
-396 12 +395 12 *
Ve
1e-07
1219.2 -150.8125 3009.9
0 0

0101101
*
Ed
 1e-07 1 1 0
1  42 0 0 139.7
0

0101000
-393 12 +396 12 *
Ve
1e-07
1219.2 -150.8125 38.1
0 0

0101101
*
Ed
 1e-07 1 1 0
1  43 0 0 2971.8
0

0101000
-393 12 +391 12 *
Ed
 1e-07 1 1 0
1  44 0 0 139.7
0

0101000
-391 12 +395 12 *
Wi

0101100
-394 0 -392 0 +390 0 +389 0 *
Fa
0  1e-07 20 0

0111000
+388 0 *
Ed
 1e-07 1 1 0
1  45 0 0 38.1
0

0101000
-395 12 +405 12 *
Ed
 1e-07 1 1 0
1  46 0 0 38.1
0

0101000
-396 12 +406 12 *
Wi

0101100
-386 0 -394 0 +385 0 +404 0 *
Fa
0  1e-07 21 0

0111000
+384 0 *
Ed
 1e-07 1 1 0
1  47 0 0 38.1
0

0101000
-391 12 +401 12 *
Ed
 1e-07 1 1 0
1  48 0 0 38.1
0

0101000
-393 12 +403 12 *
Wi

0101100
-382 0 -390 0 +381 0 +400 0 *
Fa
0  1e-07 22 0

0111000
+380 0 *
Wi

0101100
-399 0 -382 0 +389 0 +386 0 *
Fa
0  1e-07 23 0

0111000
+378 0 *
Wi

0101100
-402 0 -381 0 +392 0 +385 0 *
Fa
0  1e-07 24 0

0111000
+376 0 *
Sh

0101100
+397 0 -387 0 +383 0 -379 0 +377 0 -375 0 *
So

0100000
+374 0 *
Ve
1e-07
114.3 -11.1125 1828.8
0 0

0101101
*
Ve
1e-07
114.3 -11.1125 38.1
0 0

0101101
*
Ed
 1e-07 1 1 0
1  49 0 0 1790.7
0

0101000
-372 14 +371 14 *
Ve
1e-07
114.3 -150.8125 1828.8
0 0

0101101
*
Ed
 1e-07 1 1 0
1  50 0 0 139.7
0

0101000
-369 14 +372 14 *
Ve
1e-07
114.3 -150.8125 38.1
0 0

0101101
*
Ed
 1e-07 1 1 0
1  51 0 0 1790.7
0

0101000
-369 14 +367 14 *
Ed
 1e-07 1 1 0
1  52 0 0 139.7
0

0101000
-367 14 +371 14 *
Wi

0101100
-370 0 -368 0 +366 0 +365 0 *
Fa
0  1e-07 25 0

0111000
+364 0 *
Ve
1e-07
152.4 -11.1125 1828.8
0 0

0101101
*
Ve
1e-07
152.4 -11.1125 38.1
0 0

0101101
*
Ed
 1e-07 1 1 0
1  53 0 0 1790.7
0

0101000
-362 14 +361 14 *
Ve
1e-07
152.4 -150.8125 1828.8
0 0

0101101
*
Ed
 1e-07 1 1 0
1  54 0 0 139.7
0

0101000
-359 14 +362 14 *
Ve
1e-07
152.4 -150.8125 38.1
0 0

0101101
*
Ed
 1e-07 1 1 0
1  55 0 0 1790.7
0

0101000
-359 14 +357 14 *
Ed
 1e-07 1 1 0
1  56 0 0 139.7
0

0101000
-357 14 +361 14 *
Wi

0101100
-360 0 -358 0 +356 0 +355 0 *
Fa
0  1e-07 26 0

0111000
+354 0 *
Ed
 1e-07 1 1 0
1  57 0 0 38.1
0

0101000
-361 14 +371 14 *
Ed
 1e-07 1 1 0
1  58 0 0 38.1
0

0101000
-362 14 +372 14 *
Wi

0101100
-352 0 -360 0 +351 0 +370 0 *
Fa
0  1e-07 27 0

0111000
+350 0 *
Ed
 1e-07 1 1 0
1  59 0 0 38.1
0

0101000
-357 14 +367 14 *
Ed
 1e-07 1 1 0
1  60 0 0 38.1
0

0101000
-359 14 +369 14 *
Wi

0101100
-348 0 -356 0 +347 0 +366 0 *
Fa
0  1e-07 28 0

0111000
+346 0 *
Wi

0101100
-365 0 -348 0 +355 0 +352 0 *
Fa
0  1e-07 29 0

0111000
+344 0 *
Wi

0101100
-368 0 -347 0 +358 0 +351 0 *
Fa
0  1e-07 30 0

0111000
+342 0 *
Sh

0101100
+363 0 -353 0 +349 0 -345 0 +343 0 -341 0 *
So

0100000
+340 0 *
Ve
1e-07
1066.8 -11.1125 1828.8
0 0

0101101
*
Ve
1e-07
1066.8 -11.1125 38.1
0 0

0101101
*
Ed
 1e-07 1 1 0
1  61 0 0 1790.7
0

0101000
-338 16 +337 16 *
Ve
1e-07
1066.8 -150.8125 1828.8
0 0

0101101
*
Ed
 1e-07 1 1 0
1  62 0 0 139.7
0

0101000
-335 16 +338 16 *
Ve
1e-07
1066.8 -150.8125 38.1
0 0

0101101
*
Ed
 1e-07 1 1 0
1  63 0 0 1790.7
0

0101000
-335 16 +333 16 *
Ed
 1e-07 1 1 0
1  64 0 0 139.7
0

0101000
-333 16 +337 16 *
Wi

0101100
-336 0 -334 0 +332 0 +331 0 *
Fa
0  1e-07 31 0

0111000
+330 0 *
Ve
1e-07
1104.9 -11.1125 1828.8
0 0

0101101
*
Ve
1e-07
1104.9 -11.1125 38.1
0 0

0101101
*
Ed
 1e-07 1 1 0
1  65 0 0 1790.7
0

0101000
-328 16 +327 16 *
Ve
1e-07
1104.9 -150.8125 1828.8
0 0

0101101
*
Ed
 1e-07 1 1 0
1  66 0 0 139.7
0

0101000
-325 16 +328 16 *
Ve
1e-07
1104.9 -150.8125 38.1
0 0

0101101
*
Ed
 1e-07 1 1 0
1  67 0 0 1790.7
0

0101000
-325 16 +323 16 *
Ed
 1e-07 1 1 0
1  68 0 0 139.7
0

0101000
-323 16 +327 16 *
Wi

0101100
-326 0 -324 0 +322 0 +321 0 *
Fa
0  1e-07 32 0

0111000
+320 0 *
Ed
 1e-07 1 1 0
1  69 0 0 38.1
0

0101000
-327 16 +337 16 *
Ed
 1e-07 1 1 0
1  70 0 0 38.1
0

0101000
-328 16 +338 16 *
Wi

0101100
-318 0 -326 0 +317 0 +336 0 *
Fa
0  1e-07 33 0

0111000
+316 0 *
Ed
 1e-07 1 1 0
1  71 0 0 38.1
0

0101000
-323 16 +333 16 *
Ed
 1e-07 1 1 0
1  72 0 0 38.1
0

0101000
-325 16 +335 16 *
Wi

0101100
-314 0 -322 0 +313 0 +332 0 *
Fa
0  1e-07 34 0

0111000
+312 0 *
Wi

0101100
-331 0 -314 0 +321 0 +318 0 *
Fa
0  1e-07 35 0

0111000
+310 0 *
Wi

0101100
-334 0 -313 0 +324 0 +317 0 *
Fa
0  1e-07 36 0

0111000
+308 0 *
Sh

0101100
+329 0 -319 0 +315 0 -311 0 +309 0 -307 0 *
So

0100000
+306 0 *
Ve
1e-07
114.3 -11.1125 2012.95
0 0

0101101
*
Ve
1e-07
114.3 -11.1125 1828.8
0 0

0101101
*
Ed
 1e-07 1 1 0
1  73 0 0 184.15
0

0101000
-304 18 +303 18 *
Ve
1e-07
114.3 -150.8125 2012.95
0 0

0101101
*
Ed
 1e-07 1 1 0
1  74 0 0 139.7
0

0101000
-301 18 +304 18 *
Ve
1e-07
114.3 -150.8125 1828.8
0 0

0101101
*
Ed
 1e-07 1 1 0
1  75 0 0 184.15
0

0101000
-301 18 +299 18 *
Ed
 1e-07 1 1 0
1  76 0 0 139.7
0

0101000
-299 18 +303 18 *
Wi

0101100
-302 0 -300 0 +298 0 +297 0 *
Fa
0  1e-07 37 0

0111000
+296 0 *
Ve
1e-07
1104.9 -11.1125 2012.95
0 0

0101101
*
Ve
1e-07
1104.9 -11.1125 1828.8
0 0

0101101
*
Ed
 1e-07 1 1 0
1  77 0 0 184.15
0

0101000
-294 18 +293 18 *
Ve
1e-07
1104.9 -150.8125 2012.95
0 0

0101101
*
Ed
 1e-07 1 1 0
1  78 0 0 139.7
0

0101000
-291 18 +294 18 *
Ve
1e-07
1104.9 -150.8125 1828.8
0 0

0101101
*
Ed
 1e-07 1 1 0
1  79 0 0 184.15
0

0101000
-291 18 +289 18 *
Ed
 1e-07 1 1 0
1  80 0 0 139.7
0

0101000
-289 18 +293 18 *
Wi

0101100
-292 0 -290 0 +288 0 +287 0 *
Fa
0  1e-07 38 0

0111000
+286 0 *
Ed
 1e-07 1 1 0
1  81 0 0 990.6
0

0101000
-293 18 +303 18 *
Ed
 1e-07 1 1 0
1  82 0 0 990.6
0

0101000
-294 18 +304 18 *
Wi

0101100
-284 0 -292 0 +283 0 +302 0 *
Fa
0  1e-07 39 0

0111000
+282 0 *
Ed
 1e-07 1 1 0
1  83 0 0 990.6
0

0101000
-289 18 +299 18 *
Ed
 1e-07 1 1 0
1  84 0 0 990.6
0

0101000
-291 18 +301 18 *
Wi

0101100
-280 0 -288 0 +279 0 +298 0 *
Fa
0  1e-07 40 0

0111000
+278 0 *
Wi

0101100
-297 0 -280 0 +287 0 +284 0 *
Fa
0  1e-07 41 0

0111000
+276 0 *
Wi

0101100
-300 0 -279 0 +290 0 +283 0 *
Fa
0  1e-07 42 0

0111000
+274 0 *
Sh

0101100
+295 0 -285 0 +281 0 -277 0 +275 0 -273 0 *
So

0100000
+272 0 *
Ve
1e-07
406.4 -11.1125 3009.9
0 0

0101101
*
Ve
1e-07
406.4 -11.1125 2012.95
0 0

0101101
*
Ed
 1e-07 1 1 0
1  85 0 0 996.95
0

0101000
-270 20 +269 20 *
Ve
1e-07
406.4 -150.8125 3009.9
0 0

0101101
*
Ed
 1e-07 1 1 0
1  86 0 0 139.7
0

0101000
-267 20 +270 20 *
Ve
1e-07
406.4 -150.8125 2012.95
0 0

0101101
*
Ed
 1e-07 1 1 0
1  87 0 0 996.95
0

0101000
-267 20 +265 20 *
Ed
 1e-07 1 1 0
1  88 0 0 139.7
0

0101000
-265 20 +269 20 *
Wi

0101100
-268 0 -266 0 +264 0 +263 0 *
Fa
0  1e-07 43 0

0111000
+262 0 *
Ve
1e-07
444.5 -11.1125 3009.9
0 0

0101101
*
Ve
1e-07
444.5 -11.1125 2012.95
0 0

0101101
*
Ed
 1e-07 1 1 0
1  89 0 0 996.95
0

0101000
-260 20 +259 20 *
Ve
1e-07
444.5 -150.8125 3009.9
0 0

0101101
*
Ed
 1e-07 1 1 0
1  90 0 0 139.7
0

0101000
-257 20 +260 20 *
Ve
1e-07
444.5 -150.8125 2012.95
0 0

0101101
*
Ed
 1e-07 1 1 0
1  91 0 0 996.95
0

0101000
-257 20 +255 20 *
Ed
 1e-07 1 1 0
1  92 0 0 139.7
0

0101000
-255 20 +259 20 *
Wi

0101100
-258 0 -256 0 +254 0 +253 0 *
Fa
0  1e-07 44 0

0111000
+252 0 *
Ed
 1e-07 1 1 0
1  93 0 0 38.1
0

0101000
-259 20 +269 20 *
Ed
 1e-07 1 1 0
1  94 0 0 38.1
0

0101000
-260 20 +270 20 *
Wi

0101100
-250 0 -258 0 +249 0 +268 0 *
Fa
0  1e-07 45 0

0111000
+248 0 *
Ed
 1e-07 1 1 0
1  95 0 0 38.1
0

0101000
-255 20 +265 20 *
Ed
 1e-07 1 1 0
1  96 0 0 38.1
0

0101000
-257 20 +267 20 *
Wi

0101100
-246 0 -254 0 +245 0 +264 0 *
Fa
0  1e-07 46 0

0111000
+244 0 *
Wi

0101100
-263 0 -246 0 +253 0 +250 0 *
Fa
0  1e-07 47 0

0111000
+242 0 *
Wi

0101100
-266 0 -245 0 +256 0 +249 0 *
Fa
0  1e-07 48 0

0111000
+240 0 *
Sh

0101100
+261 0 -251 0 +247 0 -243 0 +241 0 -239 0 *
So

0100000
+238 0 *
Ve
1e-07
812.8 -11.1125 3009.9
0 0

0101101
*
Ve
1e-07
812.8 -11.1125 2012.95
0 0

0101101
*
Ed
 1e-07 1 1 0
1  97 0 0 996.95
0

0101000
-236 22 +235 22 *
Ve
1e-07
812.8 -150.8125 3009.9
0 0

0101101
*
Ed
 1e-07 1 1 0
1  98 0 0 139.7
0

0101000
-233 22 +236 22 *
Ve
1e-07
812.8 -150.8125 2012.95
0 0

0101101
*
Ed
 1e-07 1 1 0
1  99 0 0 996.95
0

0101000
-233 22 +231 22 *
Ed
 1e-07 1 1 0
1  100 0 0 139.7
0

0101000
-231 22 +235 22 *
Wi

0101100
-234 0 -232 0 +230 0 +229 0 *
Fa
0  1e-07 49 0

0111000
+228 0 *
Ve
1e-07
850.9 -11.1125 3009.9
0 0

0101101
*
Ve
1e-07
850.9 -11.1125 2012.95
0 0

0101101
*
Ed
 1e-07 1 1 0
1  101 0 0 996.95
0

0101000
-226 22 +225 22 *
Ve
1e-07
850.9 -150.8125 3009.9
0 0

0101101
*
Ed
 1e-07 1 1 0
1  102 0 0 139.7
0

0101000
-223 22 +226 22 *
Ve
1e-07
850.9 -150.8125 2012.95
0 0

0101101
*
Ed
 1e-07 1 1 0
1  103 0 0 996.95
0

0101000
-223 22 +221 22 *
Ed
 1e-07 1 1 0
1  104 0 0 139.7
0

0101000
-221 22 +225 22 *
Wi

0101100
-224 0 -222 0 +220 0 +219 0 *
Fa
0  1e-07 50 0

0111000
+218 0 *
Ed
 1e-07 1 1 0
1  105 0 0 38.1
0

0101000
-225 22 +235 22 *
Ed
 1e-07 1 1 0
1  106 0 0 38.1
0

0101000
-226 22 +236 22 *
Wi

0101100
-216 0 -224 0 +215 0 +234 0 *
Fa
0  1e-07 51 0

0111000
+214 0 *
Ed
 1e-07 1 1 0
1  107 0 0 38.1
0

0101000
-221 22 +231 22 *
Ed
 1e-07 1 1 0
1  108 0 0 38.1
0

0101000
-223 22 +233 22 *
Wi

0101100
-212 0 -220 0 +211 0 +230 0 *
Fa
0  1e-07 52 0

0111000
+210 0 *
Wi

0101100
-229 0 -212 0 +219 0 +216 0 *
Fa
0  1e-07 53 0

0111000
+208 0 *
Wi

0101100
-232 0 -211 0 +222 0 +215 0 *
Fa
0  1e-07 54 0

0111000
+206 0 *
Sh

0101100
+227 0 -217 0 +213 0 -209 0 +207 0 -205 0 *
So

0100000
+204 0 *
Ve
1e-07
152.4 -11.1125 609.6
0 0

0101101
*
Ve
1e-07
152.4 -11.1125 571.5
0 0

0101101
*
Ed
 1e-07 1 1 0
1  109 0 0 38.1
0

0101000
-202 24 +201 24 *
Ve
1e-07
152.4 -150.8125 609.6
0 0

0101101
*
Ed
 1e-07 1 1 0
1  110 0 0 139.7
0

0101000
-199 24 +202 24 *
Ve
1e-07
152.4 -150.8125 571.5
0 0

0101101
*
Ed
 1e-07 1 1 0
1  111 0 0 38.1
0

0101000
-199 24 +197 24 *
Ed
 1e-07 1 1 0
1  112 0 0 139.7
0

0101000
-197 24 +201 24 *
Wi

0101100
-200 0 -198 0 +196 0 +195 0 *
Fa
0  1e-07 55 0

0111000
+194 0 *
Ve
1e-07
1066.8 -11.1125 609.6
0 0

0101101
*
Ve
1e-07
1066.8 -11.1125 571.5
0 0

0101101
*
Ed
 1e-07 1 1 0
1  113 0 0 38.1
0

0101000
-192 24 +191 24 *
Ve
1e-07
1066.8 -150.8125 609.6
0 0

0101101
*
Ed
 1e-07 1 1 0
1  114 0 0 139.7
0

0101000
-189 24 +192 24 *
Ve
1e-07
1066.8 -150.8125 571.5
0 0

0101101
*
Ed
 1e-07 1 1 0
1  115 0 0 38.1
0

0101000
-189 24 +187 24 *
Ed
 1e-07 1 1 0
1  116 0 0 139.7
0

0101000
-187 24 +191 24 *
Wi

0101100
-190 0 -188 0 +186 0 +185 0 *
Fa
0  1e-07 56 0

0111000
+184 0 *
Ed
 1e-07 1 1 0
1  117 0 0 914.4
0

0101000
-191 24 +201 24 *
Ed
 1e-07 1 1 0
1  118 0 0 914.4
0

0101000
-192 24 +202 24 *
Wi

0101100
-182 0 -190 0 +181 0 +200 0 *
Fa
0  1e-07 57 0

0111000
+180 0 *
Ed
 1e-07 1 1 0
1  119 0 0 914.4
0

0101000
-187 24 +197 24 *
Ed
 1e-07 1 1 0
1  120 0 0 914.4
0

0101000
-189 24 +199 24 *
Wi

0101100
-178 0 -186 0 +177 0 +196 0 *
Fa
0  1e-07 58 0

0111000
+176 0 *
Wi

0101100
-195 0 -178 0 +185 0 +182 0 *
Fa
0  1e-07 59 0

0111000
+174 0 *
Wi

0101100
-198 0 -177 0 +188 0 +181 0 *
Fa
0  1e-07 60 0

0111000
+172 0 *
Sh

0101100
+193 0 -183 0 +179 0 -175 0 +173 0 -171 0 *
So

0100000
+170 0 *
Ve
1e-07
406.4 -11.1125 571.5
0 0

0101101
*
Ve
1e-07
406.4 -11.1125 38.1
0 0

0101101
*
Ed
 1e-07 1 1 0
1  121 0 0 533.4
0

0101000
-168 26 +167 26 *
Ve
1e-07
406.4 -150.8125 571.5
0 0

0101101
*
Ed
 1e-07 1 1 0
1  122 0 0 139.7
0

0101000
-165 26 +168 26 *
Ve
1e-07
406.4 -150.8125 38.1
0 0

0101101
*
Ed
 1e-07 1 1 0
1  123 0 0 533.4
0

0101000
-165 26 +163 26 *
Ed
 1e-07 1 1 0
1  124 0 0 139.7
0

0101000
-163 26 +167 26 *
Wi

0101100
-166 0 -164 0 +162 0 +161 0 *
Fa
0  1e-07 61 0

0111000
+160 0 *
Ve
1e-07
444.5 -11.1125 571.5
0 0

0101101
*
Ve
1e-07
444.5 -11.1125 38.1
0 0

0101101
*
Ed
 1e-07 1 1 0
1  125 0 0 533.4
0

0101000
-158 26 +157 26 *
Ve
1e-07
444.5 -150.8125 571.5
0 0

0101101
*
Ed
 1e-07 1 1 0
1  126 0 0 139.7
0

0101000
-155 26 +158 26 *
Ve
1e-07
444.5 -150.8125 38.1
0 0

0101101
*
Ed
 1e-07 1 1 0
1  127 0 0 533.4
0

0101000
-155 26 +153 26 *
Ed
 1e-07 1 1 0
1  128 0 0 139.7
0

0101000
-153 26 +157 26 *
Wi

0101100
-156 0 -154 0 +152 0 +151 0 *
Fa
0  1e-07 62 0

0111000
+150 0 *
Ed
 1e-07 1 1 0
1  129 0 0 38.1
0

0101000
-157 26 +167 26 *
Ed
 1e-07 1 1 0
1  130 0 0 38.1
0

0101000
-158 26 +168 26 *
Wi

0101100
-148 0 -156 0 +147 0 +166 0 *
Fa
0  1e-07 63 0

0111000
+146 0 *
Ed
 1e-07 1 1 0
1  131 0 0 38.1
0

0101000
-153 26 +163 26 *
Ed
 1e-07 1 1 0
1  132 0 0 38.1
0

0101000
-155 26 +165 26 *
Wi

0101100
-144 0 -152 0 +143 0 +162 0 *
Fa
0  1e-07 64 0

0111000
+142 0 *
Wi

0101100
-161 0 -144 0 +151 0 +148 0 *
Fa
0  1e-07 65 0

0111000
+140 0 *
Wi

0101100
-164 0 -143 0 +154 0 +147 0 *
Fa
0  1e-07 66 0

0111000
+138 0 *
Sh

0101100
+159 0 -149 0 +145 0 -141 0 +139 0 -137 0 *
So

0100000
+136 0 *
Ve
1e-07
812.8 -11.1125 571.5
0 0

0101101
*
Ve
1e-07
812.8 -11.1125 38.1
0 0

0101101
*
Ed
 1e-07 1 1 0
1  133 0 0 533.4
0

0101000
-134 28 +133 28 *
Ve
1e-07
812.8 -150.8125 571.5
0 0

0101101
*
Ed
 1e-07 1 1 0
1  134 0 0 139.7
0

0101000
-131 28 +134 28 *
Ve
1e-07
812.8 -150.8125 38.1
0 0

0101101
*
Ed
 1e-07 1 1 0
1  135 0 0 533.4
0

0101000
-131 28 +129 28 *
Ed
 1e-07 1 1 0
1  136 0 0 139.7
0

0101000
-129 28 +133 28 *
Wi

0101100
-132 0 -130 0 +128 0 +127 0 *
Fa
0  1e-07 67 0

0111000
+126 0 *
Ve
1e-07
850.9 -11.1125 571.5
0 0

0101101
*
Ve
1e-07
850.9 -11.1125 38.1
0 0

0101101
*
Ed
 1e-07 1 1 0
1  137 0 0 533.4
0

0101000
-124 28 +123 28 *
Ve
1e-07
850.9 -150.8125 571.5
0 0

0101101
*
Ed
 1e-07 1 1 0
1  138 0 0 139.7
0

0101000
-121 28 +124 28 *
Ve
1e-07
850.9 -150.8125 38.1
0 0

0101101
*
Ed
 1e-07 1 1 0
1  139 0 0 533.4
0

0101000
-121 28 +119 28 *
Ed
 1e-07 1 1 0
1  140 0 0 139.7
0

0101000
-119 28 +123 28 *
Wi

0101100
-122 0 -120 0 +118 0 +117 0 *
Fa
0  1e-07 68 0

0111000
+116 0 *
Ed
 1e-07 1 1 0
1  141 0 0 38.1
0

0101000
-123 28 +133 28 *
Ed
 1e-07 1 1 0
1  142 0 0 38.1
0

0101000
-124 28 +134 28 *
Wi

0101100
-114 0 -122 0 +113 0 +132 0 *
Fa
0  1e-07 69 0

0111000
+112 0 *
Ed
 1e-07 1 1 0
1  143 0 0 38.1
0

0101000
-119 28 +129 28 *
Ed
 1e-07 1 1 0
1  144 0 0 38.1
0

0101000
-121 28 +131 28 *
Wi

0101100
-110 0 -118 0 +109 0 +128 0 *
Fa
0  1e-07 70 0

0111000
+108 0 *
Wi

0101100
-127 0 -110 0 +117 0 +114 0 *
Fa
0  1e-07 71 0

0111000
+106 0 *
Wi

0101100
-130 0 -109 0 +120 0 +113 0 *
Fa
0  1e-07 72 0

0111000
+104 0 *
Sh

0101100
+125 0 -115 0 +111 0 -107 0 +105 0 -103 0 *
So

0100000
+102 0 *
Ve
1e-07
152.4 -11.1125 76.2
0 0

0101101
*
Ve
1e-07
152.4 -11.1125 38.1
0 0

0101101
*
Ed
 1e-07 1 1 0
1  145 0 0 38.1
0

0101000
-100 30 +99 30 *
Ve
1e-07
152.4 -150.8125 76.2
0 0

0101101
*
Ed
 1e-07 1 1 0
1  146 0 0 139.7
0

0101000
-97 30 +100 30 *
Ve
1e-07
152.4 -150.8125 38.1
0 0

0101101
*
Ed
 1e-07 1 1 0
1  147 0 0 38.1
0

0101000
-97 30 +95 30 *
Ed
 1e-07 1 1 0
1  148 0 0 139.7
0

0101000
-95 30 +99 30 *
Wi

0101100
-98 0 -96 0 +94 0 +93 0 *
Fa
0  1e-07 73 0

0111000
+92 0 *
Ve
1e-07
1066.8 -11.1125 76.2
0 0

0101101
*
Ve
1e-07
1066.8 -11.1125 38.1
0 0

0101101
*
Ed
 1e-07 1 1 0
1  149 0 0 38.1
0

0101000
-90 30 +89 30 *
Ve
1e-07
1066.8 -150.8125 76.2
0 0

0101101
*
Ed
 1e-07 1 1 0
1  150 0 0 139.7
0

0101000
-87 30 +90 30 *
Ve
1e-07
1066.8 -150.8125 38.1
0 0

0101101
*
Ed
 1e-07 1 1 0
1  151 0 0 38.1
0

0101000
-87 30 +85 30 *
Ed
 1e-07 1 1 0
1  152 0 0 139.7
0

0101000
-85 30 +89 30 *
Wi

0101100
-88 0 -86 0 +84 0 +83 0 *
Fa
0  1e-07 74 0

0111000
+82 0 *
Ed
 1e-07 1 1 0
1  153 0 0 914.4
0

0101000
-89 30 +99 30 *
Ed
 1e-07 1 1 0
1  154 0 0 914.4
0

0101000
-90 30 +100 30 *
Wi

0101100
-80 0 -88 0 +79 0 +98 0 *
Fa
0  1e-07 75 0

0111000
+78 0 *
Ed
 1e-07 1 1 0
1  155 0 0 914.4
0

0101000
-85 30 +95 30 *
Ed
 1e-07 1 1 0
1  156 0 0 914.4
0

0101000
-87 30 +97 30 *
Wi

0101100
-76 0 -84 0 +75 0 +94 0 *
Fa
0  1e-07 76 0

0111000
+74 0 *
Wi

0101100
-93 0 -76 0 +83 0 +80 0 *
Fa
0  1e-07 77 0

0111000
+72 0 *
Wi

0101100
-96 0 -75 0 +86 0 +79 0 *
Fa
0  1e-07 78 0

0111000
+70 0 *
Sh

0101100
+91 0 -81 0 +77 0 -73 0 +71 0 -69 0 *
So

0100000
+68 0 *
Ve
1e-07
0 0 3048
0 0

0101101
*
Ve
1e-07
0 0 0
0 0

0101101
*
Ed
 1e-07 1 1 0
1  157 0 0 3048
0

0101000
-66 32 +65 32 *
Ve
1e-07
0 -11.1125 3048
0 0

0101101
*
Ed
 1e-07 1 1 0
1  158 0 0 11.1125
0

0101000
-63 32 +66 32 *
Ve
1e-07
0 -11.1125 0
0 0

0101101
*
Ed
 1e-07 1 1 0
1  159 0 0 3048
0

0101000
-63 32 +61 32 *
Ed
 1e-07 1 1 0
1  160 0 0 11.1125
0

0101000
-61 32 +65 32 *
Wi

0101100
-64 0 -62 0 +60 0 +59 0 *
Fa
0  1e-07 79 0

0111000
+58 0 *
Ve
1e-07
1219.2 0 0
0 0

0101101
*
Ed
 1e-07 1 1 0
1  161 0 0 1219.2
0

0101000
-56 32 +65 32 *
Ve
1e-07
1219.2 0 3048
0 0

0101101
*
Ed
 1e-07 1 1 0
1  162 0 0 3048
0

0101000
-54 32 +56 32 *
Ed
 1e-07 1 1 0
1  163 0 0 1219.2
0

0101000
-54 32 +66 32 *
Wi

0101100
-55 31 -53 31 +64 31 +52 31 *
Ve
1.5e-07
152.4 0 1828.8
0 0

0101101
*
Ve
1.5e-07
1066.8 0 1828.8
0 0

0101101
*
Ed
 1.5e-07 1 1 0
1  164 0 76.2 990.6
0

0101000
+50 33 -49 33 *
Ve
1.5e-07
1066.8 0 609.6
0 0

0101101
*
Ed
 1.5e-07 1 1 0
1  165 0 -1524 -304.8
0

0101000
+49 33 -47 33 *
Ve
1.5e-07
152.4 0 609.6
0 0

0101101
*
Ed
 1.5e-07 1 1 0
1  166 0 76.2 990.6
0

0101000
+45 33 -47 33 *
Ed
 1.5e-07 1 1 0
1  167 0 -1524 -304.8
0

0101000
+50 33 -45 33 *
Wi

0101100
-48 0 -46 0 +44 0 +43 0 *
Fa
0  1e-07 80 31

0101000
+51 0 +42 0 *
Ve
1e-07
1219.2 -11.1125 3048
0 0

0101101
*
Ed
 1e-07 1 1 0
1  168 0 0 1219.2
0

0101000
-40 32 +63 32 *
Ed
 1e-07 1 1 0
1  169 0 0 11.1125
0

0101000
-40 32 +54 32 *
Wi

0101100
-62 0 -39 0 +38 0 +52 0 *
Fa
0  1e-07 81 0

0111000
+37 0 *
Ve
1e-07
1219.2 -11.1125 0
0 0

0101101
*
Ed
 1e-07 1 1 0
1  170 0 0 1219.2
0

0101000
-35 32 +61 32 *
Ed
 1e-07 1 1 0
1  171 0 0 3048
0

0101000
-40 32 +35 32 *
Wi

0101100
-34 31 -33 31 +60 31 +39 31 *
Ve
1.5e-07
152.4 -11.1125 1828.8
0 0

0101101
*
Ve
1.5e-07
1066.8 -11.1125 1828.8
0 0

0101101
*
Ed
 1.5e-07 1 1 0
1  172 0 76.2 990.6
0

0101000
+31 33 -30 33 *
Ve
1.5e-07
1066.8 -11.1125 609.6
0 0

0101101
*
Ed
 1.5e-07 1 1 0
1  173 0 -1524 -304.8
0

0101000
+30 33 -28 33 *
Ve
1.5e-07
152.4 -11.1125 609.6
0 0

0101101
*
Ed
 1.5e-07 1 1 0
1  174 0 76.2 990.6
0

0101000
+26 33 -28 33 *
Ed
 1.5e-07 1 1 0
1  175 0 -1524 -304.8
0

0101000
+31 33 -26 33 *
Wi

0101100
-29 0 -27 0 +25 0 +24 0 *
Fa
0  1e-07 82 31

0101000
+32 0 +23 0 *
Ed
 1e-07 1 1 0
1  176 0 0 11.1125
0

0101000
-35 32 +56 32 *
Wi

0101100
-59 0 -34 0 +21 0 +55 0 *
Fa
0  1e-07 83 0

0111000
+20 0 *
Wi

0101100
-53 0 -38 0 +33 0 +21 0 *
Fa
0  1e-07 84 0

0111000
+18 0 *
Ed
 1e-07 1 1 0
1  177 0 1 12.1125
0

0101000
+50 35 -31 35 *
Ed
 1e-07 1 1 0
1  178 0 1 12.1125
0

0101000
+49 35 -30 35 *
Wi

0101100
-16 34 -29 0 +15 34 +48 0 *
Fa
0  1e-07 85 34

0101000
+14 0 *
Ed
 1e-07 1 1 0
1  179 0 1 12.1125
0

0101000
+47 35 -28 35 *
Wi

0101100
-15 34 -27 0 +12 34 +46 0 *
Fa
0  1e-07 86 34

0101000
+11 0 *
Ed
 1e-07 1 1 0
1  180 0 1 12.1125
0

0101000
+45 35 -26 35 *
Wi

0101100
-9 34 -25 0 +12 34 +44 0 *
Fa
0  1e-07 87 34

0101000
+8 0 *
Wi

0101100
-16 34 -24 0 +9 34 +43 0 *
Fa
0  1e-07 88 34

0101000
+6 0 *
Sh

0101100
+57 31 +41 0 -36 31 -22 0 +19 31 -17 31 +13 0 +10 0 -7 0 -5 0 
*
So

0100000
+4 0 *
Co

0100000
+3 0 *
Co

1100000
+475 5 +441 7 +407 9 +373 11 +339 13 +305 15 +271 17 +237 19 +203 21 +169 23 
+135 25 +101 27 +67 29 +2 0 *

+1 4 