DBRep_DrawableShape

CASCADE Topology V1, (c) Matra-Datavision
Locations 27
1
              1               0               0               0 
              0               1               0               0 
              0               0               1               0 
1
              1               0               0              -0 
              0               1               0            12.7 
              0               0               1              -0 
2  1 1 2 1 0
1
              1               0               0               0 
              0               1               0               0 
              0               0               1               0 
2  2 -1 1 -1 4 -1 0
1
              1               0               0               0 
              0               1               0               0 
              0               0               1        2390.775 
2  2 -1 1 -1 6 -1 0
1
              1               0               0               0 
              0               1               0               0 
              0               0               1            38.1 
2  2 -1 1 -1 8 -1 0
1
              1               0               0           609.6 
              0               1               0               0 
              0               0               1            38.1 
2  2 -1 1 -1 10 -1 0
1
              1               0               0          1181.1 
              0               1               0               0 
              0               0               1            38.1 
2  2 -1 1 -1 12 -1 0
1
              1               0               0               0 
              0               1               0               0 
              0               0               1            38.1 
2  2 -1 1 -1 14 -1 0
1
              1               0               0            38.1 
              0               1               0           101.6 
              0               0               1            38.1 
2  2 -1 1 -1 16 -1 0
1
              1               0               0           177.8 
              0               1               0               0 
              0               0               1            38.1 
2  2 -1 1 -1 18 -1 0
1
              1               0               0          1181.1 
              0               1               0               0 
              0               0               1            38.1 
2  2 -1 1 -1 20 -1 0
1
              1               0               0          1041.4 
              0               1               0           101.6 
              0               0               1            38.1 
2  2 -1 1 -1 22 -1 0
1
              1               0               0          1003.3 
              0               1               0               0 
              0               0               1            38.1 
2  2 -1 1 -1 24 -1 0
1
              1               0               0               0 
              0               1               0           -12.7 
              0               0               1               0 
2  2 -1 1 -1 26 -1 0
Curve2ds 0
Curves 144
1 0 -25.399999999999999 0 -0 -0 1 
1 0 -25.399999999999999 38.099999999999994 -0 -1 -0 
1 0 -165.09999999999999 0 -0 -0 1 
1 0 -25.399999999999999 0 -0 -1 -0 
1 1219.1999999999998 -25.399999999999999 0 -0 -0 1 
1 1219.1999999999998 -25.399999999999999 38.099999999999994 -0 -1 -0 
1 1219.1999999999998 -165.09999999999999 0 -0 -0 1 
1 1219.1999999999998 -25.399999999999999 0 -0 -1 -0 
1 0 -25.399999999999999 0 1 -0 -0 
1 0 -25.399999999999999 38.099999999999994 1 -0 -0 
1 0 -165.09999999999999 0 1 -0 -0 
1 0 -165.09999999999999 38.099999999999994 1 -0 -0 
1 0 -25.399999999999999 0 -0 -0 1 
1 0 -25.399999999999999 38.099999999999994 -0 -1 -0 
1 0 -165.09999999999999 0 -0 -0 1 
1 0 -25.399999999999999 0 -0 -1 -0 
1 1219.1999999999998 -25.399999999999999 0 -0 -0 1 
1 1219.1999999999998 -25.399999999999999 38.099999999999994 -0 -1 -0 
1 1219.1999999999998 -165.09999999999999 0 -0 -0 1 
1 1219.1999999999998 -25.399999999999999 0 -0 -1 -0 
1 0 -25.399999999999999 0 1 -0 -0 
1 0 -25.399999999999999 38.099999999999994 1 -0 -0 
1 0 -165.09999999999999 0 1 -0 -0 
1 0 -165.09999999999999 38.099999999999994 1 -0 -0 
1 0 -25.399999999999999 0 -0 -0 1 
1 0 -25.399999999999999 2352.6749999999997 -0 -1 -0 
1 0 -165.09999999999999 0 -0 -0 1 
1 0 -25.399999999999999 0 -0 -1 -0 
1 38.099999999999994 -25.399999999999999 0 -0 -0 1 
1 38.099999999999994 -25.399999999999999 2352.6749999999997 -0 -1 -0 
1 38.099999999999994 -165.09999999999999 0 -0 -0 1 
1 38.099999999999994 -25.399999999999999 0 -0 -1 -0 
1 0 -25.399999999999999 0 1 -0 -0 
1 0 -25.399999999999999 2352.6749999999997 1 -0 -0 
1 0 -165.09999999999999 0 1 -0 -0 
1 0 -165.09999999999999 2352.6749999999997 1 -0 -0 
1 0 -25.399999999999999 0 -0 -0 1 
1 0 -25.399999999999999 2352.6749999999997 -0 -1 -0 
1 0 -165.09999999999999 0 -0 -0 1 
1 0 -25.399999999999999 0 -0 -1 -0 
1 38.099999999999994 -25.399999999999999 0 -0 -0 1 
1 38.099999999999994 -25.399999999999999 2352.6749999999997 -0 -1 -0 
1 38.099999999999994 -165.09999999999999 0 -0 -0 1 
1 38.099999999999994 -25.399999999999999 0 -0 -1 -0 
1 0 -25.399999999999999 0 1 -0 -0 
1 0 -25.399999999999999 2352.6749999999997 1 -0 -0 
1 0 -165.09999999999999 0 1 -0 -0 
1 0 -165.09999999999999 2352.6749999999997 1 -0 -0 
1 0 -25.399999999999999 0 -0 -0 1 
1 0 -25.399999999999999 2352.6749999999997 -0 -1 -0 
1 0 -165.09999999999999 0 -0 -0 1 
1 0 -25.399999999999999 0 -0 -1 -0 
1 38.099999999999994 -25.399999999999999 0 -0 -0 1 
1 38.099999999999994 -25.399999999999999 2352.6749999999997 -0 -1 -0 
1 38.099999999999994 -165.09999999999999 0 -0 -0 1 
1 38.099999999999994 -25.399999999999999 0 -0 -1 -0 
1 0 -25.399999999999999 0 1 -0 -0 
1 0 -25.399999999999999 2352.6749999999997 1 -0 -0 
1 0 -165.09999999999999 0 1 -0 -0 
1 0 -165.09999999999999 2352.6749999999997 1 -0 -0 
1 0 -25.399999999999999 0 -0 -0 1 
1 0 -25.399999999999999 2352.6749999999997 -0 -1 -0 
1 0 -165.09999999999999 0 -0 -0 1 
1 0 -25.399999999999999 0 -0 -1 -0 
1 38.099999999999994 -25.399999999999999 0 -0 -0 1 
1 38.099999999999994 -25.399999999999999 2352.6749999999997 -0 -1 -0 
1 38.099999999999994 -165.09999999999999 0 -0 -0 1 
1 38.099999999999994 -25.399999999999999 0 -0 -1 -0 
1 0 -25.399999999999999 0 1 -0 -0 
1 0 -25.399999999999999 2352.6749999999997 1 -0 -0 
1 0 -165.09999999999999 0 1 -0 -0 
1 0 -165.09999999999999 2352.6749999999997 1 -0 -0 
1 0 -228.59999999999999 0 -0 -0 1 
1 0 -228.59999999999999 2352.6749999999997 -0 -1 -0 
1 0 -266.69999999999999 0 -0 -0 1 
1 0 -228.59999999999999 0 -0 -1 -0 
1 139.69999999999999 -228.59999999999999 0 -0 -0 1 
1 139.69999999999999 -228.59999999999999 2352.6749999999997 -0 -1 -0 
1 139.69999999999999 -266.69999999999999 0 -0 -0 1 
1 139.69999999999999 -228.59999999999999 0 -0 -1 -0 
1 0 -228.59999999999999 0 1 -0 -0 
1 0 -228.59999999999999 2352.6749999999997 1 -0 -0 
1 0 -266.69999999999999 0 1 -0 -0 
1 0 -266.69999999999999 2352.6749999999997 1 -0 -0 
1 0 -25.399999999999999 0 -0 -0 1 
1 0 -25.399999999999999 2352.6749999999997 -0 -1 -0 
1 0 -165.09999999999999 0 -0 -0 1 
1 0 -25.399999999999999 0 -0 -1 -0 
1 38.099999999999994 -25.399999999999999 0 -0 -0 1 
1 38.099999999999994 -25.399999999999999 2352.6749999999997 -0 -1 -0 
1 38.099999999999994 -165.09999999999999 0 -0 -0 1 
1 38.099999999999994 -25.399999999999999 0 -0 -1 -0 
1 0 -25.399999999999999 0 1 -0 -0 
1 0 -25.399999999999999 2352.6749999999997 1 -0 -0 
1 0 -165.09999999999999 0 1 -0 -0 
1 0 -165.09999999999999 2352.6749999999997 1 -0 -0 
1 0 -25.399999999999999 0 -0 -0 1 
1 0 -25.399999999999999 2352.6749999999997 -0 -1 -0 
1 0 -165.09999999999999 0 -0 -0 1 
1 0 -25.399999999999999 0 -0 -1 -0 
1 38.099999999999994 -25.399999999999999 0 -0 -0 1 
1 38.099999999999994 -25.399999999999999 2352.6749999999997 -0 -1 -0 
1 38.099999999999994 -165.09999999999999 0 -0 -0 1 
1 38.099999999999994 -25.399999999999999 0 -0 -1 -0 
1 0 -25.399999999999999 0 1 -0 -0 
1 0 -25.399999999999999 2352.6749999999997 1 -0 -0 
1 0 -165.09999999999999 0 1 -0 -0 
1 0 -165.09999999999999 2352.6749999999997 1 -0 -0 
1 0 -228.59999999999999 0 -0 -0 1 
1 0 -228.59999999999999 2352.6749999999997 -0 -1 -0 
1 0 -266.69999999999999 0 -0 -0 1 
1 0 -228.59999999999999 0 -0 -1 -0 
1 139.69999999999999 -228.59999999999999 0 -0 -0 1 
1 139.69999999999999 -228.59999999999999 2352.6749999999997 -0 -1 -0 
1 139.69999999999999 -266.69999999999999 0 -0 -0 1 
1 139.69999999999999 -228.59999999999999 0 -0 -1 -0 
1 0 -228.59999999999999 0 1 -0 -0 
1 0 -228.59999999999999 2352.6749999999997 1 -0 -0 
1 0 -266.69999999999999 0 1 -0 -0 
1 0 -266.69999999999999 2352.6749999999997 1 -0 -0 
1 0 -25.399999999999999 0 -0 -0 1 
1 0 -25.399999999999999 2352.6749999999997 -0 -1 -0 
1 0 -165.09999999999999 0 -0 -0 1 
1 0 -25.399999999999999 0 -0 -1 -0 
1 38.099999999999994 -25.399999999999999 0 -0 -0 1 
1 38.099999999999994 -25.399999999999999 2352.6749999999997 -0 -1 -0 
1 38.099999999999994 -165.09999999999999 0 -0 -0 1 
1 38.099999999999994 -25.399999999999999 0 -0 -1 -0 
1 0 -25.399999999999999 0 1 -0 -0 
1 0 -25.399999999999999 2352.6749999999997 1 -0 -0 
1 0 -165.09999999999999 0 1 -0 -0 
1 0 -165.09999999999999 2352.6749999999997 1 -0 -0 
1 0 0 0 -0 -0 1 
1 0 0 2438.3999999999996 -0 -1 -0 
1 0 -12.699999999999999 0 -0 -0 1 
1 0 0 0 -0 -1 -0 
1 1219.1999999999998 0 0 -0 -0 1 
1 1219.1999999999998 0 2438.3999999999996 -0 -1 -0 
1 1219.1999999999998 -12.699999999999999 0 -0 -0 1 
1 1219.1999999999998 0 0 -0 -1 -0 
1 0 0 0 1 -0 -0 
1 0 0 2438.3999999999996 1 -0 -0 
1 0 -12.699999999999999 0 1 -0 -0 
1 0 -12.699999999999999 2438.3999999999996 1 -0 -0 
Polygon3D 0
PolygonOnTriangulations 0
Surfaces 72
1 0 -25.399999999999999 0 1 -0 -0 -0 -0 1 -0 1 -0 
1 1219.1999999999998 -25.399999999999999 0 1 -0 -0 -0 -0 1 -0 1 -0 
1 0 -25.399999999999999 0 -0 -1 -0 -0 -0 1 1 -0 -0 
1 0 -165.09999999999999 0 -0 -1 -0 -0 -0 1 1 -0 -0 
1 0 -25.399999999999999 0 -0 -0 1 1 -0 -0 -0 -1 -0 
1 0 -25.399999999999999 38.099999999999994 -0 -0 1 1 -0 -0 -0 -1 -0 
1 0 -25.399999999999999 0 1 -0 -0 -0 -0 1 -0 1 -0 
1 1219.1999999999998 -25.399999999999999 0 1 -0 -0 -0 -0 1 -0 1 -0 
1 0 -25.399999999999999 0 -0 -1 -0 -0 -0 1 1 -0 -0 
1 0 -165.09999999999999 0 -0 -1 -0 -0 -0 1 1 -0 -0 
1 0 -25.399999999999999 0 -0 -0 1 1 -0 -0 -0 -1 -0 
1 0 -25.399999999999999 38.099999999999994 -0 -0 1 1 -0 -0 -0 -1 -0 
1 0 -25.399999999999999 0 1 -0 -0 -0 -0 1 -0 1 -0 
1 38.099999999999994 -25.399999999999999 0 1 -0 -0 -0 -0 1 -0 1 -0 
1 0 -25.399999999999999 0 -0 -1 -0 -0 -0 1 1 -0 -0 
1 0 -165.09999999999999 0 -0 -1 -0 -0 -0 1 1 -0 -0 
1 0 -25.399999999999999 0 -0 -0 1 1 -0 -0 -0 -1 -0 
1 0 -25.399999999999999 2352.6749999999997 -0 -0 1 1 -0 -0 -0 -1 -0 
1 0 -25.399999999999999 0 1 -0 -0 -0 -0 1 -0 1 -0 
1 38.099999999999994 -25.399999999999999 0 1 -0 -0 -0 -0 1 -0 1 -0 
1 0 -25.399999999999999 0 -0 -1 -0 -0 -0 1 1 -0 -0 
1 0 -165.09999999999999 0 -0 -1 -0 -0 -0 1 1 -0 -0 
1 0 -25.399999999999999 0 -0 -0 1 1 -0 -0 -0 -1 -0 
1 0 -25.399999999999999 2352.6749999999997 -0 -0 1 1 -0 -0 -0 -1 -0 
1 0 -25.399999999999999 0 1 -0 -0 -0 -0 1 -0 1 -0 
1 38.099999999999994 -25.399999999999999 0 1 -0 -0 -0 -0 1 -0 1 -0 
1 0 -25.399999999999999 0 -0 -1 -0 -0 -0 1 1 -0 -0 
1 0 -165.09999999999999 0 -0 -1 -0 -0 -0 1 1 -0 -0 
1 0 -25.399999999999999 0 -0 -0 1 1 -0 -0 -0 -1 -0 
1 0 -25.399999999999999 2352.6749999999997 -0 -0 1 1 -0 -0 -0 -1 -0 
1 0 -25.399999999999999 0 1 -0 -0 -0 -0 1 -0 1 -0 
1 38.099999999999994 -25.399999999999999 0 1 -0 -0 -0 -0 1 -0 1 -0 
1 0 -25.399999999999999 0 -0 -1 -0 -0 -0 1 1 -0 -0 
1 0 -165.09999999999999 0 -0 -1 -0 -0 -0 1 1 -0 -0 
1 0 -25.399999999999999 0 -0 -0 1 1 -0 -0 -0 -1 -0 
1 0 -25.399999999999999 2352.6749999999997 -0 -0 1 1 -0 -0 -0 -1 -0 
1 0 -228.59999999999999 0 1 -0 -0 -0 -0 1 -0 1 -0 
1 139.69999999999999 -228.59999999999999 0 1 -0 -0 -0 -0 1 -0 1 -0 
1 0 -228.59999999999999 0 -0 -1 -0 -0 -0 1 1 -0 -0 
1 0 -266.69999999999999 0 -0 -1 -0 -0 -0 1 1 -0 -0 
1 0 -228.59999999999999 0 -0 -0 1 1 -0 -0 -0 -1 -0 
1 0 -228.59999999999999 2352.6749999999997 -0 -0 1 1 -0 -0 -0 -1 -0 
1 0 -25.399999999999999 0 1 -0 -0 -0 -0 1 -0 1 -0 
1 38.099999999999994 -25.399999999999999 0 1 -0 -0 -0 -0 1 -0 1 -0 
1 0 -25.399999999999999 0 -0 -1 -0 -0 -0 1 1 -0 -0 
1 0 -165.09999999999999 0 -0 -1 -0 -0 -0 1 1 -0 -0 
1 0 -25.399999999999999 0 -0 -0 1 1 -0 -0 -0 -1 -0 
1 0 -25.399999999999999 2352.6749999999997 -0 -0 1 1 -0 -0 -0 -1 -0 
1 0 -25.399999999999999 0 1 -0 -0 -0 -0 1 -0 1 -0 
1 38.099999999999994 -25.399999999999999 0 1 -0 -0 -0 -0 1 -0 1 -0 
1 0 -25.399999999999999 0 -0 -1 -0 -0 -0 1 1 -0 -0 
1 0 -165.09999999999999 0 -0 -1 -0 -0 -0 1 1 -0 -0 
1 0 -25.399999999999999 0 -0 -0 1 1 -0 -0 -0 -1 -0 
1 0 -25.399999999999999 2352.6749999999997 -0 -0 1 1 -0 -0 -0 -1 -0 
1 0 -228.59999999999999 0 1 -0 -0 -0 -0 1 -0 1 -0 
1 139.69999999999999 -228.59999999999999 0 1 -0 -0 -0 -0 1 -0 1 -0 
1 0 -228.59999999999999 0 -0 -1 -0 -0 -0 1 1 -0 -0 
1 0 -266.69999999999999 0 -0 -1 -0 -0 -0 1 1 -0 -0 
1 0 -228.59999999999999 0 -0 -0 1 1 -0 -0 -0 -1 -0 
1 0 -228.59999999999999 2352.6749999999997 -0 -0 1 1 -0 -0 -0 -1 -0 
1 0 -25.399999999999999 0 1 -0 -0 -0 -0 1 -0 1 -0 
1 38.099999999999994 -25.399999999999999 0 1 -0 -0 -0 -0 1 -0 1 -0 
1 0 -25.399999999999999 0 -0 -1 -0 -0 -0 1 1 -0 -0 
1 0 -165.09999999999999 0 -0 -1 -0 -0 -0 1 1 -0 -0 
1 0 -25.399999999999999 0 -0 -0 1 1 -0 -0 -0 -1 -0 
1 0 -25.399999999999999 2352.6749999999997 -0 -0 1 1 -0 -0 -0 -1 -0 
1 0 0 0 1 -0 -0 -0 -0 1 -0 1 -0 
1 1219.1999999999998 0 0 1 -0 -0 -0 -0 1 -0 1 -0 
1 0 0 0 -0 -1 -0 -0 -0 1 1 -0 -0 
1 0 -12.699999999999999 0 -0 -1 -0 -0 -0 1 1 -0 -0 
1 0 0 0 -0 -0 1 1 -0 -0 -0 -1 -0 
1 0 0 2438.3999999999996 -0 -0 1 1 -0 -0 -0 -1 -0 
Triangulations 0

TShapes 409
Ve
1e-07
0 -12.7 38.1
0 0

0101101
*
Ve
1e-07
0 -12.7 0
0 0

0101101
*
Ed
 1e-07 1 1 0
1  1 0 0 38.1
0

0101000
-409 5 +408 5 *
Ve
1e-07
0 -152.4 38.1
0 0

0101101
*
Ed
 1e-07 1 1 0
1  2 0 0 139.7
0

0101000
-406 5 +409 5 *
Ve
1e-07
0 -152.4 0
0 0

0101101
*
Ed
 1e-07 1 1 0
1  3 0 0 38.1
0

0101000
-406 5 +404 5 *
Ed
 1e-07 1 1 0
1  4 0 0 139.7
0

0101000
-404 5 +408 5 *
Wi

0101100
-407 0 -405 0 +403 0 +402 0 *
Fa
0  1e-07 1 0

0111000
+401 0 *
Ve
1e-07
1219.2 -12.7 38.1
0 0

0101101
*
Ve
1e-07
1219.2 -12.7 0
0 0

0101101
*
Ed
 1e-07 1 1 0
1  5 0 0 38.1
0

0101000
-399 5 +398 5 *
Ve
1e-07
1219.2 -152.4 38.1
0 0

0101101
*
Ed
 1e-07 1 1 0
1  6 0 0 139.7
0

0101000
-396 5 +399 5 *
Ve
1e-07
1219.2 -152.4 0
0 0

0101101
*
Ed
 1e-07 1 1 0
1  7 0 0 38.1
0

0101000
-396 5 +394 5 *
Ed
 1e-07 1 1 0
1  8 0 0 139.7
0

0101000
-394 5 +398 5 *
Wi

0101100
-397 0 -395 0 +393 0 +392 0 *
Fa
0  1e-07 2 0

0111000
+391 0 *
Ed
 1e-07 1 1 0
1  9 0 0 1219.2
0

0101000
-398 5 +408 5 *
Ed
 1e-07 1 1 0
1  10 0 0 1219.2
0

0101000
-399 5 +409 5 *
Wi

0101100
-389 0 -397 0 +388 0 +407 0 *
Fa
0  1e-07 3 0

0111000
+387 0 *
Ed
 1e-07 1 1 0
1  11 0 0 1219.2
0

0101000
-394 5 +404 5 *
Ed
 1e-07 1 1 0
1  12 0 0 1219.2
0

0101000
-396 5 +406 5 *
Wi

0101100
-385 0 -393 0 +384 0 +403 0 *
Fa
0  1e-07 4 0

0111000
+383 0 *
Wi

0101100
-402 0 -385 0 +392 0 +389 0 *
Fa
0  1e-07 5 0

0111000
+381 0 *
Wi

0101100
-405 0 -384 0 +395 0 +388 0 *
Fa
0  1e-07 6 0

0111000
+379 0 *
Sh

0101100
+400 0 -390 0 +386 0 -382 0 +380 0 -378 0 *
So

0100000
+377 0 *
Ve
1e-07
0 -12.7 2428.875
0 0

0101101
*
Ve
1e-07
0 -12.7 2390.775
0 0

0101101
*
Ed
 1e-07 1 1 0
1  13 0 0 38.1
0

0101000
-375 7 +374 7 *
Ve
1e-07
0 -152.4 2428.875
0 0

0101101
*
Ed
 1e-07 1 1 0
1  14 0 0 139.7
0

0101000
-372 7 +375 7 *
Ve
1e-07
0 -152.4 2390.775
0 0

0101101
*
Ed
 1e-07 1 1 0
1  15 0 0 38.1
0

0101000
-372 7 +370 7 *
Ed
 1e-07 1 1 0
1  16 0 0 139.7
0

0101000
-370 7 +374 7 *
Wi

0101100
-373 0 -371 0 +369 0 +368 0 *
Fa
0  1e-07 7 0

0111000
+367 0 *
Ve
1e-07
1219.2 -12.7 2428.875
0 0

0101101
*
Ve
1e-07
1219.2 -12.7 2390.775
0 0

0101101
*
Ed
 1e-07 1 1 0
1  17 0 0 38.1
0

0101000
-365 7 +364 7 *
Ve
1e-07
1219.2 -152.4 2428.875
0 0

0101101
*
Ed
 1e-07 1 1 0
1  18 0 0 139.7
0

0101000
-362 7 +365 7 *
Ve
1e-07
1219.2 -152.4 2390.775
0 0

0101101
*
Ed
 1e-07 1 1 0
1  19 0 0 38.1
0

0101000
-362 7 +360 7 *
Ed
 1e-07 1 1 0
1  20 0 0 139.7
0

0101000
-360 7 +364 7 *
Wi

0101100
-363 0 -361 0 +359 0 +358 0 *
Fa
0  1e-07 8 0

0111000
+357 0 *
Ed
 1e-07 1 1 0
1  21 0 0 1219.2
0

0101000
-364 7 +374 7 *
Ed
 1e-07 1 1 0
1  22 0 0 1219.2
0

0101000
-365 7 +375 7 *
Wi

0101100
-355 0 -363 0 +354 0 +373 0 *
Fa
0  1e-07 9 0

0111000
+353 0 *
Ed
 1e-07 1 1 0
1  23 0 0 1219.2
0

0101000
-360 7 +370 7 *
Ed
 1e-07 1 1 0
1  24 0 0 1219.2
0

0101000
-362 7 +372 7 *
Wi

0101100
-351 0 -359 0 +350 0 +369 0 *
Fa
0  1e-07 10 0

0111000
+349 0 *
Wi

0101100
-368 0 -351 0 +358 0 +355 0 *
Fa
0  1e-07 11 0

0111000
+347 0 *
Wi

0101100
-371 0 -350 0 +361 0 +354 0 *
Fa
0  1e-07 12 0

0111000
+345 0 *
Sh

0101100
+366 0 -356 0 +352 0 -348 0 +346 0 -344 0 *
So

0100000
+343 0 *
Ve
1e-07
0 -12.7 2390.775
0 0

0101101
*
Ve
1e-07
0 -12.7 38.1
0 0

0101101
*
Ed
 1e-07 1 1 0
1  25 0 0 2352.675
0

0101000
-341 9 +340 9 *
Ve
1e-07
0 -152.4 2390.775
0 0

0101101
*
Ed
 1e-07 1 1 0
1  26 0 0 139.7
0

0101000
-338 9 +341 9 *
Ve
1e-07
0 -152.4 38.1
0 0

0101101
*
Ed
 1e-07 1 1 0
1  27 0 0 2352.675
0

0101000
-338 9 +336 9 *
Ed
 1e-07 1 1 0
1  28 0 0 139.7
0

0101000
-336 9 +340 9 *
Wi

0101100
-339 0 -337 0 +335 0 +334 0 *
Fa
0  1e-07 13 0

0111000
+333 0 *
Ve
1e-07
38.1 -12.7 2390.775
0 0

0101101
*
Ve
1e-07
38.1 -12.7 38.1
0 0

0101101
*
Ed
 1e-07 1 1 0
1  29 0 0 2352.675
0

0101000
-331 9 +330 9 *
Ve
1e-07
38.1 -152.4 2390.775
0 0

0101101
*
Ed
 1e-07 1 1 0
1  30 0 0 139.7
0

0101000
-328 9 +331 9 *
Ve
1e-07
38.1 -152.4 38.1
0 0

0101101
*
Ed
 1e-07 1 1 0
1  31 0 0 2352.675
0

0101000
-328 9 +326 9 *
Ed
 1e-07 1 1 0
1  32 0 0 139.7
0

0101000
-326 9 +330 9 *
Wi

0101100
-329 0 -327 0 +325 0 +324 0 *
Fa
0  1e-07 14 0

0111000
+323 0 *
Ed
 1e-07 1 1 0
1  33 0 0 38.1
0

0101000
-330 9 +340 9 *
Ed
 1e-07 1 1 0
1  34 0 0 38.1
0

0101000
-331 9 +341 9 *
Wi

0101100
-321 0 -329 0 +320 0 +339 0 *
Fa
0  1e-07 15 0

0111000
+319 0 *
Ed
 1e-07 1 1 0
1  35 0 0 38.1
0

0101000
-326 9 +336 9 *
Ed
 1e-07 1 1 0
1  36 0 0 38.1
0

0101000
-328 9 +338 9 *
Wi

0101100
-317 0 -325 0 +316 0 +335 0 *
Fa
0  1e-07 16 0

0111000
+315 0 *
Wi

0101100
-334 0 -317 0 +324 0 +321 0 *
Fa
0  1e-07 17 0

0111000
+313 0 *
Wi

0101100
-337 0 -316 0 +327 0 +320 0 *
Fa
0  1e-07 18 0

0111000
+311 0 *
Sh

0101100
+332 0 -322 0 +318 0 -314 0 +312 0 -310 0 *
So

0100000
+309 0 *
Ve
1e-07
609.6 -12.7 2390.775
0 0

0101101
*
Ve
1e-07
609.6 -12.7 38.1
0 0

0101101
*
Ed
 1e-07 1 1 0
1  37 0 0 2352.675
0

0101000
-307 11 +306 11 *
Ve
1e-07
609.6 -152.4 2390.775
0 0

0101101
*
Ed
 1e-07 1 1 0
1  38 0 0 139.7
0

0101000
-304 11 +307 11 *
Ve
1e-07
609.6 -152.4 38.1
0 0

0101101
*
Ed
 1e-07 1 1 0
1  39 0 0 2352.675
0

0101000
-304 11 +302 11 *
Ed
 1e-07 1 1 0
1  40 0 0 139.7
0

0101000
-302 11 +306 11 *
Wi

0101100
-305 0 -303 0 +301 0 +300 0 *
Fa
0  1e-07 19 0

0111000
+299 0 *
Ve
1e-07
647.7 -12.7 2390.775
0 0

0101101
*
Ve
1e-07
647.7 -12.7 38.1
0 0

0101101
*
Ed
 1e-07 1 1 0
1  41 0 0 2352.675
0

0101000
-297 11 +296 11 *
Ve
1e-07
647.7 -152.4 2390.775
0 0

0101101
*
Ed
 1e-07 1 1 0
1  42 0 0 139.7
0

0101000
-294 11 +297 11 *
Ve
1e-07
647.7 -152.4 38.1
0 0

0101101
*
Ed
 1e-07 1 1 0
1  43 0 0 2352.675
0

0101000
-294 11 +292 11 *
Ed
 1e-07 1 1 0
1  44 0 0 139.7
0

0101000
-292 11 +296 11 *
Wi

0101100
-295 0 -293 0 +291 0 +290 0 *
Fa
0  1e-07 20 0

0111000
+289 0 *
Ed
 1e-07 1 1 0
1  45 0 0 38.1
0

0101000
-296 11 +306 11 *
Ed
 1e-07 1 1 0
1  46 0 0 38.1
0

0101000
-297 11 +307 11 *
Wi

0101100
-287 0 -295 0 +286 0 +305 0 *
Fa
0  1e-07 21 0

0111000
+285 0 *
Ed
 1e-07 1 1 0
1  47 0 0 38.1
0

0101000
-292 11 +302 11 *
Ed
 1e-07 1 1 0
1  48 0 0 38.1
0

0101000
-294 11 +304 11 *
Wi

0101100
-283 0 -291 0 +282 0 +301 0 *
Fa
0  1e-07 22 0

0111000
+281 0 *
Wi

0101100
-300 0 -283 0 +290 0 +287 0 *
Fa
0  1e-07 23 0

0111000
+279 0 *
Wi

0101100
-303 0 -282 0 +293 0 +286 0 *
Fa
0  1e-07 24 0

0111000
+277 0 *
Sh

0101100
+298 0 -288 0 +284 0 -280 0 +278 0 -276 0 *
So

0100000
+275 0 *
Ve
1e-07
1181.1 -12.7 2390.775
0 0

0101101
*
Ve
1e-07
1181.1 -12.7 38.1
0 0

0101101
*
Ed
 1e-07 1 1 0
1  49 0 0 2352.675
0

0101000
-273 13 +272 13 *
Ve
1e-07
1181.1 -152.4 2390.775
0 0

0101101
*
Ed
 1e-07 1 1 0
1  50 0 0 139.7
0

0101000
-270 13 +273 13 *
Ve
1e-07
1181.1 -152.4 38.1
0 0

0101101
*
Ed
 1e-07 1 1 0
1  51 0 0 2352.675
0

0101000
-270 13 +268 13 *
Ed
 1e-07 1 1 0
1  52 0 0 139.7
0

0101000
-268 13 +272 13 *
Wi

0101100
-271 0 -269 0 +267 0 +266 0 *
Fa
0  1e-07 25 0

0111000
+265 0 *
Ve
1e-07
1219.2 -12.7 2390.775
0 0

0101101
*
Ve
1e-07
1219.2 -12.7 38.1
0 0

0101101
*
Ed
 1e-07 1 1 0
1  53 0 0 2352.675
0

0101000
-263 13 +262 13 *
Ve
1e-07
1219.2 -152.4 2390.775
0 0

0101101
*
Ed
 1e-07 1 1 0
1  54 0 0 139.7
0

0101000
-260 13 +263 13 *
Ve
1e-07
1219.2 -152.4 38.1
0 0

0101101
*
Ed
 1e-07 1 1 0
1  55 0 0 2352.675
0

0101000
-260 13 +258 13 *
Ed
 1e-07 1 1 0
1  56 0 0 139.7
0

0101000
-258 13 +262 13 *
Wi

0101100
-261 0 -259 0 +257 0 +256 0 *
Fa
0  1e-07 26 0

0111000
+255 0 *
Ed
 1e-07 1 1 0
1  57 0 0 38.1
0

0101000
-262 13 +272 13 *
Ed
 1e-07 1 1 0
1  58 0 0 38.1
0

0101000
-263 13 +273 13 *
Wi

0101100
-253 0 -261 0 +252 0 +271 0 *
Fa
0  1e-07 27 0

0111000
+251 0 *
Ed
 1e-07 1 1 0
1  59 0 0 38.1
0

0101000
-258 13 +268 13 *
Ed
 1e-07 1 1 0
1  60 0 0 38.1
0

0101000
-260 13 +270 13 *
Wi

0101100
-249 0 -257 0 +248 0 +267 0 *
Fa
0  1e-07 28 0

0111000
+247 0 *
Wi

0101100
-266 0 -249 0 +256 0 +253 0 *
Fa
0  1e-07 29 0

0111000
+245 0 *
Wi

0101100
-269 0 -248 0 +259 0 +252 0 *
Fa
0  1e-07 30 0

0111000
+243 0 *
Sh

0101100
+264 0 -254 0 +250 0 -246 0 +244 0 -242 0 *
So

0100000
+241 0 *
Ve
1e-07
0 -12.7 2390.775
0 0

0101101
*
Ve
1e-07
0 -12.7 38.1
0 0

0101101
*
Ed
 1e-07 1 1 0
1  61 0 0 2352.675
0

0101000
-239 15 +238 15 *
Ve
1e-07
0 -152.4 2390.775
0 0

0101101
*
Ed
 1e-07 1 1 0
1  62 0 0 139.7
0

0101000
-236 15 +239 15 *
Ve
1e-07
0 -152.4 38.1
0 0

0101101
*
Ed
 1e-07 1 1 0
1  63 0 0 2352.675
0

0101000
-236 15 +234 15 *
Ed
 1e-07 1 1 0
1  64 0 0 139.7
0

0101000
-234 15 +238 15 *
Wi

0101100
-237 0 -235 0 +233 0 +232 0 *
Fa
0  1e-07 31 0

0111000
+231 0 *
Ve
1e-07
38.1 -12.7 2390.775
0 0

0101101
*
Ve
1e-07
38.1 -12.7 38.1
0 0

0101101
*
Ed
 1e-07 1 1 0
1  65 0 0 2352.675
0

0101000
-229 15 +228 15 *
Ve
1e-07
38.1 -152.4 2390.775
0 0

0101101
*
Ed
 1e-07 1 1 0
1  66 0 0 139.7
0

0101000
-226 15 +229 15 *
Ve
1e-07
38.1 -152.4 38.1
0 0

0101101
*
Ed
 1e-07 1 1 0
1  67 0 0 2352.675
0

0101000
-226 15 +224 15 *
Ed
 1e-07 1 1 0
1  68 0 0 139.7
0

0101000
-224 15 +228 15 *
Wi

0101100
-227 0 -225 0 +223 0 +222 0 *
Fa
0  1e-07 32 0

0111000
+221 0 *
Ed
 1e-07 1 1 0
1  69 0 0 38.1
0

0101000
-228 15 +238 15 *
Ed
 1e-07 1 1 0
1  70 0 0 38.1
0

0101000
-229 15 +239 15 *
Wi

0101100
-219 0 -227 0 +218 0 +237 0 *
Fa
0  1e-07 33 0

0111000
+217 0 *
Ed
 1e-07 1 1 0
1  71 0 0 38.1
0

0101000
-224 15 +234 15 *
Ed
 1e-07 1 1 0
1  72 0 0 38.1
0

0101000
-226 15 +236 15 *
Wi

0101100
-215 0 -223 0 +214 0 +233 0 *
Fa
0  1e-07 34 0

0111000
+213 0 *
Wi

0101100
-232 0 -215 0 +222 0 +219 0 *
Fa
0  1e-07 35 0

0111000
+211 0 *
Wi

0101100
-235 0 -214 0 +225 0 +218 0 *
Fa
0  1e-07 36 0

0111000
+209 0 *
Sh

0101100
+230 0 -220 0 +216 0 -212 0 +210 0 -208 0 *
So

0100000
+207 0 *
Ve
1e-07
38.1 -114.3 2390.775
0 0

0101101
*
Ve
1e-07
38.1 -114.3 38.1
0 0

0101101
*
Ed
 1e-07 1 1 0
1  73 0 0 2352.675
0

0101000
-205 17 +204 17 *
Ve
1e-07
38.1 -152.4 2390.775
0 0

0101101
*
Ed
 1e-07 1 1 0
1  74 0 0 38.1
0

0101000
-202 17 +205 17 *
Ve
1e-07
38.1 -152.4 38.1
0 0

0101101
*
Ed
 1e-07 1 1 0
1  75 0 0 2352.675
0

0101000
-202 17 +200 17 *
Ed
 1e-07 1 1 0
1  76 0 0 38.1
0

0101000
-200 17 +204 17 *
Wi

0101100
-203 0 -201 0 +199 0 +198 0 *
Fa
0  1e-07 37 0

0111000
+197 0 *
Ve
1e-07
177.8 -114.3 2390.775
0 0

0101101
*
Ve
1e-07
177.8 -114.3 38.1
0 0

0101101
*
Ed
 1e-07 1 1 0
1  77 0 0 2352.675
0

0101000
-195 17 +194 17 *
Ve
1e-07
177.8 -152.4 2390.775
0 0

0101101
*
Ed
 1e-07 1 1 0
1  78 0 0 38.1
0

0101000
-192 17 +195 17 *
Ve
1e-07
177.8 -152.4 38.1
0 0

0101101
*
Ed
 1e-07 1 1 0
1  79 0 0 2352.675
0

0101000
-192 17 +190 17 *
Ed
 1e-07 1 1 0
1  80 0 0 38.1
0

0101000
-190 17 +194 17 *
Wi

0101100
-193 0 -191 0 +189 0 +188 0 *
Fa
0  1e-07 38 0

0111000
+187 0 *
Ed
 1e-07 1 1 0
1  81 0 0 139.7
0

0101000
-194 17 +204 17 *
Ed
 1e-07 1 1 0
1  82 0 0 139.7
0

0101000
-195 17 +205 17 *
Wi

0101100
-185 0 -193 0 +184 0 +203 0 *
Fa
0  1e-07 39 0

0111000
+183 0 *
Ed
 1e-07 1 1 0
1  83 0 0 139.7
0

0101000
-190 17 +200 17 *
Ed
 1e-07 1 1 0
1  84 0 0 139.7
0

0101000
-192 17 +202 17 *
Wi

0101100
-181 0 -189 0 +180 0 +199 0 *
Fa
0  1e-07 40 0

0111000
+179 0 *
Wi

0101100
-198 0 -181 0 +188 0 +185 0 *
Fa
0  1e-07 41 0

0111000
+177 0 *
Wi

0101100
-201 0 -180 0 +191 0 +184 0 *
Fa
0  1e-07 42 0

0111000
+175 0 *
Sh

0101100
+196 0 -186 0 +182 0 -178 0 +176 0 -174 0 *
So

0100000
+173 0 *
Ve
1e-07
177.8 -12.7 2390.775
0 0

0101101
*
Ve
1e-07
177.8 -12.7 38.1
0 0

0101101
*
Ed
 1e-07 1 1 0
1  85 0 0 2352.675
0

0101000
-171 19 +170 19 *
Ve
1e-07
177.8 -152.4 2390.775
0 0

0101101
*
Ed
 1e-07 1 1 0
1  86 0 0 139.7
0

0101000
-168 19 +171 19 *
Ve
1e-07
177.8 -152.4 38.1
0 0

0101101
*
Ed
 1e-07 1 1 0
1  87 0 0 2352.675
0

0101000
-168 19 +166 19 *
Ed
 1e-07 1 1 0
1  88 0 0 139.7
0

0101000
-166 19 +170 19 *
Wi

0101100
-169 0 -167 0 +165 0 +164 0 *
Fa
0  1e-07 43 0

0111000
+163 0 *
Ve
1e-07
215.9 -12.7 2390.775
0 0

0101101
*
Ve
1e-07
215.9 -12.7 38.1
0 0

0101101
*
Ed
 1e-07 1 1 0
1  89 0 0 2352.675
0

0101000
-161 19 +160 19 *
Ve
1e-07
215.9 -152.4 2390.775
0 0

0101101
*
Ed
 1e-07 1 1 0
1  90 0 0 139.7
0

0101000
-158 19 +161 19 *
Ve
1e-07
215.9 -152.4 38.1
0 0

0101101
*
Ed
 1e-07 1 1 0
1  91 0 0 2352.675
0

0101000
-158 19 +156 19 *
Ed
 1e-07 1 1 0
1  92 0 0 139.7
0

0101000
-156 19 +160 19 *
Wi

0101100
-159 0 -157 0 +155 0 +154 0 *
Fa
0  1e-07 44 0

0111000
+153 0 *
Ed
 1e-07 1 1 0
1  93 0 0 38.1
0

0101000
-160 19 +170 19 *
Ed
 1e-07 1 1 0
1  94 0 0 38.1
0

0101000
-161 19 +171 19 *
Wi

0101100
-151 0 -159 0 +150 0 +169 0 *
Fa
0  1e-07 45 0

0111000
+149 0 *
Ed
 1e-07 1 1 0
1  95 0 0 38.1
0

0101000
-156 19 +166 19 *
Ed
 1e-07 1 1 0
1  96 0 0 38.1
0

0101000
-158 19 +168 19 *
Wi

0101100
-147 0 -155 0 +146 0 +165 0 *
Fa
0  1e-07 46 0

0111000
+145 0 *
Wi

0101100
-164 0 -147 0 +154 0 +151 0 *
Fa
0  1e-07 47 0

0111000
+143 0 *
Wi

0101100
-167 0 -146 0 +157 0 +150 0 *
Fa
0  1e-07 48 0

0111000
+141 0 *
Sh

0101100
+162 0 -152 0 +148 0 -144 0 +142 0 -140 0 *
So

0100000
+139 0 *
Ve
1e-07
1181.1 -12.7 2390.775
0 0

0101101
*
Ve
1e-07
1181.1 -12.7 38.1
0 0

0101101
*
Ed
 1e-07 1 1 0
1  97 0 0 2352.675
0

0101000
-137 21 +136 21 *
Ve
1e-07
1181.1 -152.4 2390.775
0 0

0101101
*
Ed
 1e-07 1 1 0
1  98 0 0 139.7
0

0101000
-134 21 +137 21 *
Ve
1e-07
1181.1 -152.4 38.1
0 0

0101101
*
Ed
 1e-07 1 1 0
1  99 0 0 2352.675
0

0101000
-134 21 +132 21 *
Ed
 1e-07 1 1 0
1  100 0 0 139.7
0

0101000
-132 21 +136 21 *
Wi

0101100
-135 0 -133 0 +131 0 +130 0 *
Fa
0  1e-07 49 0

0111000
+129 0 *
Ve
1e-07
1219.2 -12.7 2390.775
0 0

0101101
*
Ve
1e-07
1219.2 -12.7 38.1
0 0

0101101
*
Ed
 1e-07 1 1 0
1  101 0 0 2352.675
0

0101000
-127 21 +126 21 *
Ve
1e-07
1219.2 -152.4 2390.775
0 0

0101101
*
Ed
 1e-07 1 1 0
1  102 0 0 139.7
0

0101000
-124 21 +127 21 *
Ve
1e-07
1219.2 -152.4 38.1
0 0

0101101
*
Ed
 1e-07 1 1 0
1  103 0 0 2352.675
0

0101000
-124 21 +122 21 *
Ed
 1e-07 1 1 0
1  104 0 0 139.7
0

0101000
-122 21 +126 21 *
Wi

0101100
-125 0 -123 0 +121 0 +120 0 *
Fa
0  1e-07 50 0

0111000
+119 0 *
Ed
 1e-07 1 1 0
1  105 0 0 38.1
0

0101000
-126 21 +136 21 *
Ed
 1e-07 1 1 0
1  106 0 0 38.1
0

0101000
-127 21 +137 21 *
Wi

0101100
-117 0 -125 0 +116 0 +135 0 *
Fa
0  1e-07 51 0

0111000
+115 0 *
Ed
 1e-07 1 1 0
1  107 0 0 38.1
0

0101000
-122 21 +132 21 *
Ed
 1e-07 1 1 0
1  108 0 0 38.1
0

0101000
-124 21 +134 21 *
Wi

0101100
-113 0 -121 0 +112 0 +131 0 *
Fa
0  1e-07 52 0

0111000
+111 0 *
Wi

0101100
-130 0 -113 0 +120 0 +117 0 *
Fa
0  1e-07 53 0

0111000
+109 0 *
Wi

0101100
-133 0 -112 0 +123 0 +116 0 *
Fa
0  1e-07 54 0

0111000
+107 0 *
Sh

0101100
+128 0 -118 0 +114 0 -110 0 +108 0 -106 0 *
So

0100000
+105 0 *
Ve
1e-07
1041.4 -114.3 2390.775
0 0

0101101
*
Ve
1e-07
1041.4 -114.3 38.1
0 0

0101101
*
Ed
 1e-07 1 1 0
1  109 0 0 2352.675
0

0101000
-103 23 +102 23 *
Ve
1e-07
1041.4 -152.4 2390.775
0 0

0101101
*
Ed
 1e-07 1 1 0
1  110 0 0 38.1
0

0101000
-100 23 +103 23 *
Ve
1e-07
1041.4 -152.4 38.1
0 0

0101101
*
Ed
 1e-07 1 1 0
1  111 0 0 2352.675
0

0101000
-100 23 +98 23 *
Ed
 1e-07 1 1 0
1  112 0 0 38.1
0

0101000
-98 23 +102 23 *
Wi

0101100
-101 0 -99 0 +97 0 +96 0 *
Fa
0  1e-07 55 0

0111000
+95 0 *
Ve
1e-07
1181.1 -114.3 2390.775
0 0

0101101
*
Ve
1e-07
1181.1 -114.3 38.1
0 0

0101101
*
Ed
 1e-07 1 1 0
1  113 0 0 2352.675
0

0101000
-93 23 +92 23 *
Ve
1e-07
1181.1 -152.4 2390.775
0 0

0101101
*
Ed
 1e-07 1 1 0
1  114 0 0 38.1
0

0101000
-90 23 +93 23 *
Ve
1e-07
1181.1 -152.4 38.1
0 0

0101101
*
Ed
 1e-07 1 1 0
1  115 0 0 2352.675
0

0101000
-90 23 +88 23 *
Ed
 1e-07 1 1 0
1  116 0 0 38.1
0

0101000
-88 23 +92 23 *
Wi

0101100
-91 0 -89 0 +87 0 +86 0 *
Fa
0  1e-07 56 0

0111000
+85 0 *
Ed
 1e-07 1 1 0
1  117 0 0 139.7
0

0101000
-92 23 +102 23 *
Ed
 1e-07 1 1 0
1  118 0 0 139.7
0

0101000
-93 23 +103 23 *
Wi

0101100
-83 0 -91 0 +82 0 +101 0 *
Fa
0  1e-07 57 0

0111000
+81 0 *
Ed
 1e-07 1 1 0
1  119 0 0 139.7
0

0101000
-88 23 +98 23 *
Ed
 1e-07 1 1 0
1  120 0 0 139.7
0

0101000
-90 23 +100 23 *
Wi

0101100
-79 0 -87 0 +78 0 +97 0 *
Fa
0  1e-07 58 0

0111000
+77 0 *
Wi

0101100
-96 0 -79 0 +86 0 +83 0 *
Fa
0  1e-07 59 0

0111000
+75 0 *
Wi

0101100
-99 0 -78 0 +89 0 +82 0 *
Fa
0  1e-07 60 0

0111000
+73 0 *
Sh

0101100
+94 0 -84 0 +80 0 -76 0 +74 0 -72 0 *
So

0100000
+71 0 *
Ve
1e-07
1003.3 -12.7 2390.775
0 0

0101101
*
Ve
1e-07
1003.3 -12.7 38.1
0 0

0101101
*
Ed
 1e-07 1 1 0
1  121 0 0 2352.675
0

0101000
-69 25 +68 25 *
Ve
1e-07
1003.3 -152.4 2390.775
0 0

0101101
*
Ed
 1e-07 1 1 0
1  122 0 0 139.7
0

0101000
-66 25 +69 25 *
Ve
1e-07
1003.3 -152.4 38.1
0 0

0101101
*
Ed
 1e-07 1 1 0
1  123 0 0 2352.675
0

0101000
-66 25 +64 25 *
Ed
 1e-07 1 1 0
1  124 0 0 139.7
0

0101000
-64 25 +68 25 *
Wi

0101100
-67 0 -65 0 +63 0 +62 0 *
Fa
0  1e-07 61 0

0111000
+61 0 *
Ve
1e-07
1041.4 -12.7 2390.775
0 0

0101101
*
Ve
1e-07
1041.4 -12.7 38.1
0 0

0101101
*
Ed
 1e-07 1 1 0
1  125 0 0 2352.675
0

0101000
-59 25 +58 25 *
Ve
1e-07
1041.4 -152.4 2390.775
0 0

0101101
*
Ed
 1e-07 1 1 0
1  126 0 0 139.7
0

0101000
-56 25 +59 25 *
Ve
1e-07
1041.4 -152.4 38.1
0 0

0101101
*
Ed
 1e-07 1 1 0
1  127 0 0 2352.675
0

0101000
-56 25 +54 25 *
Ed
 1e-07 1 1 0
1  128 0 0 139.7
0

0101000
-54 25 +58 25 *
Wi

0101100
-57 0 -55 0 +53 0 +52 0 *
Fa
0  1e-07 62 0

0111000
+51 0 *
Ed
 1e-07 1 1 0
1  129 0 0 38.1
0

0101000
-58 25 +68 25 *
Ed
 1e-07 1 1 0
1  130 0 0 38.1
0

0101000
-59 25 +69 25 *
Wi

0101100
-49 0 -57 0 +48 0 +67 0 *
Fa
0  1e-07 63 0

0111000
+47 0 *
Ed
 1e-07 1 1 0
1  131 0 0 38.1
0

0101000
-54 25 +64 25 *
Ed
 1e-07 1 1 0
1  132 0 0 38.1
0

0101000
-56 25 +66 25 *
Wi

0101100
-45 0 -53 0 +44 0 +63 0 *
Fa
0  1e-07 64 0

0111000
+43 0 *
Wi

0101100
-62 0 -45 0 +52 0 +49 0 *
Fa
0  1e-07 65 0

0111000
+41 0 *
Wi

0101100
-65 0 -44 0 +55 0 +48 0 *
Fa
0  1e-07 66 0

0111000
+39 0 *
Sh

0101100
+60 0 -50 0 +46 0 -42 0 +40 0 -38 0 *
So

0100000
+37 0 *
Ve
1e-07
0 0 2438.4
0 0

0101101
*
Ve
1e-07
0 0 0
0 0

0101101
*
Ed
 1e-07 1 1 0
1  133 0 0 2438.4
0

0101000
-35 27 +34 27 *
Ve
1e-07
0 -12.7 2438.4
0 0

0101101
*
Ed
 1e-07 1 1 0
1  134 0 0 12.7
0

0101000
-32 27 +35 27 *
Ve
1e-07
0 -12.7 0
0 0

0101101
*
Ed
 1e-07 1 1 0
1  135 0 0 2438.4
0

0101000
-32 27 +30 27 *
Ed
 1e-07 1 1 0
1  136 0 0 12.7
0

0101000
-30 27 +34 27 *
Wi

0101100
-33 0 -31 0 +29 0 +28 0 *
Fa
0  1e-07 67 0

0111000
+27 0 *
Ve
1e-07
1219.2 0 2438.4
0 0

0101101
*
Ve
1e-07
1219.2 0 0
0 0

0101101
*
Ed
 1e-07 1 1 0
1  137 0 0 2438.4
0

0101000
-25 27 +24 27 *
Ve
1e-07
1219.2 -12.7 2438.4
0 0

0101101
*
Ed
 1e-07 1 1 0
1  138 0 0 12.7
0

0101000
-22 27 +25 27 *
Ve
1e-07
1219.2 -12.7 0
0 0

0101101
*
Ed
 1e-07 1 1 0
1  139 0 0 2438.4
0

0101000
-22 27 +20 27 *
Ed
 1e-07 1 1 0
1  140 0 0 12.7
0

0101000
-20 27 +24 27 *
Wi

0101100
-23 0 -21 0 +19 0 +18 0 *
Fa
0  1e-07 68 0

0111000
+17 0 *
Ed
 1e-07 1 1 0
1  141 0 0 1219.2
0

0101000
-24 27 +34 27 *
Ed
 1e-07 1 1 0
1  142 0 0 1219.2
0

0101000
-25 27 +35 27 *
Wi

0101100
-15 0 -23 0 +14 0 +33 0 *
Fa
0  1e-07 69 0

0111000
+13 0 *
Ed
 1e-07 1 1 0
1  143 0 0 1219.2
0

0101000
-20 27 +30 27 *
Ed
 1e-07 1 1 0
1  144 0 0 1219.2
0

0101000
-22 27 +32 27 *
Wi

0101100
-11 0 -19 0 +10 0 +29 0 *
Fa
0  1e-07 70 0

0111000
+9 0 *
Wi

0101100
-28 0 -11 0 +18 0 +15 0 *
Fa
0  1e-07 71 0

0111000
+7 0 *
Wi

0101100
-31 0 -10 0 +21 0 +14 0 *
Fa
0  1e-07 72 0

0111000
+5 0 *
Sh

0101100
+26 0 -16 0 +12 0 -8 0 +6 0 -4 0 *
So

0100000
+3 0 *
Co

1100000
+376 4 +342 6 +308 8 +274 10 +240 12 +206 14 +172 16 +138 18 +104 20 +70 22 
+36 24 +2 26 *

+1 3 