DBRep_DrawableShape

CASCADE Topology V1, (c) Matra-Datavision
Locations 27
1
              1               0               0               0 
              0               1               0               0 
              0               0               1               0 
1
              1               0               0              -0 
              0               1               0            12.7 
              0               0               1              -0 
2  1 1 2 1 0
1
              1               0               0               0 
              0               1               0               0 
              0               0               1               0 
2  2 -1 1 -1 4 -1 0
1
              1               0               0               0 
              0               1               0               0 
              0               0               1               0 
2  2 -1 1 -1 6 -1 0
1
              1               0               0               0 
              0               1               0               0 
              0               0               1               0 
2  2 -1 1 -1 8 -1 0
1
              1               0               0               0 
              0               1               0               0 
              0               0               1               0 
2  2 -1 1 -1 10 -1 0
1
              1               0               0               0 
              0               1               0               0 
              0               0               1               0 
2  2 -1 1 -1 12 -1 0
1
              1               0               0               0 
              0               1               0               0 
              0               0               1               0 
2  2 -1 1 -1 14 -1 0
1
              1               0               0               0 
              0               1               0               0 
              0               0               1               0 
2  2 -1 1 -1 16 -1 0
1
              1               0               0               0 
              0               1               0               0 
              0               0               1               0 
2  2 -1 1 -1 18 -1 0
1
              1               0               0               0 
              0               1               0               0 
              0               0               1               0 
2  2 -1 1 -1 20 -1 0
1
              1               0               0               0 
              0               1               0               0 
              0               0               1               0 
2  2 -1 1 -1 22 -1 0
1
              1               0               0               0 
              0               1               0               0 
              0               0               1               0 
2  2 -1 1 -1 24 -1 0
1
              1               0               0               0 
              0               1               0           -12.7 
              0               0               1               0 
2  2 -1 1 -1 26 -1 0
Curve2ds 0
Curves 144
1 0 -25.399999999999999 0 -0 -0 1 
1 0 -25.399999999999999 38.099999999999994 -0 -1 -0 
1 0 -165.09999999999999 0 -0 -0 1 
1 0 -25.399999999999999 0 -0 -1 -0 
1 1219.1999999999998 -25.399999999999999 0 -0 -0 1 
1 1219.1999999999998 -25.399999999999999 38.099999999999994 -0 -1 -0 
1 1219.1999999999998 -165.09999999999999 0 -0 -0 1 
1 1219.1999999999998 -25.399999999999999 0 -0 -1 -0 
1 0 -25.399999999999999 0 1 -0 -0 
1 0 -25.399999999999999 38.099999999999994 1 -0 -0 
1 0 -165.09999999999999 0 1 -0 -0 
1 0 -165.09999999999999 38.099999999999994 1 -0 -0 
1 0 -25.399999999999999 1450.9749999999999 -0 -0.97014250014533199 0.24253562503633269 
1 0 -165.09999999999999 1485.8999999999999 1 -0 -0 
1 38.099999999999994 -165.09999999999999 1485.8999999999999 0 0.97014250014533199 -0.24253562503633269 
1 38.099999999999994 -25.399999999999999 1450.9749999999999 -1 -0 -0 
1 0 -25.399999999999999 38.099999999999994 -0 -0 1 
1 38.099999999999994 -25.399999999999999 1450.9749999999999 -0 -0 -1 
1 0 -25.399999999999999 38.099999999999994 1 -0 -0 
1 38.099999999999994 -25.399999999999999 38.099999999999994 -0 -1 -0 
1 38.099999999999994 -165.09999999999999 38.099999999999994 -1 -0 -0 
1 0 -165.09999999999999 38.099999999999994 -0 1 -0 
1 38.099999999999994 -165.09999999999999 1485.8999999999999 -0 -0 -1 
1 0 -165.09999999999999 1485.8999999999999 -0 -0 -1 
1 590.54999999999995 -25.399999999999999 1450.9749999999999 -0 -0.97014250014533199 0.24253562503633269 
1 590.54999999999995 -165.09999999999999 1485.8999999999999 1 -0 -0 
1 628.64999999999998 -165.09999999999999 1485.8999999999999 0 0.97014250014533199 -0.24253562503633269 
1 628.64999999999998 -25.399999999999999 1450.9749999999999 -1 -0 -0 
1 590.54999999999995 -25.399999999999999 38.099999999999994 -0 -0 1 
1 628.64999999999998 -25.399999999999999 1450.9749999999999 -0 -0 -1 
1 590.54999999999995 -25.399999999999999 38.099999999999994 1 -0 -0 
1 628.64999999999998 -25.399999999999999 38.099999999999994 -0 -1 -0 
1 628.64999999999998 -165.09999999999999 38.099999999999994 -1 -0 -0 
1 590.54999999999995 -165.09999999999999 38.099999999999994 -0 1 -0 
1 628.64999999999998 -165.09999999999999 1485.8999999999999 -0 -0 -1 
1 590.54999999999995 -165.09999999999999 1485.8999999999999 -0 -0 -1 
1 1181.0999999999999 -25.399999999999999 1450.9749999999999 -0 -0.97014250014533199 0.24253562503633269 
1 1181.0999999999999 -165.09999999999999 1485.8999999999999 1 -0 -0 
1 1219.1999999999998 -165.09999999999999 1485.8999999999999 0 0.97014250014533199 -0.24253562503633269 
1 1219.1999999999998 -25.399999999999999 1450.9749999999999 -1 -0 -0 
1 1181.0999999999999 -25.399999999999999 38.099999999999994 -0 -0 1 
1 1219.1999999999998 -25.399999999999999 1450.9749999999999 -0 -0 -1 
1 1181.0999999999999 -25.399999999999999 38.099999999999994 1 -0 -0 
1 1219.1999999999998 -25.399999999999999 38.099999999999994 -0 -1 -0 
1 1219.1999999999998 -165.09999999999999 38.099999999999994 -1 -0 -0 
1 1181.0999999999999 -165.09999999999999 38.099999999999994 -0 1 -0 
1 1219.1999999999998 -165.09999999999999 1485.8999999999999 -0 -0 -1 
1 1181.0999999999999 -165.09999999999999 1485.8999999999999 -0 -0 -1 
1 0 -25.399999999999999 1450.9749999999999 -0 -0.97014250014533199 0.24253562503633269 
1 0 -165.09999999999999 1485.8999999999999 1 -0 -0 
1 38.099999999999994 -165.09999999999999 1485.8999999999999 0 0.97014250014533199 -0.24253562503633269 
1 38.099999999999994 -25.399999999999999 1450.9749999999999 -1 -0 -0 
1 0 -25.399999999999999 38.099999999999994 -0 -0 1 
1 38.099999999999994 -25.399999999999999 1450.9749999999999 -0 -0 -1 
1 0 -25.399999999999999 38.099999999999994 1 -0 -0 
1 38.099999999999994 -25.399999999999999 38.099999999999994 -0 -1 -0 
1 38.099999999999994 -165.09999999999999 38.099999999999994 -1 -0 -0 
1 0 -165.09999999999999 38.099999999999994 -0 1 -0 
1 38.099999999999994 -165.09999999999999 1485.8999999999999 -0 -0 -1 
1 0 -165.09999999999999 1485.8999999999999 -0 -0 -1 
1 38.099999999999994 -127 1476.375 -0 -0.97014250014533276 0.24253562503632975 
1 38.099999999999994 -165.09999999999999 1485.8999999999999 1 -0 -0 
1 177.79999999999998 -165.09999999999999 1485.8999999999999 0 0.97014250014533276 -0.24253562503632975 
1 177.79999999999998 -127 1476.375 -1 -0 -0 
1 38.099999999999994 -127 38.099999999999994 -0 -0 1 
1 177.79999999999998 -127 1476.375 -0 -0 -1 
1 38.099999999999994 -127 38.099999999999994 1 -0 -0 
1 177.79999999999998 -127 38.099999999999994 -0 -1 -0 
1 177.79999999999998 -165.09999999999999 38.099999999999994 -1 -0 -0 
1 38.099999999999994 -165.09999999999999 38.099999999999994 -0 1 -0 
1 177.79999999999998 -165.09999999999999 1485.8999999999999 -0 -0 -1 
1 38.099999999999994 -165.09999999999999 1485.8999999999999 -0 -0 -1 
1 177.79999999999998 -25.399999999999999 1450.9749999999999 -0 -0.97014250014533199 0.24253562503633269 
1 177.79999999999998 -165.09999999999999 1485.8999999999999 1 -0 -0 
1 215.89999999999998 -165.09999999999999 1485.8999999999999 0 0.97014250014533199 -0.24253562503633269 
1 215.89999999999998 -25.399999999999999 1450.9749999999999 -1 -0 -0 
1 177.79999999999998 -25.399999999999999 38.099999999999994 -0 -0 1 
1 215.89999999999998 -25.399999999999999 1450.9749999999999 -0 -0 -1 
1 177.79999999999998 -25.399999999999999 38.099999999999994 1 -0 -0 
1 215.89999999999998 -25.399999999999999 38.099999999999994 -0 -1 -0 
1 215.89999999999998 -165.09999999999999 38.099999999999994 -1 -0 -0 
1 177.79999999999998 -165.09999999999999 38.099999999999994 -0 1 -0 
1 215.89999999999998 -165.09999999999999 1485.8999999999999 -0 -0 -1 
1 177.79999999999998 -165.09999999999999 1485.8999999999999 -0 -0 -1 
1 1181.0999999999999 -25.399999999999999 1450.9749999999999 -0 -0.97014250014533199 0.24253562503633269 
1 1181.0999999999999 -165.09999999999999 1485.8999999999999 1 -0 -0 
1 1219.1999999999998 -165.09999999999999 1485.8999999999999 0 0.97014250014533199 -0.24253562503633269 
1 1219.1999999999998 -25.399999999999999 1450.9749999999999 -1 -0 -0 
1 1181.0999999999999 -25.399999999999999 38.099999999999994 -0 -0 1 
1 1219.1999999999998 -25.399999999999999 1450.9749999999999 -0 -0 -1 
1 1181.0999999999999 -25.399999999999999 38.099999999999994 1 -0 -0 
1 1219.1999999999998 -25.399999999999999 38.099999999999994 -0 -1 -0 
1 1219.1999999999998 -165.09999999999999 38.099999999999994 -1 -0 -0 
1 1181.0999999999999 -165.09999999999999 38.099999999999994 -0 1 -0 
1 1219.1999999999998 -165.09999999999999 1485.8999999999999 -0 -0 -1 
1 1181.0999999999999 -165.09999999999999 1485.8999999999999 -0 -0 -1 
1 1041.3999999999999 -127 1476.375 -0 -0.97014250014533276 0.24253562503632975 
1 1041.3999999999999 -165.09999999999999 1485.8999999999999 1 -0 -0 
1 1181.0999999999999 -165.09999999999999 1485.8999999999999 0 0.97014250014533276 -0.24253562503632975 
1 1181.0999999999999 -127 1476.375 -1 -0 -0 
1 1041.3999999999999 -127 38.099999999999994 -0 -0 1 
1 1181.0999999999999 -127 1476.375 -0 -0 -1 
1 1041.3999999999999 -127 38.099999999999994 1 -0 -0 
1 1181.0999999999999 -127 38.099999999999994 -0 -1 -0 
1 1181.0999999999999 -165.09999999999999 38.099999999999994 -1 -0 -0 
1 1041.3999999999999 -165.09999999999999 38.099999999999994 -0 1 -0 
1 1181.0999999999999 -165.09999999999999 1485.8999999999999 -0 -0 -1 
1 1041.3999999999999 -165.09999999999999 1485.8999999999999 -0 -0 -1 
1 1003.3 -25.399999999999999 1450.9749999999999 -0 -0.97014250014533199 0.24253562503633269 
1 1003.3 -165.09999999999999 1485.8999999999999 1 -0 -0 
1 1041.3999999999999 -165.09999999999999 1485.8999999999999 0 0.97014250014533199 -0.24253562503633269 
1 1041.3999999999999 -25.399999999999999 1450.9749999999999 -1 -0 -0 
1 1003.3 -25.399999999999999 38.099999999999994 -0 -0 1 
1 1041.3999999999999 -25.399999999999999 1450.9749999999999 -0 -0 -1 
1 1003.3 -25.399999999999999 38.099999999999994 1 -0 -0 
1 1041.3999999999999 -25.399999999999999 38.099999999999994 -0 -1 -0 
1 1041.3999999999999 -165.09999999999999 38.099999999999994 -1 -0 -0 
1 1003.3 -165.09999999999999 38.099999999999994 -0 1 -0 
1 1041.3999999999999 -165.09999999999999 1485.8999999999999 -0 -0 -1 
1 1003.3 -165.09999999999999 1485.8999999999999 -0 -0 -1 
1 0 -25.399999999999999 1489.0749999999998 -0 -0.97014250014533199 0.24253562503633269 
1 0 -165.09999999999999 1523.9999999999998 1 -0 -0 
1 1219.1999999999998 -165.09999999999999 1523.9999999999998 0 0.97014250014533199 -0.24253562503633269 
1 1219.1999999999998 -25.399999999999999 1489.0749999999998 -1 -0 -0 
1 0 -25.399999999999999 1450.9749999999999 -0 -0 1 
1 1219.1999999999998 -25.399999999999999 1489.0749999999998 -0 -0 -1 
1 0 -25.399999999999999 1450.9749999999999 1 -0 -0 
1 1219.1999999999998 -25.399999999999999 1450.9749999999999 -0 -0.97014250014533199 0.24253562503633269 
1 1219.1999999999998 -165.09999999999999 1485.8999999999999 -1 -0 -0 
1 0 -165.09999999999999 1485.8999999999999 0 0.97014250014533199 -0.24253562503633269 
1 1219.1999999999998 -165.09999999999999 1523.9999999999998 -0 -0 -1 
1 0 -165.09999999999999 1523.9999999999998 -0 -0 -1 
1 0 0 0 -0 -0 1 
1 0 0 1489.0749999999998 -0 -1 -0 
1 0 -12.699999999999999 0 -0 -0 1 
1 0 0 0 -0 -1 -0 
1 1219.1999999999998 0 0 -0 -0 1 
1 1219.1999999999998 0 1489.0749999999998 -0 -1 -0 
1 1219.1999999999998 -12.699999999999999 0 -0 -0 1 
1 1219.1999999999998 0 0 -0 -1 -0 
1 0 0 0 1 -0 -0 
1 0 0 1489.0749999999998 1 -0 -0 
1 0 -12.699999999999999 0 1 -0 -0 
1 0 -12.699999999999999 1489.0749999999998 1 -0 -0 
Polygon3D 0
PolygonOnTriangulations 0
Surfaces 72
1 0 -25.399999999999999 0 1 -0 -0 -0 -0 1 -0 1 -0 
1 1219.1999999999998 -25.399999999999999 0 1 -0 -0 -0 -0 1 -0 1 -0 
1 0 -25.399999999999999 0 -0 -1 -0 -0 -0 1 1 -0 -0 
1 0 -165.09999999999999 0 -0 -1 -0 -0 -0 1 1 -0 -0 
1 0 -25.399999999999999 0 -0 -0 1 1 -0 -0 -0 -1 -0 
1 0 -25.399999999999999 38.099999999999994 -0 -0 1 1 -0 -0 -0 -1 -0 
1 19.049999999999997 -95.25 1468.4374999999998 -0 -0.24253562503633269 -0.97014250014533199 0 0.97014250014533199 -0.24253562503633269 -1 -0 0 
1 19.049999999999997 -25.399999999999999 744.53749999999991 -0 -1 -0 -0 -0 1 1 -0 -0 
1 19.049999999999994 -95.249999999999972 38.099999999999994 -0 -0 1 1 -0 -0 -0 -1 -0 
1 38.099999999999994 -96.025833564974391 754.34361599367412 -1 0 -0 -0 -0 -1 -0 1 -0 
1 19.049999999999997 -165.09999999999994 761.99999999999977 -1.948454966459181e-47 1 1.5958466831490144e-32 0 1.5958466831490144e-32 -1 1 1.948454966459181e-47 3.1094353954891079e-79 
1 0 -96.025833564974391 754.34361599367423 1 -0 -0 -0 -0 1 -0 1 -0 
1 609.59999999999991 -95.25 1468.4375000000002 -8.5947388645004055e-33 -0.24253562503633269 -0.97014250014533199 0 0.97014250014533199 -0.24253562503633269 -1 2.084530362525666e-33 8.338121450102675e-33 
1 609.59999999999991 -25.399999999999999 744.53749999999991 -0 -1 -0 -0 -0 1 1 -0 -0 
1 609.60000000000002 -95.25 38.100000000000001 -1.0930879255754281e-30 -0 1 1 -0 1.0930879255754281e-30 -0 -1 -0 
1 628.64999999999998 -96.025833564974391 754.34361599367412 -1 0 -0 -0 -0 -1 -0 1 -0 
1 609.60000000000002 -165.09999999999994 761.99999999999977 -8.7897709866165167e-30 1 1.539522682567286e-32 -1 -8.7897709866165167e-30 -0 -1.353205180846796e-61 1.539522682567286e-32 -1 
1 590.54999999999995 -96.025833564974391 754.34361599367423 1 -0 -0 -0 -0 1 -0 1 -0 
1 1200.1499999999999 -95.25 1468.4375 -0 -0.24253562503633275 -0.97014250014533199 0 0.97014250014533199 -0.24253562503633275 -1 -0 0 
1 1200.1499999999999 -25.399999999999999 744.53750000000002 -0 -1 -0 -0 -0 1 1 -0 -0 
1 1200.1499999999999 -95.25 38.100000000000001 -0 -0 1 1 -0 -0 -0 -1 -0 
1 1219.1999999999998 -96.025833564974391 754.34361599367412 -1 0 -0 -0 -0 -1 -0 1 -0 
1 1200.1499999999999 -165.09999999999994 761.99999999999977 -1.856762968037581e-47 1 1.5207480157067079e-32 0 1.5207480157067079e-32 -1 1 1.856762968037581e-47 2.823668599280849e-79 
1 1181.0999999999999 -96.025833564974391 754.34361599367423 1 -0 -0 -0 -0 1 -0 1 -0 
1 19.049999999999997 -95.25 1468.4374999999998 -0 -0.24253562503633269 -0.97014250014533199 0 0.97014250014533199 -0.24253562503633269 -1 -0 0 
1 19.049999999999997 -25.399999999999999 744.53749999999991 -0 -1 -0 -0 -0 1 1 -0 -0 
1 19.049999999999994 -95.249999999999972 38.099999999999994 -0 -0 1 1 -0 -0 -0 -1 -0 
1 38.099999999999994 -96.025833564974391 754.34361599367412 -1 0 -0 -0 -0 -1 -0 1 -0 
1 19.049999999999997 -165.09999999999994 761.99999999999977 -1.948454966459181e-47 1 1.5958466831490144e-32 0 1.5958466831490144e-32 -1 1 1.948454966459181e-47 3.1094353954891079e-79 
1 0 -96.025833564974391 754.34361599367423 1 -0 -0 -0 -0 1 -0 1 -0 
1 107.94999999999996 -146.04999999999998 1481.1374999999996 2.2056307805769971e-18 -0.24253562503632978 -0.97014250014533276 0 0.97014250014533276 -0.24253562503632978 -1 -5.3494403996660993e-19 -2.1397761598664698e-18 
1 107.95 -127 757.23750000000018 -4.0084671608611269e-32 -1 -5.5168355504701539e-33 1 -4.0084671608611269e-32 -0 2.2114054135930832e-64 5.5168355504701539e-33 -1 
1 107.94999999999999 -146.04999999999995 38.099999999999994 -0 -0 1 1 -0 -0 -0 -1 -0 
1 177.79999999999993 -146.1112297822165 759.91189527100175 -1 -8.7262408387007867e-30 2.7477013652134456e-32 -8.7262408387007867e-30 1 0 2.7477013652134456e-32 2.3977103865679474e-61 1 
1 107.94999999999997 -165.09999999999999 762.00000000000011 -0 1 -0 -0 -0 -1 1 -0 -0 
1 38.099999999999987 -146.11122978221653 759.91189527100198 1 5.3997585418415225e-31 -4.2673117195321223e-34 5.3997585418415225e-31 -1 -0 4.2673117195321223e-34 2.3042452908244013e-64 1 
1 196.84999999999997 -95.25 1468.4374999999998 -3.0041248524521928e-17 -0.24253562503633269 -0.97014250014533199 0 0.97014250014533199 -0.24253562503633269 -1 7.2860729877667327e-18 2.9144291951066968e-17 
1 196.84999999999997 -25.399999999999999 744.53749999999991 -0 -1 -0 -0 -0 1 1 -0 -0 
1 196.84999999999994 -95.249999999999972 38.099999999999994 -0 -0 1 1 -0 -0 -0 -1 -0 
1 215.89999999999998 -96.025833564974391 754.34361599367412 -1 0 -0 -0 -0 -1 -0 1 -0 
1 196.84999999999997 -165.09999999999994 761.99999999999977 2.1985017552067371e-30 1 1.5958466831490144e-32 -1 2.1985017552067371e-30 0 3.5084717339439578e-62 1.5958466831490144e-32 -1 
1 177.79999999999998 -96.025833564974391 754.34361599367423 1 -0 -0 -0 -0 1 -0 1 -0 
1 1200.1499999999999 -95.25 1468.4375 -0 -0.24253562503633275 -0.97014250014533199 0 0.97014250014533199 -0.24253562503633275 -1 -0 0 
1 1200.1499999999999 -25.399999999999999 744.53750000000002 -0 -1 -0 -0 -0 1 1 -0 -0 
1 1200.1499999999999 -95.25 38.100000000000001 -0 -0 1 1 -0 -0 -0 -1 -0 
1 1219.1999999999998 -96.025833564974391 754.34361599367412 -1 0 -0 -0 -0 -1 -0 1 -0 
1 1200.1499999999999 -165.09999999999994 761.99999999999977 -1.856762968037581e-47 1 1.5207480157067079e-32 0 1.5207480157067079e-32 -1 1 1.856762968037581e-47 2.823668599280849e-79 
1 1181.0999999999999 -96.025833564974391 754.34361599367423 1 -0 -0 -0 -0 1 -0 1 -0 
1 1111.25 -146.04999999999998 1481.1375 -2.2056307805769652e-18 -0.24253562503632983 -0.97014250014533276 0 0.97014250014533276 -0.24253562503632983 -1 5.3494403996660222e-19 2.1397761598664386e-18 
1 1111.25 -127 757.23750000000018 -3.3541438448970283e-31 -1 -5.8727604246940357e-33 1 -3.3541438448970283e-31 -0 1.9698083231042358e-63 5.8727604246940357e-33 -1 
1 1111.2499999999995 -146.04999999999995 38.099999999999987 -4.9595476953794267e-31 8.3006364348384237e-31 1 -0 -1 8.3006364348384237e-31 -1 -4.1167402300585408e-61 -4.9595476953794267e-31 
1 1181.0999999999999 -146.1112297822165 759.91189527100175 -1 0 -0 -0 -0 -1 -0 1 -0 
1 1111.2499999999998 -165.09999999999997 762 6.3229133134105836e-31 1 -4.2175411635599381e-33 -1 6.3229133134105836e-31 0 -2.6667147172930298e-63 -4.2175411635599381e-33 -1 
1 1041.3999999999996 -146.11122978221653 759.91189527100198 1 1.7279227333892872e-29 -1.3655397502502791e-32 1.7279227333892872e-29 -1 -0 1.3655397502502791e-32 2.359547177804187e-61 1 
1 1022.3499999999998 -95.25 1468.4375 -6.8757910916003693e-33 -0.24253562503633275 -0.97014250014533199 0 0.97014250014533199 -0.24253562503633275 -1 1.6676242900205443e-33 6.670497160082184e-33 
1 1022.35 -25.399999999999999 744.53750000000002 -0 -1 -0 -0 -0 1 1 -0 -0 
1 1022.35 -95.25 38.100000000000001 -2.2408302474296425e-30 -0 1 1 -0 2.2408302474296425e-30 -0 -1 -0 
1 1041.3999999999999 -96.025833564974391 754.34361599367412 -1 0 -0 -0 -0 -1 -0 1 -0 
1 1022.3499999999998 -165.09999999999994 761.99999999999977 1.7850648162699865e-29 1 1.520748015706707e-32 -1 1.7850648162699865e-29 0 2.7146337772504396e-61 1.520748015706707e-32 -1 
1 1003.3000000000001 -96.025833564974391 754.34361599367423 1 -2.1755287604644298e-31 -2.4970257564661569e-32 -2.1755287604644298e-31 -1 -0 2.4970257564661569e-32 -5.4323513488125734e-63 1 
1 609.60000000000002 -95.25 1506.5374999999997 -0 -0.24253562503633269 -0.97014250014533199 0 0.97014250014533199 -0.24253562503633269 -1 -0 0 
1 609.59999999999991 -25.399999999999999 1470.0249999999999 -0 -1 -0 -0 -0 1 1 -0 -0 
1 609.60000000000002 -95.25 1468.4375 -0 0.24253562503633275 0.97014250014533199 -0 -0.97014250014533199 0.24253562503633275 -1 -0 -0 
1 1219.1999999999998 -95.25 1487.4875 -1 0 -0 -0 -0 -1 -0 1 -0 
1 609.60000000000002 -165.10000000000002 1504.9499999999998 8.4315322082953284e-33 1 -0 -1 8.4315322082953284e-33 0 -0 -0 -1 
1 0 -95.25 1487.4874999999995 1 -0 -0 -0 -0 1 -0 1 -0 
1 0 0 0 1 -0 -0 -0 -0 1 -0 1 -0 
1 1219.1999999999998 0 0 1 -0 -0 -0 -0 1 -0 1 -0 
1 0 0 0 -0 -1 -0 -0 -0 1 1 -0 -0 
1 0 -12.699999999999999 0 -0 -1 -0 -0 -0 1 1 -0 -0 
1 0 0 0 -0 -0 1 1 -0 -0 -0 -1 -0 
1 0 0 1489.0749999999998 -0 -0 1 1 -0 -0 -0 -1 -0 
Triangulations 0

TShapes 409
Ve
1e-07
0 -12.7 38.1
0 0

0101101
*
Ve
1e-07
0 -12.7 0
0 0

0101101
*
Ed
 1e-07 1 1 0
1  1 0 0 38.1
0

0101000
-409 5 +408 5 *
Ve
1e-07
0 -152.4 38.1
0 0

0101101
*
Ed
 1e-07 1 1 0
1  2 0 0 139.7
0

0101000
-406 5 +409 5 *
Ve
1e-07
0 -152.4 0
0 0

0101101
*
Ed
 1e-07 1 1 0
1  3 0 0 38.1
0

0101000
-406 5 +404 5 *
Ed
 1e-07 1 1 0
1  4 0 0 139.7
0

0101000
-404 5 +408 5 *
Wi

0101100
-407 0 -405 0 +403 0 +402 0 *
Fa
0  1e-07 1 0

0111000
+401 0 *
Ve
1e-07
1219.2 -12.7 38.1
0 0

0101101
*
Ve
1e-07
1219.2 -12.7 0
0 0

0101101
*
Ed
 1e-07 1 1 0
1  5 0 0 38.1
0

0101000
-399 5 +398 5 *
Ve
1e-07
1219.2 -152.4 38.1
0 0

0101101
*
Ed
 1e-07 1 1 0
1  6 0 0 139.7
0

0101000
-396 5 +399 5 *
Ve
1e-07
1219.2 -152.4 0
0 0

0101101
*
Ed
 1e-07 1 1 0
1  7 0 0 38.1
0

0101000
-396 5 +394 5 *
Ed
 1e-07 1 1 0
1  8 0 0 139.7
0

0101000
-394 5 +398 5 *
Wi

0101100
-397 0 -395 0 +393 0 +392 0 *
Fa
0  1e-07 2 0

0111000
+391 0 *
Ed
 1e-07 1 1 0
1  9 0 0 1219.2
0

0101000
-398 5 +408 5 *
Ed
 1e-07 1 1 0
1  10 0 0 1219.2
0

0101000
-399 5 +409 5 *
Wi

0101100
-389 0 -397 0 +388 0 +407 0 *
Fa
0  1e-07 3 0

0111000
+387 0 *
Ed
 1e-07 1 1 0
1  11 0 0 1219.2
0

0101000
-394 5 +404 5 *
Ed
 1e-07 1 1 0
1  12 0 0 1219.2
0

0101000
-396 5 +406 5 *
Wi

0101100
-385 0 -393 0 +384 0 +403 0 *
Fa
0  1e-07 4 0

0111000
+383 0 *
Wi

0101100
-402 0 -385 0 +392 0 +389 0 *
Fa
0  1e-07 5 0

0111000
+381 0 *
Wi

0101100
-405 0 -384 0 +395 0 +388 0 *
Fa
0  1e-07 6 0

0111000
+379 0 *
Sh

0101100
+400 0 -390 0 +386 0 -382 0 +380 0 -378 0 *
So

0100000
+377 0 *
Ve
1e-07
0 -12.7 1450.975
0 0

0101101
*
Ve
1e-07
0 -152.4 1485.9
0 0

0101101
*
Ed
 1e-07 1 1 0
1  13 0 0 143.999463974697
0

0101000
+375 7 -374 7 *
Ve
1e-07
38.1 -152.4 1485.9
0 0

0101101
*
Ed
 1e-07 1 1 0
1  14 0 0 38.1
0

0101000
+374 7 -372 7 *
Ve
1e-07
38.1 -12.7 1450.975
0 0

0101101
*
Ed
 1e-07 1 1 0
1  15 0 0 143.999463974697
0

0101000
+372 7 -370 7 *
Ed
 1e-07 1 1 0
1  16 0 0 38.1
0

0101000
+370 7 -375 7 *
Wi

0101100
+373 0 +371 0 +369 0 +368 0 *
Fa
0  1e-07 7 0

0101000
+367 0 *
Ve
1e-07
0 -12.7 38.1
0 0

0101101
*
Ed
 1e-07 1 1 0
1  17 0 0 1412.875
0

0101000
+365 7 -375 7 *
Ve
1e-07
38.1 -12.7 38.1
0 0

0101101
*
Ed
 1e-07 1 1 0
1  18 0 0 1412.875
0

0101000
+370 7 -363 7 *
Ed
 1e-07 1 1 0
1  19 0 0 38.1
0

0101000
+365 7 -363 7 *
Wi

0101100
+364 0 -368 0 +362 0 -361 0 *
Fa
0  1e-07 8 0

0101000
+360 0 *
Ve
1e-07
38.1 -152.4 38.1
0 0

0101101
*
Ed
 1e-07 1 1 0
1  20 0 0 139.7
0

0101000
+363 7 -358 7 *
Ve
1e-07
0 -152.4 38.1
0 0

0101101
*
Ed
 1e-07 1 1 0
1  21 0 0 38.1
0

0101000
+358 7 -356 7 *
Ed
 1e-07 1 1 0
1  22 0 0 139.7
0

0101000
+356 7 -365 7 *
Wi

0101100
+361 0 +357 0 +355 0 +354 0 *
Fa
0  1e-07 9 0

0101000
+353 0 *
Ed
 1e-07 1 1 0
1  23 0 0 1447.8
0

0101000
+372 7 -358 7 *
Wi

0101100
-362 0 -369 0 +351 0 -357 0 *
Fa
0  1e-07 10 0

0101000
+350 0 *
Ed
 1e-07 1 1 0
1  24 0 0 1447.8
0

0101000
+374 7 -356 7 *
Wi

0101100
-351 0 -371 0 +348 0 -355 0 *
Fa
0  1e-07 11 0

0101000
+347 0 *
Wi

0101100
-348 0 -373 0 -364 0 -354 0 *
Fa
0  1e-07 12 0

0101000
+345 0 *
Sh

0101100
-366 0 -359 0 -352 0 -349 0 -346 0 -344 0 *
So

0100000
+343 0 *
Ve
1e-07
590.55 -12.7 1450.975
0 0

0101101
*
Ve
1e-07
590.55 -152.4 1485.9
0 0

0101101
*
Ed
 1e-07 1 1 0
1  25 0 0 143.999463974697
0

0101000
+341 9 -340 9 *
Ve
1e-07
628.65 -152.4 1485.9
0 0

0101101
*
Ed
 1e-07 1 1 0
1  26 0 0 38.1
0

0101000
+340 9 -338 9 *
Ve
1e-07
628.65 -12.7 1450.975
0 0

0101101
*
Ed
 1e-07 1 1 0
1  27 0 0 143.999463974697
0

0101000
+338 9 -336 9 *
Ed
 1e-07 1 1 0
1  28 0 0 38.1
0

0101000
+336 9 -341 9 *
Wi

0101100
+339 0 +337 0 +335 0 +334 0 *
Fa
0  1e-07 13 0

0101000
+333 0 *
Ve
1e-07
590.55 -12.7 38.1
0 0

0101101
*
Ed
 1e-07 1 1 0
1  29 0 0 1412.875
0

0101000
+331 9 -341 9 *
Ve
1e-07
628.65 -12.7 38.1
0 0

0101101
*
Ed
 1e-07 1 1 0
1  30 0 0 1412.875
0

0101000
+336 9 -329 9 *
Ed
 1e-07 1 1 0
1  31 0 0 38.1
0

0101000
+331 9 -329 9 *
Wi

0101100
+330 0 -334 0 +328 0 -327 0 *
Fa
0  1e-07 14 0

0101000
+326 0 *
Ve
1e-07
628.65 -152.4 38.1
0 0

0101101
*
Ed
 1e-07 1 1 0
1  32 0 0 139.7
0

0101000
+329 9 -324 9 *
Ve
1e-07
590.55 -152.4 38.1
0 0

0101101
*
Ed
 1e-07 1 1 0
1  33 0 0 38.1
0

0101000
+324 9 -322 9 *
Ed
 1e-07 1 1 0
1  34 0 0 139.7
0

0101000
+322 9 -331 9 *
Wi

0101100
+327 0 +323 0 +321 0 +320 0 *
Fa
0  1e-07 15 0

0101000
+319 0 *
Ed
 1e-07 1 1 0
1  35 0 0 1447.8
0

0101000
+338 9 -324 9 *
Wi

0101100
-328 0 -335 0 +317 0 -323 0 *
Fa
0  1e-07 16 0

0101000
+316 0 *
Ed
 1e-07 1 1 0
1  36 0 0 1447.8
0

0101000
+340 9 -322 9 *
Wi

0101100
-317 0 -337 0 +314 0 -321 0 *
Fa
0  1e-07 17 0

0101000
+313 0 *
Wi

0101100
-314 0 -339 0 -330 0 -320 0 *
Fa
0  1e-07 18 0

0101000
+311 0 *
Sh

0101100
-332 0 -325 0 -318 0 -315 0 -312 0 -310 0 *
So

0100000
+309 0 *
Ve
1e-07
1181.1 -12.7 1450.975
0 0

0101101
*
Ve
1e-07
1181.1 -152.4 1485.9
0 0

0101101
*
Ed
 1e-07 1 1 0
1  37 0 0 143.999463974697
0

0101000
+307 11 -306 11 *
Ve
1e-07
1219.2 -152.4 1485.9
0 0

0101101
*
Ed
 1e-07 1 1 0
1  38 0 0 38.0999999999999
0

0101000
+306 11 -304 11 *
Ve
1e-07
1219.2 -12.7 1450.975
0 0

0101101
*
Ed
 1e-07 1 1 0
1  39 0 0 143.999463974697
0

0101000
+304 11 -302 11 *
Ed
 1e-07 1 1 0
1  40 0 0 38.0999999999999
0

0101000
+302 11 -307 11 *
Wi

0101100
+305 0 +303 0 +301 0 +300 0 *
Fa
0  1e-07 19 0

0101000
+299 0 *
Ve
1e-07
1181.1 -12.7 38.1
0 0

0101101
*
Ed
 1e-07 1 1 0
1  41 0 0 1412.875
0

0101000
+297 11 -307 11 *
Ve
1e-07
1219.2 -12.7 38.1
0 0

0101101
*
Ed
 1e-07 1 1 0
1  42 0 0 1412.875
0

0101000
+302 11 -295 11 *
Ed
 1e-07 1 1 0
1  43 0 0 38.0999999999999
0

0101000
+297 11 -295 11 *
Wi

0101100
+296 0 -300 0 +294 0 -293 0 *
Fa
0  1e-07 20 0

0101000
+292 0 *
Ve
1e-07
1219.2 -152.4 38.1
0 0

0101101
*
Ed
 1e-07 1 1 0
1  44 0 0 139.7
0

0101000
+295 11 -290 11 *
Ve
1e-07
1181.1 -152.4 38.1
0 0

0101101
*
Ed
 1e-07 1 1 0
1  45 0 0 38.0999999999999
0

0101000
+290 11 -288 11 *
Ed
 1e-07 1 1 0
1  46 0 0 139.7
0

0101000
+288 11 -297 11 *
Wi

0101100
+293 0 +289 0 +287 0 +286 0 *
Fa
0  1e-07 21 0

0101000
+285 0 *
Ed
 1e-07 1 1 0
1  47 0 0 1447.8
0

0101000
+304 11 -290 11 *
Wi

0101100
-294 0 -301 0 +283 0 -289 0 *
Fa
0  1e-07 22 0

0101000
+282 0 *
Ed
 1e-07 1 1 0
1  48 0 0 1447.8
0

0101000
+306 11 -288 11 *
Wi

0101100
-283 0 -303 0 +280 0 -287 0 *
Fa
0  1e-07 23 0

0101000
+279 0 *
Wi

0101100
-280 0 -305 0 -296 0 -286 0 *
Fa
0  1e-07 24 0

0101000
+277 0 *
Sh

0101100
-298 0 -291 0 -284 0 -281 0 -278 0 -276 0 *
So

0100000
+275 0 *
Ve
1e-07
0 -12.7 1450.975
0 0

0101101
*
Ve
1e-07
0 -152.4 1485.9
0 0

0101101
*
Ed
 1e-07 1 1 0
1  49 0 0 143.999463974697
0

0101000
+273 13 -272 13 *
Ve
1e-07
38.1 -152.4 1485.9
0 0

0101101
*
Ed
 1e-07 1 1 0
1  50 0 0 38.1
0

0101000
+272 13 -270 13 *
Ve
1e-07
38.1 -12.7 1450.975
0 0

0101101
*
Ed
 1e-07 1 1 0
1  51 0 0 143.999463974697
0

0101000
+270 13 -268 13 *
Ed
 1e-07 1 1 0
1  52 0 0 38.1
0

0101000
+268 13 -273 13 *
Wi

0101100
+271 0 +269 0 +267 0 +266 0 *
Fa
0  1e-07 25 0

0101000
+265 0 *
Ve
1e-07
0 -12.7 38.1
0 0

0101101
*
Ed
 1e-07 1 1 0
1  53 0 0 1412.875
0

0101000
+263 13 -273 13 *
Ve
1e-07
38.1 -12.7 38.1
0 0

0101101
*
Ed
 1e-07 1 1 0
1  54 0 0 1412.875
0

0101000
+268 13 -261 13 *
Ed
 1e-07 1 1 0
1  55 0 0 38.1
0

0101000
+263 13 -261 13 *
Wi

0101100
+262 0 -266 0 +260 0 -259 0 *
Fa
0  1e-07 26 0

0101000
+258 0 *
Ve
1e-07
38.1 -152.4 38.1
0 0

0101101
*
Ed
 1e-07 1 1 0
1  56 0 0 139.7
0

0101000
+261 13 -256 13 *
Ve
1e-07
0 -152.4 38.1
0 0

0101101
*
Ed
 1e-07 1 1 0
1  57 0 0 38.1
0

0101000
+256 13 -254 13 *
Ed
 1e-07 1 1 0
1  58 0 0 139.7
0

0101000
+254 13 -263 13 *
Wi

0101100
+259 0 +255 0 +253 0 +252 0 *
Fa
0  1e-07 27 0

0101000
+251 0 *
Ed
 1e-07 1 1 0
1  59 0 0 1447.8
0

0101000
+270 13 -256 13 *
Wi

0101100
-260 0 -267 0 +249 0 -255 0 *
Fa
0  1e-07 28 0

0101000
+248 0 *
Ed
 1e-07 1 1 0
1  60 0 0 1447.8
0

0101000
+272 13 -254 13 *
Wi

0101100
-249 0 -269 0 +246 0 -253 0 *
Fa
0  1e-07 29 0

0101000
+245 0 *
Wi

0101100
-246 0 -271 0 -262 0 -252 0 *
Fa
0  1e-07 30 0

0101000
+243 0 *
Sh

0101100
-264 0 -257 0 -250 0 -247 0 -244 0 -242 0 *
So

0100000
+241 0 *
Ve
1e-07
38.1 -114.3 1476.375
0 0

0101101
*
Ve
1e-07
38.1 -152.4 1485.9
0 0

0101101
*
Ed
 1e-07 1 1 0
1  61 0 0 39.2725810840082
0

0101000
+239 15 -238 15 *
Ve
1e-07
177.8 -152.4 1485.9
0 0

0101101
*
Ed
 1e-07 1 1 0
1  62 0 0 139.7
0

0101000
+238 15 -236 15 *
Ve
1e-07
177.8 -114.3 1476.375
0 0

0101101
*
Ed
 1e-07 1 1 0
1  63 0 0 39.2725810840082
0

0101000
+236 15 -234 15 *
Ed
 1e-07 1 1 0
1  64 0 0 139.7
0

0101000
+234 15 -239 15 *
Wi

0101100
+237 0 +235 0 +233 0 +232 0 *
Fa
0  1e-07 31 0

0101000
+231 0 *
Ve
1e-07
38.1 -114.3 38.1
0 0

0101101
*
Ed
 1e-07 1 1 0
1  65 0 0 1438.275
0

0101000
+229 15 -239 15 *
Ve
1e-07
177.8 -114.3 38.1
0 0

0101101
*
Ed
 1e-07 1 1 0
1  66 0 0 1438.275
0

0101000
+234 15 -227 15 *
Ed
 1e-07 1 1 0
1  67 0 0 139.7
0

0101000
+229 15 -227 15 *
Wi

0101100
+228 0 -232 0 +226 0 -225 0 *
Fa
0  1e-07 32 0

0101000
+224 0 *
Ve
1e-07
177.8 -152.4 38.1
0 0

0101101
*
Ed
 1e-07 1 1 0
1  68 0 0 38.1
0

0101000
+227 15 -222 15 *
Ve
1e-07
38.1 -152.4 38.1
0 0

0101101
*
Ed
 1e-07 1 1 0
1  69 0 0 139.7
0

0101000
+222 15 -220 15 *
Ed
 1e-07 1 1 0
1  70 0 0 38.1
0

0101000
+220 15 -229 15 *
Wi

0101100
+225 0 +221 0 +219 0 +218 0 *
Fa
0  1e-07 33 0

0101000
+217 0 *
Ed
 1e-07 1 1 0
1  71 0 0 1447.8
0

0101000
+236 15 -222 15 *
Wi

0101100
-226 0 -233 0 +215 0 -221 0 *
Fa
0  1e-07 34 0

0101000
+214 0 *
Ed
 1e-07 1 1 0
1  72 0 0 1447.8
0

0101000
+238 15 -220 15 *
Wi

0101100
-215 0 -235 0 +212 0 -219 0 *
Fa
0  1e-07 35 0

0101000
+211 0 *
Wi

0101100
-212 0 -237 0 -228 0 -218 0 *
Fa
0  1e-07 36 0

0101000
+209 0 *
Sh

0101100
-230 0 -223 0 -216 0 -213 0 -210 0 -208 0 *
So

0100000
+207 0 *
Ve
1e-07
177.8 -12.7 1450.975
0 0

0101101
*
Ve
1e-07
177.8 -152.4 1485.9
0 0

0101101
*
Ed
 1e-07 1 1 0
1  73 0 0 143.999463974697
0

0101000
+205 17 -204 17 *
Ve
1e-07
215.9 -152.4 1485.9
0 0

0101101
*
Ed
 1e-07 1 1 0
1  74 0 0 38.1
0

0101000
+204 17 -202 17 *
Ve
1e-07
215.9 -12.7 1450.975
0 0

0101101
*
Ed
 1e-07 1 1 0
1  75 0 0 143.999463974697
0

0101000
+202 17 -200 17 *
Ed
 1e-07 1 1 0
1  76 0 0 38.1
0

0101000
+200 17 -205 17 *
Wi

0101100
+203 0 +201 0 +199 0 +198 0 *
Fa
0  1e-07 37 0

0101000
+197 0 *
Ve
1e-07
177.8 -12.7 38.1
0 0

0101101
*
Ed
 1e-07 1 1 0
1  77 0 0 1412.875
0

0101000
+195 17 -205 17 *
Ve
1e-07
215.9 -12.7 38.1
0 0

0101101
*
Ed
 1e-07 1 1 0
1  78 0 0 1412.875
0

0101000
+200 17 -193 17 *
Ed
 1e-07 1 1 0
1  79 0 0 38.1
0

0101000
+195 17 -193 17 *
Wi

0101100
+194 0 -198 0 +192 0 -191 0 *
Fa
0  1e-07 38 0

0101000
+190 0 *
Ve
1e-07
215.9 -152.4 38.1
0 0

0101101
*
Ed
 1e-07 1 1 0
1  80 0 0 139.7
0

0101000
+193 17 -188 17 *
Ve
1e-07
177.8 -152.4 38.1
0 0

0101101
*
Ed
 1e-07 1 1 0
1  81 0 0 38.1
0

0101000
+188 17 -186 17 *
Ed
 1e-07 1 1 0
1  82 0 0 139.7
0

0101000
+186 17 -195 17 *
Wi

0101100
+191 0 +187 0 +185 0 +184 0 *
Fa
0  1e-07 39 0

0101000
+183 0 *
Ed
 1e-07 1 1 0
1  83 0 0 1447.8
0

0101000
+202 17 -188 17 *
Wi

0101100
-192 0 -199 0 +181 0 -187 0 *
Fa
0  1e-07 40 0

0101000
+180 0 *
Ed
 1e-07 1 1 0
1  84 0 0 1447.8
0

0101000
+204 17 -186 17 *
Wi

0101100
-181 0 -201 0 +178 0 -185 0 *
Fa
0  1e-07 41 0

0101000
+177 0 *
Wi

0101100
-178 0 -203 0 -194 0 -184 0 *
Fa
0  1e-07 42 0

0101000
+175 0 *
Sh

0101100
-196 0 -189 0 -182 0 -179 0 -176 0 -174 0 *
So

0100000
+173 0 *
Ve
1e-07
1181.1 -12.7 1450.975
0 0

0101101
*
Ve
1e-07
1181.1 -152.4 1485.9
0 0

0101101
*
Ed
 1e-07 1 1 0
1  85 0 0 143.999463974697
0

0101000
+171 19 -170 19 *
Ve
1e-07
1219.2 -152.4 1485.9
0 0

0101101
*
Ed
 1e-07 1 1 0
1  86 0 0 38.0999999999999
0

0101000
+170 19 -168 19 *
Ve
1e-07
1219.2 -12.7 1450.975
0 0

0101101
*
Ed
 1e-07 1 1 0
1  87 0 0 143.999463974697
0

0101000
+168 19 -166 19 *
Ed
 1e-07 1 1 0
1  88 0 0 38.0999999999999
0

0101000
+166 19 -171 19 *
Wi

0101100
+169 0 +167 0 +165 0 +164 0 *
Fa
0  1e-07 43 0

0101000
+163 0 *
Ve
1e-07
1181.1 -12.7 38.1
0 0

0101101
*
Ed
 1e-07 1 1 0
1  89 0 0 1412.875
0

0101000
+161 19 -171 19 *
Ve
1e-07
1219.2 -12.7 38.1
0 0

0101101
*
Ed
 1e-07 1 1 0
1  90 0 0 1412.875
0

0101000
+166 19 -159 19 *
Ed
 1e-07 1 1 0
1  91 0 0 38.0999999999999
0

0101000
+161 19 -159 19 *
Wi

0101100
+160 0 -164 0 +158 0 -157 0 *
Fa
0  1e-07 44 0

0101000
+156 0 *
Ve
1e-07
1219.2 -152.4 38.1
0 0

0101101
*
Ed
 1e-07 1 1 0
1  92 0 0 139.7
0

0101000
+159 19 -154 19 *
Ve
1e-07
1181.1 -152.4 38.1
0 0

0101101
*
Ed
 1e-07 1 1 0
1  93 0 0 38.0999999999999
0

0101000
+154 19 -152 19 *
Ed
 1e-07 1 1 0
1  94 0 0 139.7
0

0101000
+152 19 -161 19 *
Wi

0101100
+157 0 +153 0 +151 0 +150 0 *
Fa
0  1e-07 45 0

0101000
+149 0 *
Ed
 1e-07 1 1 0
1  95 0 0 1447.8
0

0101000
+168 19 -154 19 *
Wi

0101100
-158 0 -165 0 +147 0 -153 0 *
Fa
0  1e-07 46 0

0101000
+146 0 *
Ed
 1e-07 1 1 0
1  96 0 0 1447.8
0

0101000
+170 19 -152 19 *
Wi

0101100
-147 0 -167 0 +144 0 -151 0 *
Fa
0  1e-07 47 0

0101000
+143 0 *
Wi

0101100
-144 0 -169 0 -160 0 -150 0 *
Fa
0  1e-07 48 0

0101000
+141 0 *
Sh

0101100
-162 0 -155 0 -148 0 -145 0 -142 0 -140 0 *
So

0100000
+139 0 *
Ve
1e-07
1041.4 -114.3 1476.375
0 0

0101101
*
Ve
1e-07
1041.4 -152.4 1485.9
0 0

0101101
*
Ed
 1e-07 1 1 0
1  97 0 0 39.2725810840082
0

0101000
+137 21 -136 21 *
Ve
1e-07
1181.1 -152.4 1485.9
0 0

0101101
*
Ed
 1e-07 1 1 0
1  98 0 0 139.7
0

0101000
+136 21 -134 21 *
Ve
1e-07
1181.1 -114.3 1476.375
0 0

0101101
*
Ed
 1e-07 1 1 0
1  99 0 0 39.2725810840082
0

0101000
+134 21 -132 21 *
Ed
 1e-07 1 1 0
1  100 0 0 139.7
0

0101000
+132 21 -137 21 *
Wi

0101100
+135 0 +133 0 +131 0 +130 0 *
Fa
0  1e-07 49 0

0101000
+129 0 *
Ve
1e-07
1041.4 -114.3 38.1
0 0

0101101
*
Ed
 1e-07 1 1 0
1  101 0 0 1438.275
0

0101000
+127 21 -137 21 *
Ve
1e-07
1181.1 -114.3 38.1
0 0

0101101
*
Ed
 1e-07 1 1 0
1  102 0 0 1438.275
0

0101000
+132 21 -125 21 *
Ed
 1e-07 1 1 0
1  103 0 0 139.7
0

0101000
+127 21 -125 21 *
Wi

0101100
+126 0 -130 0 +124 0 -123 0 *
Fa
0  1e-07 50 0

0101000
+122 0 *
Ve
1e-07
1181.1 -152.4 38.1
0 0

0101101
*
Ed
 1e-07 1 1 0
1  104 0 0 38.1
0

0101000
+125 21 -120 21 *
Ve
1e-07
1041.4 -152.4 38.1
0 0

0101101
*
Ed
 1e-07 1 1 0
1  105 0 0 139.7
0

0101000
+120 21 -118 21 *
Ed
 1e-07 1 1 0
1  106 0 0 38.1
0

0101000
+118 21 -127 21 *
Wi

0101100
+123 0 +119 0 +117 0 +116 0 *
Fa
0  1e-07 51 0

0101000
+115 0 *
Ed
 1e-07 1 1 0
1  107 0 0 1447.8
0

0101000
+134 21 -120 21 *
Wi

0101100
-124 0 -131 0 +113 0 -119 0 *
Fa
0  1e-07 52 0

0101000
+112 0 *
Ed
 1e-07 1 1 0
1  108 0 0 1447.8
0

0101000
+136 21 -118 21 *
Wi

0101100
-113 0 -133 0 +110 0 -117 0 *
Fa
0  1e-07 53 0

0101000
+109 0 *
Wi

0101100
-110 0 -135 0 -126 0 -116 0 *
Fa
0  1e-07 54 0

0101000
+107 0 *
Sh

0101100
-128 0 -121 0 -114 0 -111 0 -108 0 -106 0 *
So

0100000
+105 0 *
Ve
1e-07
1003.3 -12.7 1450.975
0 0

0101101
*
Ve
1e-07
1003.3 -152.4 1485.9
0 0

0101101
*
Ed
 1e-07 1 1 0
1  109 0 0 143.999463974697
0

0101000
+103 23 -102 23 *
Ve
1e-07
1041.4 -152.4 1485.9
0 0

0101101
*
Ed
 1e-07 1 1 0
1  110 0 0 38.0999999999999
0

0101000
+102 23 -100 23 *
Ve
1e-07
1041.4 -12.7 1450.975
0 0

0101101
*
Ed
 1e-07 1 1 0
1  111 0 0 143.999463974697
0

0101000
+100 23 -98 23 *
Ed
 1e-07 1 1 0
1  112 0 0 38.0999999999999
0

0101000
+98 23 -103 23 *
Wi

0101100
+101 0 +99 0 +97 0 +96 0 *
Fa
0  1e-07 55 0

0101000
+95 0 *
Ve
1e-07
1003.3 -12.7 38.1
0 0

0101101
*
Ed
 1e-07 1 1 0
1  113 0 0 1412.875
0

0101000
+93 23 -103 23 *
Ve
1e-07
1041.4 -12.7 38.1
0 0

0101101
*
Ed
 1e-07 1 1 0
1  114 0 0 1412.875
0

0101000
+98 23 -91 23 *
Ed
 1e-07 1 1 0
1  115 0 0 38.0999999999999
0

0101000
+93 23 -91 23 *
Wi

0101100
+92 0 -96 0 +90 0 -89 0 *
Fa
0  1e-07 56 0

0101000
+88 0 *
Ve
1e-07
1041.4 -152.4 38.1
0 0

0101101
*
Ed
 1e-07 1 1 0
1  116 0 0 139.7
0

0101000
+91 23 -86 23 *
Ve
1e-07
1003.3 -152.4 38.1
0 0

0101101
*
Ed
 1e-07 1 1 0
1  117 0 0 38.0999999999999
0

0101000
+86 23 -84 23 *
Ed
 1e-07 1 1 0
1  118 0 0 139.7
0

0101000
+84 23 -93 23 *
Wi

0101100
+89 0 +85 0 +83 0 +82 0 *
Fa
0  1e-07 57 0

0101000
+81 0 *
Ed
 1e-07 1 1 0
1  119 0 0 1447.8
0

0101000
+100 23 -86 23 *
Wi

0101100
-90 0 -97 0 +79 0 -85 0 *
Fa
0  1e-07 58 0

0101000
+78 0 *
Ed
 1e-07 1 1 0
1  120 0 0 1447.8
0

0101000
+102 23 -84 23 *
Wi

0101100
-79 0 -99 0 +76 0 -83 0 *
Fa
0  1e-07 59 0

0101000
+75 0 *
Wi

0101100
-76 0 -101 0 -92 0 -82 0 *
Fa
0  1e-07 60 0

0101000
+73 0 *
Sh

0101100
-94 0 -87 0 -80 0 -77 0 -74 0 -72 0 *
So

0100000
+71 0 *
Ve
1e-07
0 -12.7 1489.075
0 0

0101101
*
Ve
1e-07
0 -152.4 1524
0 0

0101101
*
Ed
 1e-07 1 1 0
1  121 0 0 143.999463974697
0

0101000
+69 25 -68 25 *
Ve
1e-07
1219.2 -152.4 1524
0 0

0101101
*
Ed
 1e-07 1 1 0
1  122 0 0 1219.2
0

0101000
+68 25 -66 25 *
Ve
1e-07
1219.2 -12.7 1489.075
0 0

0101101
*
Ed
 1e-07 1 1 0
1  123 0 0 143.999463974697
0

0101000
+66 25 -64 25 *
Ed
 1e-07 1 1 0
1  124 0 0 1219.2
0

0101000
+64 25 -69 25 *
Wi

0101100
+67 0 +65 0 +63 0 +62 0 *
Fa
0  1e-07 61 0

0101000
+61 0 *
Ve
1e-07
0 -12.7 1450.975
0 0

0101101
*
Ed
 1e-07 1 1 0
1  125 0 0 38.0999999999999
0

0101000
+59 25 -69 25 *
Ve
1e-07
1219.2 -12.7 1450.975
0 0

0101101
*
Ed
 1e-07 1 1 0
1  126 0 0 38.0999999999999
0

0101000
+64 25 -57 25 *
Ed
 1e-07 1 1 0
1  127 0 0 1219.2
0

0101000
+59 25 -57 25 *
Wi

0101100
+58 0 -62 0 +56 0 -55 0 *
Fa
0  1e-07 62 0

0101000
+54 0 *
Ve
1e-07
1219.2 -152.4 1485.9
0 0

0101101
*
Ed
 1e-07 1 1 0
1  128 0 0 143.999463974697
0

0101000
+57 25 -52 25 *
Ve
1e-07
0 -152.4 1485.9
0 0

0101101
*
Ed
 1e-07 1 1 0
1  129 0 0 1219.2
0

0101000
+52 25 -50 25 *
Ed
 1e-07 1 1 0
1  130 0 0 143.999463974697
0

0101000
+50 25 -59 25 *
Wi

0101100
+55 0 +51 0 +49 0 +48 0 *
Fa
0  1e-07 63 0

0101000
+47 0 *
Ed
 1e-07 1 1 0
1  131 0 0 38.0999999999999
0

0101000
+66 25 -52 25 *
Wi

0101100
-56 0 -63 0 +45 0 -51 0 *
Fa
0  1e-07 64 0

0101000
+44 0 *
Ed
 1e-07 1 1 0
1  132 0 0 38.0999999999999
0

0101000
+68 25 -50 25 *
Wi

0101100
-45 0 -65 0 +42 0 -49 0 *
Fa
0  1e-07 65 0

0101000
+41 0 *
Wi

0101100
-42 0 -67 0 -58 0 -48 0 *
Fa
0  1e-07 66 0

0101000
+39 0 *
Sh

0101100
-60 0 -53 0 -46 0 -43 0 -40 0 -38 0 *
So

0100000
+37 0 *
Ve
1e-07
0 0 1489.075
0 0

0101101
*
Ve
1e-07
0 0 0
0 0

0101101
*
Ed
 1e-07 1 1 0
1  133 0 0 1489.075
0

0101000
-35 27 +34 27 *
Ve
1e-07
0 -12.7 1489.075
0 0

0101101
*
Ed
 1e-07 1 1 0
1  134 0 0 12.7
0

0101000
-32 27 +35 27 *
Ve
1e-07
0 -12.7 0
0 0

0101101
*
Ed
 1e-07 1 1 0
1  135 0 0 1489.075
0

0101000
-32 27 +30 27 *
Ed
 1e-07 1 1 0
1  136 0 0 12.7
0

0101000
-30 27 +34 27 *
Wi

0101100
-33 0 -31 0 +29 0 +28 0 *
Fa
0  1e-07 67 0

0111000
+27 0 *
Ve
1e-07
1219.2 0 1489.075
0 0

0101101
*
Ve
1e-07
1219.2 0 0
0 0

0101101
*
Ed
 1e-07 1 1 0
1  137 0 0 1489.075
0

0101000
-25 27 +24 27 *
Ve
1e-07
1219.2 -12.7 1489.075
0 0

0101101
*
Ed
 1e-07 1 1 0
1  138 0 0 12.7
0

0101000
-22 27 +25 27 *
Ve
1e-07
1219.2 -12.7 0
0 0

0101101
*
Ed
 1e-07 1 1 0
1  139 0 0 1489.075
0

0101000
-22 27 +20 27 *
Ed
 1e-07 1 1 0
1  140 0 0 12.7
0

0101000
-20 27 +24 27 *
Wi

0101100
-23 0 -21 0 +19 0 +18 0 *
Fa
0  1e-07 68 0

0111000
+17 0 *
Ed
 1e-07 1 1 0
1  141 0 0 1219.2
0

0101000
-24 27 +34 27 *
Ed
 1e-07 1 1 0
1  142 0 0 1219.2
0

0101000
-25 27 +35 27 *
Wi

0101100
-15 0 -23 0 +14 0 +33 0 *
Fa
0  1e-07 69 0

0111000
+13 0 *
Ed
 1e-07 1 1 0
1  143 0 0 1219.2
0

0101000
-20 27 +30 27 *
Ed
 1e-07 1 1 0
1  144 0 0 1219.2
0

0101000
-22 27 +32 27 *
Wi

0101100
-11 0 -19 0 +10 0 +29 0 *
Fa
0  1e-07 70 0

0111000
+9 0 *
Wi

0101100
-28 0 -11 0 +18 0 +15 0 *
Fa
0  1e-07 71 0

0111000
+7 0 *
Wi

0101100
-31 0 -10 0 +21 0 +14 0 *
Fa
0  1e-07 72 0

0111000
+5 0 *
Sh

0101100
+26 0 -16 0 +12 0 -8 0 +6 0 -4 0 *
So

0100000
+3 0 *
Co

1100000
+376 4 -342 6 -308 8 -274 10 -240 12 -206 14 -172 16 -138 18 -104 20 -70 22 
-36 24 +2 26 *

+1 3 