DBRep_DrawableShape

CASCADE Topology V1, (c) Matra-Datavision
Locations 27
1
-2.22044604925031e-16               1               0               0 
             -1 -2.22044604925031e-16               0               0 
              0               0               1               0 
1
              1               0               0 12.7000000000003 
              0               1               0          1219.2 
              0               0               1              -0 
2  1 1 2 1 0
1
              1               0               0               0 
              0               1               0               0 
              0               0               1               0 
2  2 -1 1 -1 4 -1 0
1
              1               0               0               0 
              0               1               0               0 
              0               0               1               0 
2  2 -1 1 -1 6 -1 0
1
              1               0               0               0 
              0               1               0               0 
              0               0               1               0 
2  2 -1 1 -1 8 -1 0
1
              1               0               0               0 
              0               1               0               0 
              0               0               1               0 
2  2 -1 1 -1 10 -1 0
1
              1               0               0               0 
              0               1               0               0 
              0               0               1               0 
2  2 -1 1 -1 12 -1 0
1
              1               0               0               0 
              0               1               0               0 
              0               0               1               0 
2  2 -1 1 -1 14 -1 0
1
              1               0               0               0 
              0               1               0               0 
              0               0               1               0 
2  2 -1 1 -1 16 -1 0
1
              1               0               0               0 
              0               1               0               0 
              0               0               1               0 
2  2 -1 1 -1 18 -1 0
1
              1               0               0               0 
              0               1               0               0 
              0               0               1               0 
2  2 -1 1 -1 20 -1 0
1
              1               0               0               0 
              0               1               0               0 
              0               0               1               0 
2  2 -1 1 -1 22 -1 0
1
              1               0               0               0 
              0               1               0               0 
              0               0               1               0 
2  2 -1 1 -1 24 -1 0
1
              1               0               0               0 
              0               1               0               0 
              0               0               1               0 
2  2 -1 1 -1 26 -1 0
Curve2ds 0
Curves 144
1 2438.4000000000001 5.4001247917767614e-13 0 -0 -0 1 
1 2438.4000000000001 5.4001247917767614e-13 38.099999999999994 -4.4408920985006262e-16 1 -0 
1 2438.4000000000001 139.70000000000053 0 -0 -0 1 
1 2438.4000000000001 5.4001247917767614e-13 0 -4.4408920985006262e-16 1 -0 
1 1219.2000000000003 -1.4210854715201196e-15 0 -0 -0 1 
1 1219.2000000000003 -1.4210854715201196e-15 38.099999999999994 -4.4408920985006262e-16 1 -0 
1 1219.2000000000003 139.69999999999999 0 -0 -0 1 
1 1219.2000000000003 -1.4210854715201196e-15 0 -4.4408920985006262e-16 1 -0 
1 2438.4000000000001 5.4001247917767614e-13 0 -1 -4.4408920985006262e-16 -0 
1 2438.4000000000001 5.4001247917767614e-13 38.099999999999994 -1 -4.4408920985006262e-16 -0 
1 2438.4000000000001 139.70000000000053 0 -1 -4.4408920985006262e-16 -0 
1 2438.4000000000001 139.70000000000053 38.099999999999994 -1 -4.4408920985006262e-16 -0 
1 2438.4000000000001 5.4001247917767614e-13 1181.0999999999999 -4.4408920985006262e-16 1 -0 
1 2438.4000000000001 139.70000000000053 1181.0999999999999 -0.97014250014533143 -4.3082981633150449e-16 0.24253562503633522 
1 2400.3000000000002 139.7000000000005 1190.625 4.4408920985006262e-16 -1 0 
1 2400.3000000000002 5.230926802823888e-13 1190.625 0.97014250014533143 4.3082981633150449e-16 -0.24253562503633522 
1 2438.4000000000001 5.4001247917767614e-13 38.099999999999994 -0 -0 1 
1 2400.3000000000002 5.230926802823888e-13 1190.625 -0 -0 -1 
1 2438.4000000000001 5.4001247917767614e-13 38.099999999999994 -1 -4.4408920985006262e-16 -0 
1 2400.3000000000002 5.230926802823888e-13 38.099999999999994 -4.4408920985006262e-16 1 -0 
1 2400.3000000000002 139.7000000000005 38.099999999999994 1 4.4408920985006262e-16 -0 
1 2438.4000000000001 139.70000000000053 38.099999999999994 4.4408920985006262e-16 -1 0 
1 2400.3000000000002 139.7000000000005 1190.625 -0 -0 -1 
1 2438.4000000000001 139.70000000000053 1181.0999999999999 -0 -0 -1 
1 1847.8500000000001 2.7775559630072168e-13 1328.7375 -4.4408920985006262e-16 1 -0 
1 1847.8499999999999 139.70000000000027 1328.7375 -0.97014250014533288 -4.3082981633150513e-16 0.24253562503632958 
1 1809.75 139.70000000000024 1338.2624999999998 4.4408920985006262e-16 -1 0 
1 1809.75 2.6083579740543429e-13 1338.2624999999998 0.97014250014533288 4.3082981633150513e-16 -0.24253562503632958 
1 1847.8500000000001 2.7775559630072168e-13 38.099999999999994 -0 -0 1 
1 1809.75 2.6083579740543429e-13 1338.2624999999998 -0 -0 -1 
1 1847.8500000000001 2.7775559630072168e-13 38.099999999999994 -1 -4.4408920985006262e-16 -0 
1 1809.75 2.6083579740543429e-13 38.099999999999994 -4.4408920985006262e-16 1 -0 
1 1809.75 139.70000000000024 38.099999999999994 1 4.4408920985006262e-16 -0 
1 1847.8499999999999 139.70000000000027 38.099999999999994 4.4408920985006262e-16 -1 0 
1 1809.75 139.70000000000024 1338.2624999999998 -0 -0 -1 
1 1847.8499999999999 139.70000000000027 1328.7375 -0 -0 -1 
1 1257.3000000000002 1.5498713423767226e-14 1476.375 -4.4408920985006262e-16 1 -0 
1 1257.3000000000002 139.70000000000002 1476.375 -0.97014250014533265 -4.3082981633150503e-16 0.24253562503633028 
1 1219.2000000000003 139.69999999999999 1485.8999999999999 4.4408920985006262e-16 -1 0 
1 1219.2000000000003 -1.4210854715201196e-15 1485.8999999999999 0.97014250014533265 4.3082981633150503e-16 -0.24253562503633028 
1 1257.3000000000002 1.5498713423767226e-14 38.099999999999994 -0 -0 1 
1 1219.2000000000003 -1.4210854715201196e-15 1485.8999999999999 -0 -0 -1 
1 1257.3000000000002 1.5498713423767226e-14 38.099999999999994 -1 -4.4408920985006262e-16 -0 
1 1219.2000000000003 -1.4210854715201196e-15 38.099999999999994 -4.4408920985006262e-16 1 -0 
1 1219.2000000000003 139.69999999999999 38.099999999999994 1 4.4408920985006262e-16 -0 
1 1257.3000000000002 139.70000000000002 38.099999999999994 4.4408920985006262e-16 -1 0 
1 1219.2000000000003 139.69999999999999 1485.8999999999999 -0 -0 -1 
1 1257.3000000000002 139.70000000000002 1476.375 -0 -0 -1 
1 2438.4000000000001 5.4001247917767614e-13 1181.0999999999999 -4.4408920985006262e-16 1 -0 
1 2438.4000000000001 139.70000000000053 1181.0999999999999 -0.97014250014533143 -4.3082981633150449e-16 0.24253562503633522 
1 2400.3000000000002 139.7000000000005 1190.625 4.4408920985006262e-16 -1 0 
1 2400.3000000000002 5.230926802823888e-13 1190.625 0.97014250014533143 4.3082981633150449e-16 -0.24253562503633522 
1 2438.4000000000001 5.4001247917767614e-13 38.099999999999994 -0 -0 1 
1 2400.3000000000002 5.230926802823888e-13 1190.625 -0 -0 -1 
1 2438.4000000000001 5.4001247917767614e-13 38.099999999999994 -1 -4.4408920985006262e-16 -0 
1 2400.3000000000002 5.230926802823888e-13 38.099999999999994 -4.4408920985006262e-16 1 -0 
1 2400.3000000000002 139.7000000000005 38.099999999999994 1 4.4408920985006262e-16 -0 
1 2438.4000000000001 139.70000000000053 38.099999999999994 4.4408920985006262e-16 -1 0 
1 2400.3000000000002 139.7000000000005 1190.625 -0 -0 -1 
1 2438.4000000000001 139.70000000000053 1181.0999999999999 -0 -0 -1 
1 2400.3000000000002 101.60000000000052 1190.625 -4.4408920985006262e-16 1 -0 
1 2400.3000000000002 139.7000000000005 1190.625 -0.97014250014533199 -4.3082981633150474e-16 0.24253562503633269 
1 2260.5999999999999 139.70000000000044 1225.55 4.4408920985006262e-16 -1 0 
1 2260.5999999999999 101.60000000000045 1225.55 0.97014250014533199 4.3082981633150474e-16 -0.24253562503633269 
1 2400.3000000000002 101.60000000000052 38.099999999999994 -0 -0 1 
1 2260.5999999999999 101.60000000000045 1225.55 -0 -0 -1 
1 2400.3000000000002 101.60000000000052 38.099999999999994 -1 -4.4408920985006262e-16 -0 
1 2260.5999999999999 101.60000000000045 38.099999999999994 -4.4408920985006262e-16 1 -0 
1 2260.5999999999999 139.70000000000044 38.099999999999994 1 4.4408920985006262e-16 -0 
1 2400.3000000000002 139.7000000000005 38.099999999999994 4.4408920985006262e-16 -1 0 
1 2260.5999999999999 139.70000000000044 1225.55 -0 -0 -1 
1 2400.3000000000002 139.7000000000005 1190.625 -0 -0 -1 
1 2260.5999999999999 4.6105341766633503e-13 1225.55 -4.4408920985006262e-16 1 -0 
1 2260.5999999999999 139.70000000000044 1225.55 -0.97014250014533276 -4.3082981633150508e-16 0.24253562503632975 
1 2222.5 139.70000000000044 1235.0749999999998 4.4408920985006262e-16 -1 0 
1 2222.5 4.4413361877104763e-13 1235.0749999999998 0.97014250014533276 4.3082981633150508e-16 -0.24253562503632975 
1 2260.5999999999999 4.6105341766633503e-13 38.099999999999994 -0 -0 1 
1 2222.5 4.4413361877104763e-13 1235.0749999999998 -0 -0 -1 
1 2260.5999999999999 4.6105341766633503e-13 38.099999999999994 -1 -4.4408920985006262e-16 -0 
1 2222.5 4.4413361877104763e-13 38.099999999999994 -4.4408920985006262e-16 1 -0 
1 2222.5 139.70000000000044 38.099999999999994 1 4.4408920985006262e-16 -0 
1 2260.5999999999999 139.70000000000044 38.099999999999994 4.4408920985006262e-16 -1 0 
1 2222.5 139.70000000000044 1235.0749999999998 -0 -0 -1 
1 2260.5999999999999 139.70000000000044 1225.55 -0 -0 -1 
1 1257.3000000000002 1.5498713423767226e-14 1476.375 -4.4408920985006262e-16 1 -0 
1 1257.3000000000002 139.70000000000002 1476.375 -0.97014250014533265 -4.3082981633150503e-16 0.24253562503633028 
1 1219.2000000000003 139.69999999999999 1485.8999999999999 4.4408920985006262e-16 -1 0 
1 1219.2000000000003 -1.4210854715201196e-15 1485.8999999999999 0.97014250014533265 4.3082981633150503e-16 -0.24253562503633028 
1 1257.3000000000002 1.5498713423767226e-14 38.099999999999994 -0 -0 1 
1 1219.2000000000003 -1.4210854715201196e-15 1485.8999999999999 -0 -0 -1 
1 1257.3000000000002 1.5498713423767226e-14 38.099999999999994 -1 -4.4408920985006262e-16 -0 
1 1219.2000000000003 -1.4210854715201196e-15 38.099999999999994 -4.4408920985006262e-16 1 -0 
1 1219.2000000000003 139.69999999999999 38.099999999999994 1 4.4408920985006262e-16 -0 
1 1257.3000000000002 139.70000000000002 38.099999999999994 4.4408920985006262e-16 -1 0 
1 1219.2000000000003 139.69999999999999 1485.8999999999999 -0 -0 -1 
1 1257.3000000000002 139.70000000000002 1476.375 -0 -0 -1 
1 1397.0000000000002 101.60000000000007 1441.4499999999998 -4.4408920985006262e-16 1 -0 
1 1397.0000000000002 139.70000000000007 1441.4499999999998 -0.97014250014533165 -4.3082981633150459e-16 0.24253562503633408 
1 1257.3000000000002 139.70000000000002 1476.375 4.4408920985006262e-16 -1 0 
1 1257.3000000000002 101.60000000000001 1476.375 0.97014250014533165 4.3082981633150459e-16 -0.24253562503633408 
1 1397.0000000000002 101.60000000000007 38.099999999999994 -0 -0 1 
1 1257.3000000000002 101.60000000000001 1476.375 -0 -0 -1 
1 1397.0000000000002 101.60000000000007 38.099999999999994 -1 -4.4408920985006262e-16 -0 
1 1257.3000000000002 101.60000000000001 38.099999999999994 -4.4408920985006262e-16 1 -0 
1 1257.3000000000002 139.70000000000002 38.099999999999994 1 4.4408920985006262e-16 -0 
1 1397.0000000000002 139.70000000000007 38.099999999999994 4.4408920985006262e-16 -1 0 
1 1257.3000000000002 139.70000000000002 1476.375 -0 -0 -1 
1 1397.0000000000002 139.70000000000007 1441.4499999999998 -0 -0 -1 
1 1435.1000000000001 9.4457774935108339e-14 1431.925 -4.4408920985006262e-16 1 -0 
1 1435.0999999999999 139.70000000000007 1431.925 -0.97014250014533265 -4.3082981633150503e-16 0.24253562503633028 
1 1397.0000000000002 139.70000000000007 1441.4499999999998 4.4408920985006262e-16 -1 0 
1 1397.0000000000002 7.7537976039820993e-14 1441.4499999999998 0.97014250014533265 4.3082981633150503e-16 -0.24253562503633028 
1 1435.1000000000001 9.4457774935108339e-14 38.099999999999994 -0 -0 1 
1 1397.0000000000002 7.7537976039820993e-14 1441.4499999999998 -0 -0 -1 
1 1435.1000000000001 9.4457774935108339e-14 38.099999999999994 -1 -4.4408920985006262e-16 -0 
1 1397.0000000000002 7.7537976039820993e-14 38.099999999999994 -4.4408920985006262e-16 1 -0 
1 1397.0000000000002 139.70000000000007 38.099999999999994 1 4.4408920985006262e-16 -0 
1 1435.0999999999999 139.70000000000007 38.099999999999994 4.4408920985006262e-16 -1 0 
1 1397.0000000000002 139.70000000000007 1441.4499999999998 -0 -0 -1 
1 1435.0999999999999 139.70000000000007 1431.925 -0 -0 -1 
1 2438.4000000000001 5.4001247917767614e-13 1219.1999999999998 -4.4408920985006262e-16 1 -0 
1 2438.4000000000001 139.70000000000053 1219.1999999999998 -0.97014250014533188 -4.3082981633150469e-16 0.24253562503633297 
1 1219.2000000000003 139.69999999999999 1523.9999999999998 4.4408920985006262e-16 -1 0 
1 1219.2000000000003 -1.4210854715201196e-15 1523.9999999999998 0.97014250014533188 4.3082981633150469e-16 -0.24253562503633297 
1 2438.4000000000001 5.4001247917767614e-13 1181.0999999999999 -0 -0 1 
1 1219.2000000000003 -1.4210854715201196e-15 1523.9999999999998 -0 -0 -1 
1 2438.4000000000001 5.4001247917767614e-13 1181.0999999999999 -0.97014250014533188 -4.3082981633150469e-16 0.24253562503633297 
1 1219.2000000000003 -1.4210854715201196e-15 1485.8999999999999 -4.4408920985006262e-16 1 -0 
1 1219.2000000000003 139.69999999999999 1485.8999999999999 0.97014250014533188 4.3082981633150469e-16 -0.24253562503633297 
1 2438.4000000000001 139.70000000000053 1181.0999999999999 4.4408920985006262e-16 -1 0 
1 1219.2000000000003 139.69999999999999 1523.9999999999998 -0 -0 -1 
1 2438.4000000000001 139.70000000000053 1219.1999999999998 -0 -0 -1 
1 2438.4000000000001 -12.699999999999459 1219.1999999999998 -4.4408920985006262e-16 1 -0 
1 2438.4000000000001 5.4001247917767614e-13 1219.1999999999998 -0.97014250014533188 -4.3082981633150469e-16 0.24253562503633316 
1 1219.2000000000003 -1.4210854715201196e-15 1524 4.4408920985006262e-16 -1 0 
1 1219.2000000000003 -12.700000000000001 1524 0.97014250014533188 4.3082981633150469e-16 -0.24253562503633316 
1 2438.4000000000001 -12.699999999999459 0 -0 -0 1 
1 1219.2000000000003 -12.700000000000001 1524 -0 -0 -1 
1 2438.4000000000001 -12.699999999999459 0 -1 -4.4408920985006262e-16 -0 
1 1219.2000000000003 -12.700000000000001 0 -4.4408920985006262e-16 1 -0 
1 1219.2000000000003 -1.4210854715201196e-15 0 1 4.4408920985006262e-16 -0 
1 2438.4000000000001 5.4001247917767614e-13 0 4.4408920985006262e-16 -1 0 
1 1219.2000000000003 -1.4210854715201196e-15 1524 -0 -0 -1 
1 2438.4000000000001 5.4001247917767614e-13 1219.1999999999998 -0 -0 -1 
Polygon3D 0
PolygonOnTriangulations 0
Surfaces 72
1 2438.4000000000001 5.4001247917767614e-13 0 -1 -4.4408920985006262e-16 -0 -0 -0 1 4.4408920985006262e-16 -1 0 
1 1219.2000000000003 -1.4210854715201196e-15 0 -1 -4.4408920985006262e-16 -0 -0 -0 1 4.4408920985006262e-16 -1 0 
1 2438.4000000000001 5.4001247917767614e-13 0 -4.4408920985006262e-16 1 -0 -0 -0 1 -1 -4.4408920985006262e-16 -0 
1 2438.4000000000001 139.70000000000053 0 -4.4408920985006262e-16 1 -0 -0 -0 1 -1 -4.4408920985006262e-16 -0 
1 2438.4000000000001 5.4001247917767614e-13 0 -0 -0 1 -1 -4.4408920985006262e-16 -0 -4.4408920985006262e-16 1 -0 
1 2438.4000000000001 5.4001247917767614e-13 38.099999999999994 -0 -0 1 -1 -4.4408920985006262e-16 -0 -4.4408920985006262e-16 1 -0 
1 2419.3499999999999 69.85000000000052 1185.8625 -0.24253562503633519 -1.0770745408287716e-16 -0.97014250014533143 0.97014250014533143 4.3082981633150449e-16 -0.24253562503633519 -4.4408920985006262e-16 1 -0 
1 2419.2735317817987 5.3151862101943277e-13 612.27439527100182 -4.4408920985006262e-16 1 -0 -0 -0 1 -1 -4.4408920985006262e-16 -0 
1 2419.3499999999999 69.850000000000506 38.099999999999994 -0 -0 1 -1 -4.4408920985006262e-16 -0 -4.4408920985006262e-16 1 -0 
1 2400.3000000000002 69.85000000000052 614.36249999999984 1 4.4408920985006262e-16 -6.5086833397070904e-33 -6.5086833397070904e-33 -2.8904360414947884e-48 -1 4.4408920985006262e-16 -1 1.4086264844155246e-80 
1 2419.2735317817987 139.70000000000047 612.27439527100182 4.4408920985006212e-16 -1 3.5071728888107074e-32 1 4.4408920985006212e-16 -0 1.5574976369995069e-47 -3.5071728888107074e-32 -1 
1 2438.4000000000001 69.850000000000534 609.5999999999998 -1 -4.4408920985006262e-16 -0 -0 -0 1 4.4408920985006262e-16 -1 0 
1 1828.8000000000002 69.850000000000279 1333.5 -0.24253562503632953 -1.1046449255859589e-16 -0.97014250014533276 0.97014250014533276 4.3082981633150508e-16 -0.24253562503632953 -4.4475788990002089e-16 1 -2.6747201998330862e-18 
1 1828.7319941853516 2.6926549620458551e-13 686.09314527100162 -4.4408920985006262e-16 1 -0 -0 -0 1 -1 -4.4408920985006262e-16 -0 
1 1828.8000000000002 69.850000000000264 38.100000000000001 1.0930879255754281e-30 4.8542855316543592e-46 1 -1 -4.4408920985006262e-16 1.0930879255754281e-30 -4.4408920985006262e-16 1 -0 
1 1809.7500000000002 69.85000000000025 688.18124999999986 1 4.4408920985006262e-16 5.178011129239899e-33 5.178011129239899e-33 2.2994988709789772e-48 -1 4.4408920985006262e-16 -1 9.0260954533214672e-81 
1 1828.7319941853514 139.70000000000022 686.09314527100173 4.4408920985005645e-16 -1 1.4698191370189231e-32 1 4.4408920985005645e-16 -0 6.5273081918122547e-48 -1.4698191370189231e-32 -1 
1 1847.8500000000001 69.850000000000293 683.41874999999993 -1 -4.4408920985006262e-16 -0 -0 -0 1 4.4408920985006262e-16 -1 0 
1 1238.2500000000002 69.849999999999994 1481.1375 -0.24253562503633025 -1.0660463869258647e-16 -0.97014250014533265 0.97014250014533265 4.3082981633150503e-16 -0.24253562503633025 -4.4382173783007929e-16 1 1.0698880799332353e-18 
1 1238.1887702177837 7.0116224905197296e-15 759.91189527100198 -4.4408920985006262e-16 1 -0 -0 -0 1 -1 -4.4408920985006262e-16 -0 
1 1238.2500000000002 69.849999999999994 38.100000000000001 -0 -0 1 -1 -4.4408920985006262e-16 -0 -4.4408920985006262e-16 1 -0 
1 1219.2 69.849999999999994 762.00000000000011 1 4.4408920985006262e-16 8.7162517380238668e-32 8.7162517380238668e-32 3.870793347193254e-47 -1 4.4408920985006262e-16 -1 2.5831624333381738e-78 
1 1238.1887702177839 139.69999999999993 759.91189527100198 4.4408920985001834e-16 -1 -8.2416911380485511e-34 1 4.4408920985001834e-16 -0 -3.6600461053238797e-49 8.2416911380485511e-34 -1 
1 1257.3 69.850000000000009 757.23750000000018 -1 -4.4408920985006262e-16 -8.8269368807522462e-32 -8.8269368807522462e-32 -3.9199474247696414e-47 1 4.4408920985006262e-16 -1 -2.6476416455330169e-78 
1 2419.3499999999999 69.85000000000052 1185.8625 -0.24253562503633519 -1.0770745408287716e-16 -0.97014250014533143 0.97014250014533143 4.3082981633150449e-16 -0.24253562503633519 -4.4408920985006262e-16 1 -0 
1 2419.2735317817987 5.3151862101943277e-13 612.27439527100182 -4.4408920985006262e-16 1 -0 -0 -0 1 -1 -4.4408920985006262e-16 -0 
1 2419.3499999999999 69.850000000000506 38.099999999999994 -0 -0 1 -1 -4.4408920985006262e-16 -0 -4.4408920985006262e-16 1 -0 
1 2400.3000000000002 69.85000000000052 614.36249999999984 1 4.4408920985006262e-16 -6.5086833397070904e-33 -6.5086833397070904e-33 -2.8904360414947884e-48 -1 4.4408920985006262e-16 -1 1.4086264844155246e-80 
1 2419.2735317817987 139.70000000000047 612.27439527100182 4.4408920985006212e-16 -1 3.5071728888107074e-32 1 4.4408920985006212e-16 -0 1.5574976369995069e-47 -3.5071728888107074e-32 -1 
1 2438.4000000000001 69.850000000000534 609.5999999999998 -1 -4.4408920985006262e-16 -0 -0 -0 1 4.4408920985006262e-16 -1 0 
1 2330.4499999999998 120.65000000000049 1208.0875000000003 -0.24253562503633269 -1.0770745408287605e-16 -0.97014250014533199 0.97014250014533199 4.3082981633150474e-16 -0.24253562503633269 -4.4408920985006262e-16 1 -0 
1 2329.5201928598626 101.60000000000051 624.16861599367405 -4.4408920985006257e-16 1 4.9108635929556074e-33 -1 -4.4408920985006257e-16 -0 -2.1808615326770949e-48 4.9108635929556074e-33 -1 
1 2330.4499999999998 120.65000000000045 38.099999999999994 -0 -0 1 -1 -4.4408920985006262e-16 -0 -4.4408920985006262e-16 1 -0 
1 2260.5999999999999 120.65000000000042 631.82499999999982 1 4.4408920985006262e-16 -0 -0 -0 -1 4.4408920985006262e-16 -1 0 
1 2329.5201928598626 139.70000000000044 624.16861599367405 4.4408920985006271e-16 -1 1.1957058404098272e-32 1 4.4408920985006271e-16 -0 5.3100006188070537e-48 -1.1957058404098272e-32 -1 
1 2400.3000000000002 120.6500000000005 614.36249999999973 -1 -4.4408920985006262e-16 -0 -0 -0 1 4.4408920985006262e-16 -1 0 
1 2241.5500000000002 69.850000000000463 1230.3125 -0.24253562503632978 -1.1156730794888448e-16 -0.97014250014533276 0.97014250014533276 4.3082981633150508e-16 -0.24253562503632978 -4.4502536192000422e-16 1 -3.7446082797663153e-18 
1 2241.4762931886057 4.5256078581905867e-13 634.49939527100173 -4.4408920985006262e-16 1 -0 -0 -0 1 -1 -4.4408920985006262e-16 -0 
1 2241.5500000000002 69.850000000000435 38.099999999999994 -0 -0 1 -1 -4.4408920985006262e-16 -0 -4.4408920985006262e-16 1 -0 
1 2222.5 69.850000000000435 636.58749999999998 1 4.4408920985006262e-16 7.0683414473997316e-33 7.0683414473997316e-33 3.1389741683261948e-48 -1 4.4408920985006262e-16 -1 1.6679830914193793e-80 
1 2241.4762931886057 139.70000000000041 634.49939527100173 4.4408920985006202e-16 -1 2.0232836800574884e-32 1 4.4408920985006202e-16 -0 8.9851845077925569e-48 -2.0232836800574884e-32 -1 
1 2260.5999999999999 69.850000000000449 631.82499999999993 -1 -4.4408920985006262e-16 3.5880880098346556e-33 3.5880880098346556e-33 1.5934311691599559e-48 1 4.4408920985006262e-16 -1 -4.2945616608856855e-81 
1 1238.2500000000002 69.849999999999994 1481.1375 -0.24253562503633025 -1.0660463869258647e-16 -0.97014250014533265 0.97014250014533265 4.3082981633150503e-16 -0.24253562503633025 -4.4382173783007929e-16 1 1.0698880799332353e-18 
1 1238.1887702177837 7.0116224905197296e-15 759.91189527100198 -4.4408920985006262e-16 1 -0 -0 -0 1 -1 -4.4408920985006262e-16 -0 
1 1238.2500000000002 69.849999999999994 38.100000000000001 -0 -0 1 -1 -4.4408920985006262e-16 -0 -4.4408920985006262e-16 1 -0 
1 1219.2 69.849999999999994 762.00000000000011 1 4.4408920985006262e-16 8.7162517380238668e-32 8.7162517380238668e-32 3.870793347193254e-47 -1 4.4408920985006262e-16 -1 2.5831624333381738e-78 
1 1238.1887702177839 139.69999999999993 759.91189527100198 4.4408920985001834e-16 -1 -8.2416911380485511e-34 1 4.4408920985001834e-16 -0 -3.6600461053238797e-49 8.2416911380485511e-34 -1 
1 1257.3 69.850000000000009 757.23750000000018 -1 -4.4408920985006262e-16 -8.8269368807522462e-32 -8.8269368807522462e-32 -3.9199474247696414e-47 1 4.4408920985006262e-16 -1 -2.6476416455330169e-78 
1 1327.1500000000003 120.65000000000001 1458.9124999999997 -0.24253562503633411 -4.7624957033832699e-17 -0.97014250014533165 0.97014250014533165 4.3082981633150459e-16 -0.24253562503633411 -4.2951706387452905e-16 1 5.8288583902134035e-17 
1 1326.3694374446172 101.60000000000007 749.58111599367442 -4.4408920985006074e-16 1 -1.3225639477007311e-32 -1 -4.4408920985006074e-16 -0 5.8733637851059479e-48 -1.3225639477007311e-32 -1 
1 1327.1500000000005 120.64999999999999 38.099999999999987 4.9595476953794302e-31 -8.300636434838422e-31 1 -4.4408920985006262e-16 1 8.3006364348384237e-31 1 4.4408920985006262e-16 -4.9595476953794267e-31 
1 1257.3 120.64999999999999 757.23750000000018 1 4.4408920985005384e-16 8.2931261124001259e-32 4.4408920985005384e-16 -1 0 -8.2931261124001259e-32 -3.6828878224426205e-47 1 
1 1326.3694374446177 139.70000000000002 749.58111599367419 4.4408920985006183e-16 -1 -4.2582397193244567e-33 1 4.4408920985006183e-16 -0 -1.8910383123069471e-48 4.2582397193244567e-33 -1 
1 1397.0000000000007 120.65000000000001 739.77499999999986 -1 -4.4408920985013509e-16 -3.3543941719863894e-32 -4.4408920985013509e-16 1 -0 -3.3543941719863894e-32 -1.4896502573633338e-47 1 
1 1416.0500000000002 69.85000000000008 1436.6874999999998 -0.24253562503633025 -1.0881026947316346e-16 -0.97014250014533265 0.97014250014533265 4.3082981633150503e-16 -0.24253562503633025 -4.4435668187004595e-16 1 -1.0698880799332353e-18 
1 1415.9868765884435 8.5969843061503454e-14 737.68689527100207 -4.4408920985006262e-16 1 -0 -0 -0 1 -1 -4.4408920985006262e-16 -0 
1 1416.0500000000002 69.85000000000008 38.100000000000001 2.2408302474296425e-30 9.9512853398915026e-46 1 -1 -4.4408920985006262e-16 2.2408302474296425e-30 -4.4408920985006262e-16 1 -0 
1 1397 69.850000000000065 739.77500000000009 1 4.4408920985006262e-16 9.2513704833502887e-32 9.2513704833502887e-32 4.1084338079812216e-47 -1 4.4408920985006262e-16 -1 2.901987214430718e-78 
1 1415.9868765884435 139.70000000000005 737.68689527100207 4.4408920985005729e-16 -1 -6.5423471292063809e-33 1 4.4408920985005729e-16 -0 -2.9053857671740526e-48 6.5423471292063809e-33 -1 
1 1435.1000000000001 69.850000000000094 735.01250000000016 -1 -4.4408920985006262e-16 -0 -0 -0 1 4.4408920985006262e-16 -1 0 
1 1828.8000000000002 69.850000000000264 1371.5999999999999 -0.24253562503633297 -1.0770745408287617e-16 -0.97014250014533188 0.97014250014533188 4.3082981633150469e-16 -0.24253562503633297 -4.4408920985006262e-16 1 -0 
1 1828.8000000000002 2.6929569685307801e-13 1352.55 -4.4408920985006262e-16 1 -0 -0 -0 1 -1 -4.4408920985006262e-16 -0 
1 1828.8000000000002 69.850000000000264 1333.5 0.24253562503633297 1.0770745408287617e-16 0.97014250014533188 -0.97014250014533188 -4.3082981633150469e-16 0.24253562503633297 -4.4408920985006262e-16 1 -0 
1 1219.2 69.849999999999994 1504.9499999999998 1 4.4408920985006262e-16 -0 -0 -0 -1 4.4408920985006262e-16 -1 0 
1 1828.8000000000002 139.70000000000027 1352.55 4.4408920985006479e-16 -1 8.6417077627571928e-30 3.8376891721179941e-45 -8.6417077627571928e-30 -1 -1 -4.4408920985006479e-16 1.8669778264224482e-59 
1 2438.4000000000001 69.850000000000534 1200.1499999999999 -1 -4.4408920985006262e-16 -0 -0 -0 1 4.4408920985006262e-16 -1 0 
1 1828.8000000000002 -6.3499999999997314 1371.5999999999999 -0.24253562503633319 -7.8468065129645764e-16 -0.97014250014533188 0.97014250014533188 4.3082981633150469e-16 -0.24253562503633319 -6.0827932736910344e-16 1 -6.5676047007616271e-16 
1 1793.1989815090562 -12.699999999999745 695.18064867206567 -4.4408920985006262e-16 1 -0 -0 -0 1 -1 -4.4408920985006262e-16 -0 
1 1828.8000000000002 -6.3499999999997314 0 -0 -0 1 -1 -4.4408920985006262e-16 -0 -4.4408920985006262e-16 1 -0 
1 1219.2000000000003 -6.3500000000000023 762 1 4.4408920985006262e-16 -0 -0 -0 -1 4.4408920985006262e-16 -1 0 
1 1793.1989815090562 2.5348566868157725e-13 695.18064867206567 4.4408920985006262e-16 -1 -0 -0 -0 -1 -1 -4.4408920985006262e-16 0 
1 2438.4000000000001 -6.3499999999994605 609.60000000000002 -1 -4.4408920985006262e-16 -0 -0 -0 1 4.4408920985006262e-16 -1 0 
Triangulations 0

TShapes 409
Ve
1e-07
12.7000000000003 -1219.2 38.1
0 0

0101101
*
Ve
1e-07
12.7000000000003 -1219.2 0
0 0

0101101
*
Ed
 1e-07 1 1 0
1  1 0 0 38.1
0

0101000
-409 5 +408 5 *
Ve
1e-07
152.4 -1219.2 38.1
0 0

0101101
*
Ed
 1e-07 1 1 0
1  2 0 0 139.7
0

0101000
-406 5 +409 5 *
Ve
1e-07
152.4 -1219.2 0
0 0

0101101
*
Ed
 1e-07 1 1 0
1  3 0 0 38.1
0

0101000
-406 5 +404 5 *
Ed
 1e-07 1 1 0
1  4 0 0 139.7
0

0101000
-404 5 +408 5 *
Wi

0101100
-407 0 -405 0 +403 0 +402 0 *
Fa
0  1e-07 1 0

0111000
+401 0 *
Ve
1e-07
12.7 -2.27373675443232e-13 38.1
0 0

0101101
*
Ve
1e-07
12.7 -2.27373675443232e-13 0
0 0

0101101
*
Ed
 1e-07 1 1 0
1  5 0 0 38.1
0

0101000
-399 5 +398 5 *
Ve
1e-07
152.4 -2.27373675443232e-13 38.1
0 0

0101101
*
Ed
 1e-07 1 1 0
1  6 0 0 139.7
0

0101000
-396 5 +399 5 *
Ve
1e-07
152.4 -2.27373675443232e-13 0
0 0

0101101
*
Ed
 1e-07 1 1 0
1  7 0 0 38.1
0

0101000
-396 5 +394 5 *
Ed
 1e-07 1 1 0
1  8 0 0 139.7
0

0101000
-394 5 +398 5 *
Wi

0101100
-397 0 -395 0 +393 0 +392 0 *
Fa
0  1e-07 2 0

0111000
+391 0 *
Ed
 1e-07 1 1 0
1  9 0 0 1219.2
0

0101000
-398 5 +408 5 *
Ed
 1e-07 1 1 0
1  10 0 0 1219.2
0

0101000
-399 5 +409 5 *
Wi

0101100
-389 0 -397 0 +388 0 +407 0 *
Fa
0  1e-07 3 0

0111000
+387 0 *
Ed
 1e-07 1 1 0
1  11 0 0 1219.2
0

0101000
-394 5 +404 5 *
Ed
 1e-07 1 1 0
1  12 0 0 1219.2
0

0101000
-396 5 +406 5 *
Wi

0101100
-385 0 -393 0 +384 0 +403 0 *
Fa
0  1e-07 4 0

0111000
+383 0 *
Wi

0101100
-402 0 -385 0 +392 0 +389 0 *
Fa
0  1e-07 5 0

0111000
+381 0 *
Wi

0101100
-405 0 -384 0 +395 0 +388 0 *
Fa
0  1e-07 6 0

0111000
+379 0 *
Sh

0101100
+400 0 -390 0 +386 0 -382 0 +380 0 -378 0 *
So

0100000
+377 0 *
Ve
1e-07
12.7000000000003 -1219.2 1181.1
0 0

0101101
*
Ve
1e-07
152.4 -1219.2 1181.1
0 0

0101101
*
Ed
 1e-07 1 1 0
1  13 0 0 139.7
0

0101000
+375 7 -374 7 *
Ve
1e-07
152.4 -1181.1 1190.625
0 0

0101101
*
Ed
 1e-07 1 1 0
1  14 0 0 39.2725810840082
0

0101000
+374 7 -372 7 *
Ve
1e-07
12.7000000000003 -1181.1 1190.625
0 0

0101101
*
Ed
 1e-07 1 1 0
1  15 0 0 139.7
0

0101000
+372 7 -370 7 *
Ed
 1e-07 1 1 0
1  16 0 0 39.2725810840082
0

0101000
+370 7 -375 7 *
Wi

0101100
+373 0 +371 0 +369 0 +368 0 *
Fa
0  1e-07 7 0

0101000
+367 0 *
Ve
1e-07
12.7000000000003 -1219.2 38.1
0 0

0101101
*
Ed
 1e-07 1 1 0
1  17 0 0 1143
0

0101000
+365 7 -375 7 *
Ve
1e-07
12.7000000000003 -1181.1 38.1
0 0

0101101
*
Ed
 1e-07 1 1 0
1  18 0 0 1152.525
0

0101000
+370 7 -363 7 *
Ed
 1e-07 1 1 0
1  19 0 0 38.1
0

0101000
+365 7 -363 7 *
Wi

0101100
+364 0 -368 0 +362 0 -361 0 *
Fa
0  1e-07 8 0

0101000
+360 0 *
Ve
1e-07
152.4 -1181.1 38.1
0 0

0101101
*
Ed
 1e-07 1 1 0
1  20 0 0 139.7
0

0101000
+363 7 -358 7 *
Ve
1e-07
152.4 -1219.2 38.1
0 0

0101101
*
Ed
 1e-07 1 1 0
1  21 0 0 38.1
0

0101000
+358 7 -356 7 *
Ed
 1e-07 1 1 0
1  22 0 0 139.7
0

0101000
+356 7 -365 7 *
Wi

0101100
+361 0 +357 0 +355 0 +354 0 *
Fa
0  1e-07 9 0

0101000
+353 0 *
Ed
 1e-07 1 1 0
1  23 0 0 1152.525
0

0101000
+372 7 -358 7 *
Wi

0101100
-362 0 -369 0 +351 0 -357 0 *
Fa
0  1e-07 10 0

0101000
+350 0 *
Ed
 1e-07 1 1 0
1  24 0 0 1143
0

0101000
+374 7 -356 7 *
Wi

0101100
-351 0 -371 0 +348 0 -355 0 *
Fa
0  1e-07 11 0

0101000
+347 0 *
Wi

0101100
-348 0 -373 0 -364 0 -354 0 *
Fa
0  1e-07 12 0

0101000
+345 0 *
Sh

0101100
-366 0 -359 0 -352 0 -349 0 -346 0 -344 0 *
So

0100000
+343 0 *
Ve
1e-07
12.7000000000001 -628.65 1328.7375
0 0

0101101
*
Ve
1e-07
152.4 -628.65 1328.7375
0 0

0101101
*
Ed
 1e-07 1 1 0
1  25 0 0 139.7
0

0101000
+341 9 -340 9 *
Ve
1e-07
152.4 -590.55 1338.2625
0 0

0101101
*
Ed
 1e-07 1 1 0
1  26 0 0 39.2725810840082
0

0101000
+340 9 -338 9 *
Ve
1e-07
12.7000000000001 -590.55 1338.2625
0 0

0101101
*
Ed
 1e-07 1 1 0
1  27 0 0 139.7
0

0101000
+338 9 -336 9 *
Ed
 1e-07 1 1 0
1  28 0 0 39.2725810840082
0

0101000
+336 9 -341 9 *
Wi

0101100
+339 0 +337 0 +335 0 +334 0 *
Fa
0  1e-07 13 0

0101000
+333 0 *
Ve
1e-07
12.7000000000001 -628.65 38.1
0 0

0101101
*
Ed
 1e-07 1 1 0
1  29 0 0 1290.6375
0

0101000
+331 9 -341 9 *
Ve
1e-07
12.7000000000001 -590.55 38.1
0 0

0101101
*
Ed
 1e-07 1 1 0
1  30 0 0 1300.1625
0

0101000
+336 9 -329 9 *
Ed
 1e-07 1 1 0
1  31 0 0 38.1
0

0101000
+331 9 -329 9 *
Wi

0101100
+330 0 -334 0 +328 0 -327 0 *
Fa
0  1e-07 14 0

0101000
+326 0 *
Ve
1e-07
152.4 -590.55 38.1
0 0

0101101
*
Ed
 1e-07 1 1 0
1  32 0 0 139.7
0

0101000
+329 9 -324 9 *
Ve
1e-07
152.4 -628.65 38.1
0 0

0101101
*
Ed
 1e-07 1 1 0
1  33 0 0 38.1
0

0101000
+324 9 -322 9 *
Ed
 1e-07 1 1 0
1  34 0 0 139.7
0

0101000
+322 9 -331 9 *
Wi

0101100
+327 0 +323 0 +321 0 +320 0 *
Fa
0  1e-07 15 0

0101000
+319 0 *
Ed
 1e-07 1 1 0
1  35 0 0 1300.1625
0

0101000
+338 9 -324 9 *
Wi

0101100
-328 0 -335 0 +317 0 -323 0 *
Fa
0  1e-07 16 0

0101000
+316 0 *
Ed
 1e-07 1 1 0
1  36 0 0 1290.6375
0

0101000
+340 9 -322 9 *
Wi

0101100
-317 0 -337 0 +314 0 -321 0 *
Fa
0  1e-07 17 0

0101000
+313 0 *
Wi

0101100
-314 0 -339 0 -330 0 -320 0 *
Fa
0  1e-07 18 0

0101000
+311 0 *
Sh

0101100
-332 0 -325 0 -318 0 -315 0 -312 0 -310 0 *
So

0100000
+309 0 *
Ve
1e-07
12.7 -38.1000000000001 1476.375
0 0

0101101
*
Ve
1e-07
152.4 -38.1000000000001 1476.375
0 0

0101101
*
Ed
 1e-07 1 1 0
1  37 0 0 139.7
0

0101000
+307 11 -306 11 *
Ve
1e-07
152.4 -2.27373675443232e-13 1485.9
0 0

0101101
*
Ed
 1e-07 1 1 0
1  38 0 0 39.2725810840081
0

0101000
+306 11 -304 11 *
Ve
1e-07
12.7 -2.27373675443232e-13 1485.9
0 0

0101101
*
Ed
 1e-07 1 1 0
1  39 0 0 139.7
0

0101000
+304 11 -302 11 *
Ed
 1e-07 1 1 0
1  40 0 0 39.2725810840081
0

0101000
+302 11 -307 11 *
Wi

0101100
+305 0 +303 0 +301 0 +300 0 *
Fa
0  1e-07 19 0

0101000
+299 0 *
Ve
1e-07
12.7 -38.1000000000001 38.1
0 0

0101101
*
Ed
 1e-07 1 1 0
1  41 0 0 1438.275
0

0101000
+297 11 -307 11 *
Ve
1e-07
12.7 -2.27373675443232e-13 38.1
0 0

0101101
*
Ed
 1e-07 1 1 0
1  42 0 0 1447.8
0

0101000
+302 11 -295 11 *
Ed
 1e-07 1 1 0
1  43 0 0 38.0999999999999
0

0101000
+297 11 -295 11 *
Wi

0101100
+296 0 -300 0 +294 0 -293 0 *
Fa
0  1e-07 20 0

0101000
+292 0 *
Ve
1e-07
152.4 -2.27373675443232e-13 38.1
0 0

0101101
*
Ed
 1e-07 1 1 0
1  44 0 0 139.7
0

0101000
+295 11 -290 11 *
Ve
1e-07
152.4 -38.1000000000001 38.1
0 0

0101101
*
Ed
 1e-07 1 1 0
1  45 0 0 38.0999999999999
0

0101000
+290 11 -288 11 *
Ed
 1e-07 1 1 0
1  46 0 0 139.7
0

0101000
+288 11 -297 11 *
Wi

0101100
+293 0 +289 0 +287 0 +286 0 *
Fa
0  1e-07 21 0

0101000
+285 0 *
Ed
 1e-07 1 1 0
1  47 0 0 1447.8
0

0101000
+304 11 -290 11 *
Wi

0101100
-294 0 -301 0 +283 0 -289 0 *
Fa
0  1e-07 22 0

0101000
+282 0 *
Ed
 1e-07 1 1 0
1  48 0 0 1438.275
0

0101000
+306 11 -288 11 *
Wi

0101100
-283 0 -303 0 +280 0 -287 0 *
Fa
0  1e-07 23 0

0101000
+279 0 *
Wi

0101100
-280 0 -305 0 -296 0 -286 0 *
Fa
0  1e-07 24 0

0101000
+277 0 *
Sh

0101100
-298 0 -291 0 -284 0 -281 0 -278 0 -276 0 *
So

0100000
+275 0 *
Ve
1e-07
12.7000000000003 -1219.2 1181.1
0 0

0101101
*
Ve
1e-07
152.4 -1219.2 1181.1
0 0

0101101
*
Ed
 1e-07 1 1 0
1  49 0 0 139.7
0

0101000
+273 13 -272 13 *
Ve
1e-07
152.4 -1181.1 1190.625
0 0

0101101
*
Ed
 1e-07 1 1 0
1  50 0 0 39.2725810840082
0

0101000
+272 13 -270 13 *
Ve
1e-07
12.7000000000003 -1181.1 1190.625
0 0

0101101
*
Ed
 1e-07 1 1 0
1  51 0 0 139.7
0

0101000
+270 13 -268 13 *
Ed
 1e-07 1 1 0
1  52 0 0 39.2725810840082
0

0101000
+268 13 -273 13 *
Wi

0101100
+271 0 +269 0 +267 0 +266 0 *
Fa
0  1e-07 25 0

0101000
+265 0 *
Ve
1e-07
12.7000000000003 -1219.2 38.1
0 0

0101101
*
Ed
 1e-07 1 1 0
1  53 0 0 1143
0

0101000
+263 13 -273 13 *
Ve
1e-07
12.7000000000003 -1181.1 38.1
0 0

0101101
*
Ed
 1e-07 1 1 0
1  54 0 0 1152.525
0

0101000
+268 13 -261 13 *
Ed
 1e-07 1 1 0
1  55 0 0 38.1
0

0101000
+263 13 -261 13 *
Wi

0101100
+262 0 -266 0 +260 0 -259 0 *
Fa
0  1e-07 26 0

0101000
+258 0 *
Ve
1e-07
152.4 -1181.1 38.1
0 0

0101101
*
Ed
 1e-07 1 1 0
1  56 0 0 139.7
0

0101000
+261 13 -256 13 *
Ve
1e-07
152.4 -1219.2 38.1
0 0

0101101
*
Ed
 1e-07 1 1 0
1  57 0 0 38.1
0

0101000
+256 13 -254 13 *
Ed
 1e-07 1 1 0
1  58 0 0 139.7
0

0101000
+254 13 -263 13 *
Wi

0101100
+259 0 +255 0 +253 0 +252 0 *
Fa
0  1e-07 27 0

0101000
+251 0 *
Ed
 1e-07 1 1 0
1  59 0 0 1152.525
0

0101000
+270 13 -256 13 *
Wi

0101100
-260 0 -267 0 +249 0 -255 0 *
Fa
0  1e-07 28 0

0101000
+248 0 *
Ed
 1e-07 1 1 0
1  60 0 0 1143
0

0101000
+272 13 -254 13 *
Wi

0101100
-249 0 -269 0 +246 0 -253 0 *
Fa
0  1e-07 29 0

0101000
+245 0 *
Wi

0101100
-246 0 -271 0 -262 0 -252 0 *
Fa
0  1e-07 30 0

0101000
+243 0 *
Sh

0101100
-264 0 -257 0 -250 0 -247 0 -244 0 -242 0 *
So

0100000
+241 0 *
Ve
1e-07
114.3 -1181.1 1190.625
0 0

0101101
*
Ve
1e-07
152.4 -1181.1 1190.625
0 0

0101101
*
Ed
 1e-07 1 1 0
1  61 0 0 38.1
0

0101000
+239 15 -238 15 *
Ve
1e-07
152.4 -1041.4 1225.55
0 0

0101101
*
Ed
 1e-07 1 1 0
1  62 0 0 143.999463974697
0

0101000
+238 15 -236 15 *
Ve
1e-07
114.3 -1041.4 1225.55
0 0

0101101
*
Ed
 1e-07 1 1 0
1  63 0 0 38.1
0

0101000
+236 15 -234 15 *
Ed
 1e-07 1 1 0
1  64 0 0 143.999463974697
0

0101000
+234 15 -239 15 *
Wi

0101100
+237 0 +235 0 +233 0 +232 0 *
Fa
0  1e-07 31 0

0101000
+231 0 *
Ve
1e-07
114.3 -1181.1 38.1
0 0

0101101
*
Ed
 1e-07 1 1 0
1  65 0 0 1152.525
0

0101000
+229 15 -239 15 *
Ve
1e-07
114.3 -1041.4 38.1
0 0

0101101
*
Ed
 1e-07 1 1 0
1  66 0 0 1187.45
0

0101000
+234 15 -227 15 *
Ed
 1e-07 1 1 0
1  67 0 0 139.7
0

0101000
+229 15 -227 15 *
Wi

0101100
+228 0 -232 0 +226 0 -225 0 *
Fa
0  1e-07 32 0

0101000
+224 0 *
Ve
1e-07
152.4 -1041.4 38.1
0 0

0101101
*
Ed
 1e-07 1 1 0
1  68 0 0 38.1
0

0101000
+227 15 -222 15 *
Ve
1e-07
152.4 -1181.1 38.1
0 0

0101101
*
Ed
 1e-07 1 1 0
1  69 0 0 139.7
0

0101000
+222 15 -220 15 *
Ed
 1e-07 1 1 0
1  70 0 0 38.1
0

0101000
+220 15 -229 15 *
Wi

0101100
+225 0 +221 0 +219 0 +218 0 *
Fa
0  1e-07 33 0

0101000
+217 0 *
Ed
 1e-07 1 1 0
1  71 0 0 1187.45
0

0101000
+236 15 -222 15 *
Wi

0101100
-226 0 -233 0 +215 0 -221 0 *
Fa
0  1e-07 34 0

0101000
+214 0 *
Ed
 1e-07 1 1 0
1  72 0 0 1152.525
0

0101000
+238 15 -220 15 *
Wi

0101100
-215 0 -235 0 +212 0 -219 0 *
Fa
0  1e-07 35 0

0101000
+211 0 *
Wi

0101100
-212 0 -237 0 -228 0 -218 0 *
Fa
0  1e-07 36 0

0101000
+209 0 *
Sh

0101100
-230 0 -223 0 -216 0 -213 0 -210 0 -208 0 *
So

0100000
+207 0 *
Ve
1e-07
12.7000000000002 -1041.4 1225.55
0 0

0101101
*
Ve
1e-07
152.4 -1041.4 1225.55
0 0

0101101
*
Ed
 1e-07 1 1 0
1  73 0 0 139.7
0

0101000
+205 17 -204 17 *
Ve
1e-07
152.4 -1003.3 1235.075
0 0

0101101
*
Ed
 1e-07 1 1 0
1  74 0 0 39.2725810840082
0

0101000
+204 17 -202 17 *
Ve
1e-07
12.7000000000002 -1003.3 1235.075
0 0

0101101
*
Ed
 1e-07 1 1 0
1  75 0 0 139.7
0

0101000
+202 17 -200 17 *
Ed
 1e-07 1 1 0
1  76 0 0 39.2725810840082
0

0101000
+200 17 -205 17 *
Wi

0101100
+203 0 +201 0 +199 0 +198 0 *
Fa
0  1e-07 37 0

0101000
+197 0 *
Ve
1e-07
12.7000000000002 -1041.4 38.1
0 0

0101101
*
Ed
 1e-07 1 1 0
1  77 0 0 1187.45
0

0101000
+195 17 -205 17 *
Ve
1e-07
12.7000000000002 -1003.3 38.1
0 0

0101101
*
Ed
 1e-07 1 1 0
1  78 0 0 1196.975
0

0101000
+200 17 -193 17 *
Ed
 1e-07 1 1 0
1  79 0 0 38.1
0

0101000
+195 17 -193 17 *
Wi

0101100
+194 0 -198 0 +192 0 -191 0 *
Fa
0  1e-07 38 0

0101000
+190 0 *
Ve
1e-07
152.4 -1003.3 38.1
0 0

0101101
*
Ed
 1e-07 1 1 0
1  80 0 0 139.7
0

0101000
+193 17 -188 17 *
Ve
1e-07
152.4 -1041.4 38.1
0 0

0101101
*
Ed
 1e-07 1 1 0
1  81 0 0 38.1
0

0101000
+188 17 -186 17 *
Ed
 1e-07 1 1 0
1  82 0 0 139.7
0

0101000
+186 17 -195 17 *
Wi

0101100
+191 0 +187 0 +185 0 +184 0 *
Fa
0  1e-07 39 0

0101000
+183 0 *
Ed
 1e-07 1 1 0
1  83 0 0 1196.975
0

0101000
+202 17 -188 17 *
Wi

0101100
-192 0 -199 0 +181 0 -187 0 *
Fa
0  1e-07 40 0

0101000
+180 0 *
Ed
 1e-07 1 1 0
1  84 0 0 1187.45
0

0101000
+204 17 -186 17 *
Wi

0101100
-181 0 -201 0 +178 0 -185 0 *
Fa
0  1e-07 41 0

0101000
+177 0 *
Wi

0101100
-178 0 -203 0 -194 0 -184 0 *
Fa
0  1e-07 42 0

0101000
+175 0 *
Sh

0101100
-196 0 -189 0 -182 0 -179 0 -176 0 -174 0 *
So

0100000
+173 0 *
Ve
1e-07
12.7 -38.1000000000001 1476.375
0 0

0101101
*
Ve
1e-07
152.4 -38.1000000000001 1476.375
0 0

0101101
*
Ed
 1e-07 1 1 0
1  85 0 0 139.7
0

0101000
+171 19 -170 19 *
Ve
1e-07
152.4 -2.27373675443232e-13 1485.9
0 0

0101101
*
Ed
 1e-07 1 1 0
1  86 0 0 39.2725810840081
0

0101000
+170 19 -168 19 *
Ve
1e-07
12.7 -2.27373675443232e-13 1485.9
0 0

0101101
*
Ed
 1e-07 1 1 0
1  87 0 0 139.7
0

0101000
+168 19 -166 19 *
Ed
 1e-07 1 1 0
1  88 0 0 39.2725810840081
0

0101000
+166 19 -171 19 *
Wi

0101100
+169 0 +167 0 +165 0 +164 0 *
Fa
0  1e-07 43 0

0101000
+163 0 *
Ve
1e-07
12.7 -38.1000000000001 38.1
0 0

0101101
*
Ed
 1e-07 1 1 0
1  89 0 0 1438.275
0

0101000
+161 19 -171 19 *
Ve
1e-07
12.7 -2.27373675443232e-13 38.1
0 0

0101101
*
Ed
 1e-07 1 1 0
1  90 0 0 1447.8
0

0101000
+166 19 -159 19 *
Ed
 1e-07 1 1 0
1  91 0 0 38.0999999999999
0

0101000
+161 19 -159 19 *
Wi

0101100
+160 0 -164 0 +158 0 -157 0 *
Fa
0  1e-07 44 0

0101000
+156 0 *
Ve
1e-07
152.4 -2.27373675443232e-13 38.1
0 0

0101101
*
Ed
 1e-07 1 1 0
1  92 0 0 139.7
0

0101000
+159 19 -154 19 *
Ve
1e-07
152.4 -38.1000000000001 38.1
0 0

0101101
*
Ed
 1e-07 1 1 0
1  93 0 0 38.0999999999999
0

0101000
+154 19 -152 19 *
Ed
 1e-07 1 1 0
1  94 0 0 139.7
0

0101000
+152 19 -161 19 *
Wi

0101100
+157 0 +153 0 +151 0 +150 0 *
Fa
0  1e-07 45 0

0101000
+149 0 *
Ed
 1e-07 1 1 0
1  95 0 0 1447.8
0

0101000
+168 19 -154 19 *
Wi

0101100
-158 0 -165 0 +147 0 -153 0 *
Fa
0  1e-07 46 0

0101000
+146 0 *
Ed
 1e-07 1 1 0
1  96 0 0 1438.275
0

0101000
+170 19 -152 19 *
Wi

0101100
-147 0 -167 0 +144 0 -151 0 *
Fa
0  1e-07 47 0

0101000
+143 0 *
Wi

0101100
-144 0 -169 0 -160 0 -150 0 *
Fa
0  1e-07 48 0

0101000
+141 0 *
Sh

0101100
-162 0 -155 0 -148 0 -145 0 -142 0 -140 0 *
So

0100000
+139 0 *
Ve
1e-07
114.3 -177.8 1441.45
0 0

0101101
*
Ve
1e-07
152.4 -177.8 1441.45
0 0

0101101
*
Ed
 1e-07 1 1 0
1  97 0 0 38.1
0

0101000
+137 21 -136 21 *
Ve
1e-07
152.4 -38.1000000000001 1476.375
0 0

0101101
*
Ed
 1e-07 1 1 0
1  98 0 0 143.999463974697
0

0101000
+136 21 -134 21 *
Ve
1e-07
114.3 -38.1000000000001 1476.375
0 0

0101101
*
Ed
 1e-07 1 1 0
1  99 0 0 38.1
0

0101000
+134 21 -132 21 *
Ed
 1e-07 1 1 0
1  100 0 0 143.999463974697
0

0101000
+132 21 -137 21 *
Wi

0101100
+135 0 +133 0 +131 0 +130 0 *
Fa
0  1e-07 49 0

0101000
+129 0 *
Ve
1e-07
114.3 -177.8 38.1
0 0

0101101
*
Ed
 1e-07 1 1 0
1  101 0 0 1403.35
0

0101000
+127 21 -137 21 *
Ve
1e-07
114.3 -38.1000000000001 38.1
0 0

0101101
*
Ed
 1e-07 1 1 0
1  102 0 0 1438.275
0

0101000
+132 21 -125 21 *
Ed
 1e-07 1 1 0
1  103 0 0 139.7
0

0101000
+127 21 -125 21 *
Wi

0101100
+126 0 -130 0 +124 0 -123 0 *
Fa
0  1e-07 50 0

0101000
+122 0 *
Ve
1e-07
152.4 -38.1000000000001 38.1
0 0

0101101
*
Ed
 1e-07 1 1 0
1  104 0 0 38.1
0

0101000
+125 21 -120 21 *
Ve
1e-07
152.4 -177.8 38.1
0 0

0101101
*
Ed
 1e-07 1 1 0
1  105 0 0 139.7
0

0101000
+120 21 -118 21 *
Ed
 1e-07 1 1 0
1  106 0 0 38.1
0

0101000
+118 21 -127 21 *
Wi

0101100
+123 0 +119 0 +117 0 +116 0 *
Fa
0  1e-07 51 0

0101000
+115 0 *
Ed
 1e-07 1 1 0
1  107 0 0 1438.275
0

0101000
+134 21 -120 21 *
Wi

0101100
-124 0 -131 0 +113 0 -119 0 *
Fa
0  1e-07 52 0

0101000
+112 0 *
Ed
 1e-07 1 1 0
1  108 0 0 1403.35
0

0101000
+136 21 -118 21 *
Wi

0101100
-113 0 -133 0 +110 0 -117 0 *
Fa
0  1e-07 53 0

0101000
+109 0 *
Wi

0101100
-110 0 -135 0 -126 0 -116 0 *
Fa
0  1e-07 54 0

0101000
+107 0 *
Sh

0101100
-128 0 -121 0 -114 0 -111 0 -108 0 -106 0 *
So

0100000
+105 0 *
Ve
1e-07
12.7 -215.9 1431.925
0 0

0101101
*
Ve
1e-07
152.4 -215.9 1431.925
0 0

0101101
*
Ed
 1e-07 1 1 0
1  109 0 0 139.7
0

0101000
+103 23 -102 23 *
Ve
1e-07
152.4 -177.8 1441.45
0 0

0101101
*
Ed
 1e-07 1 1 0
1  110 0 0 39.2725810840081
0

0101000
+102 23 -100 23 *
Ve
1e-07
12.7 -177.8 1441.45
0 0

0101101
*
Ed
 1e-07 1 1 0
1  111 0 0 139.7
0

0101000
+100 23 -98 23 *
Ed
 1e-07 1 1 0
1  112 0 0 39.2725810840081
0

0101000
+98 23 -103 23 *
Wi

0101100
+101 0 +99 0 +97 0 +96 0 *
Fa
0  1e-07 55 0

0101000
+95 0 *
Ve
1e-07
12.7 -215.9 38.1
0 0

0101101
*
Ed
 1e-07 1 1 0
1  113 0 0 1393.825
0

0101000
+93 23 -103 23 *
Ve
1e-07
12.7 -177.8 38.1
0 0

0101101
*
Ed
 1e-07 1 1 0
1  114 0 0 1403.35
0

0101000
+98 23 -91 23 *
Ed
 1e-07 1 1 0
1  115 0 0 38.0999999999999
0

0101000
+93 23 -91 23 *
Wi

0101100
+92 0 -96 0 +90 0 -89 0 *
Fa
0  1e-07 56 0

0101000
+88 0 *
Ve
1e-07
152.4 -177.8 38.1
0 0

0101101
*
Ed
 1e-07 1 1 0
1  116 0 0 139.7
0

0101000
+91 23 -86 23 *
Ve
1e-07
152.4 -215.9 38.1
0 0

0101101
*
Ed
 1e-07 1 1 0
1  117 0 0 38.0999999999999
0

0101000
+86 23 -84 23 *
Ed
 1e-07 1 1 0
1  118 0 0 139.7
0

0101000
+84 23 -93 23 *
Wi

0101100
+89 0 +85 0 +83 0 +82 0 *
Fa
0  1e-07 57 0

0101000
+81 0 *
Ed
 1e-07 1 1 0
1  119 0 0 1403.35
0

0101000
+100 23 -86 23 *
Wi

0101100
-90 0 -97 0 +79 0 -85 0 *
Fa
0  1e-07 58 0

0101000
+78 0 *
Ed
 1e-07 1 1 0
1  120 0 0 1393.825
0

0101000
+102 23 -84 23 *
Wi

0101100
-79 0 -99 0 +76 0 -83 0 *
Fa
0  1e-07 59 0

0101000
+75 0 *
Wi

0101100
-76 0 -101 0 -92 0 -82 0 *
Fa
0  1e-07 60 0

0101000
+73 0 *
Sh

0101100
-94 0 -87 0 -80 0 -77 0 -74 0 -72 0 *
So

0100000
+71 0 *
Ve
1e-07
12.7000000000003 -1219.2 1219.2
0 0

0101101
*
Ve
1e-07
152.4 -1219.2 1219.2
0 0

0101101
*
Ed
 1e-07 1 1 0
1  121 0 0 139.7
0

0101000
+69 25 -68 25 *
Ve
1e-07
152.4 -2.27373675443232e-13 1524
0 0

0101101
*
Ed
 1e-07 1 1 0
1  122 0 0 1256.72259468826
0

0101000
+68 25 -66 25 *
Ve
1e-07
12.7 -2.27373675443232e-13 1524
0 0

0101101
*
Ed
 1e-07 1 1 0
1  123 0 0 139.7
0

0101000
+66 25 -64 25 *
Ed
 1e-07 1 1 0
1  124 0 0 1256.72259468826
0

0101000
+64 25 -69 25 *
Wi

0101100
+67 0 +65 0 +63 0 +62 0 *
Fa
0  1e-07 61 0

0101000
+61 0 *
Ve
1e-07
12.7000000000003 -1219.2 1181.1
0 0

0101101
*
Ed
 1e-07 1 1 0
1  125 0 0 38.0999999999999
0

0101000
+59 25 -69 25 *
Ve
1e-07
12.7 -2.27373675443232e-13 1485.9
0 0

0101101
*
Ed
 1e-07 1 1 0
1  126 0 0 38.0999999999999
0

0101000
+64 25 -57 25 *
Ed
 1e-07 1 1 0
1  127 0 0 1256.72259468826
0

0101000
+59 25 -57 25 *
Wi

0101100
+58 0 -62 0 +56 0 -55 0 *
Fa
0  1e-07 62 0

0101000
+54 0 *
Ve
1e-07
152.4 -2.27373675443232e-13 1485.9
0 0

0101101
*
Ed
 1e-07 1 1 0
1  128 0 0 139.7
0

0101000
+57 25 -52 25 *
Ve
1e-07
152.4 -1219.2 1181.1
0 0

0101101
*
Ed
 1e-07 1 1 0
1  129 0 0 1256.72259468826
0

0101000
+52 25 -50 25 *
Ed
 1e-07 1 1 0
1  130 0 0 139.7
0

0101000
+50 25 -59 25 *
Wi

0101100
+55 0 +51 0 +49 0 +48 0 *
Fa
0  1e-07 63 0

0101000
+47 0 *
Ed
 1e-07 1 1 0
1  131 0 0 38.0999999999999
0

0101000
+66 25 -52 25 *
Wi

0101100
-56 0 -63 0 +45 0 -51 0 *
Fa
0  1e-07 64 0

0101000
+44 0 *
Ed
 1e-07 1 1 0
1  132 0 0 38.0999999999999
0

0101000
+68 25 -50 25 *
Wi

0101100
-45 0 -65 0 +42 0 -49 0 *
Fa
0  1e-07 65 0

0101000
+41 0 *
Wi

0101100
-42 0 -67 0 -58 0 -48 0 *
Fa
0  1e-07 66 0

0101000
+39 0 *
Sh

0101100
-60 0 -53 0 -46 0 -43 0 -40 0 -38 0 *
So

0100000
+37 0 *
Ve
1e-07
2.70006239588838e-13 -1219.2 1219.2
0 0

0101101
*
Ve
1e-07
12.7000000000003 -1219.2 1219.2
0 0

0101101
*
Ed
 1e-07 1 1 0
1  133 0 0 12.7
0

0101000
+35 27 -34 27 *
Ve
1e-07
12.7 -2.27373675443232e-13 1524
0 0

0101101
*
Ed
 1e-07 1 1 0
1  134 0 0 1256.72259468826
0

0101000
+34 27 -32 27 *
Ve
1e-07
0 -2.27373675443232e-13 1524
0 0

0101101
*
Ed
 1e-07 1 1 0
1  135 0 0 12.7
0

0101000
+32 27 -30 27 *
Ed
 1e-07 1 1 0
1  136 0 0 1256.72259468826
0

0101000
+30 27 -35 27 *
Wi

0101100
+33 0 +31 0 +29 0 +28 0 *
Fa
0  1e-07 67 0

0101000
+27 0 *
Ve
1e-07
2.70006239588838e-13 -1219.2 0
0 0

0101101
*
Ed
 1e-07 1 1 0
1  137 0 0 1219.2
0

0101000
+25 27 -35 27 *
Ve
1e-07
0 -2.27373675443232e-13 0
0 0

0101101
*
Ed
 1e-07 1 1 0
1  138 0 0 1524
0

0101000
+30 27 -23 27 *
Ed
 1e-07 1 1 0
1  139 0 0 1219.2
0

0101000
+25 27 -23 27 *
Wi

0101100
+24 0 -28 0 +22 0 -21 0 *
Fa
0  1e-07 68 0

0101000
+20 0 *
Ve
1e-07
12.7 -2.27373675443232e-13 0
0 0

0101101
*
Ed
 1e-07 1 1 0
1  140 0 0 12.7
0

0101000
+23 27 -18 27 *
Ve
1e-07
12.7000000000003 -1219.2 0
0 0

0101101
*
Ed
 1e-07 1 1 0
1  141 0 0 1219.2
0

0101000
+18 27 -16 27 *
Ed
 1e-07 1 1 0
1  142 0 0 12.7
0

0101000
+16 27 -25 27 *
Wi

0101100
+21 0 +17 0 +15 0 +14 0 *
Fa
0  1e-07 69 0

0101000
+13 0 *
Ed
 1e-07 1 1 0
1  143 0 0 1524
0

0101000
+32 27 -18 27 *
Wi

0101100
-22 0 -29 0 +11 0 -17 0 *
Fa
0  1e-07 70 0

0101000
+10 0 *
Ed
 1e-07 1 1 0
1  144 0 0 1219.2
0

0101000
+34 27 -16 27 *
Wi

0101100
-11 0 -31 0 +8 0 -15 0 *
Fa
0  1e-07 71 0

0101000
+7 0 *
Wi

0101100
-8 0 -33 0 -24 0 -14 0 *
Fa
0  1e-07 72 0

0101000
+5 0 *
Sh

0101100
-26 0 -19 0 -12 0 -9 0 -6 0 -4 0 *
So

0100000
+3 0 *
Co

1100000
+376 4 -342 6 -308 8 -274 10 -240 12 -206 14 -172 16 -138 18 -104 20 -70 22 
-36 24 -2 26 *

+1 3 